<svg width="56" height="56" viewBox="0 0 56 56" fill="none" xmlns="http://www.w3.org/2000/svg">
<rect width="56" height="56" rx="20" fill="#387FEB"/>
<path d="M43.9998 29.8151C43.9998 29.1785 43.7469 28.568 43.2969 28.118C42.8469 27.6681 42.2365 27.4152 41.6001 27.4152H40.8V25.815C40.8 24.5422 40.2943 23.3213 39.394 22.421C38.4937 21.5208 37.2728 21.015 36 21.015H29.5999V18.9713C30.4193 18.4983 30.9871 17.6872 31.1513 16.7556C31.3155 15.8243 31.0594 14.8678 30.4514 14.1432C29.8434 13.4187 28.9458 13 28 13C27.0542 13 26.1566 13.4187 25.5486 14.1432C24.9406 14.8677 24.6845 15.8243 24.8487 16.7556C25.0129 17.6872 25.5808 18.4983 26.4001 18.9713V21.015H20C18.7272 21.015 17.5063 21.5208 16.606 22.421C15.7057 23.3213 15.2 24.5422 15.2 25.815V27.4149L14.3999 27.4152C13.5425 27.4152 12.7502 27.8724 12.3216 28.6152C11.8928 29.3576 11.8928 30.2724 12.3216 31.0151C12.7502 31.7576 13.5425 32.2151 14.3999 32.2151H15.2V33.815C15.2003 34.8658 15.545 35.8877 16.1814 36.7237C16.8181 37.5596 17.7112 38.1639 18.7242 38.4435C19.0799 38.526 19.3981 38.7243 19.6289 39.0071C19.8598 39.29 19.9903 39.6417 19.9999 40.0065V41.1521C19.9989 41.579 20.1684 41.9889 20.4714 42.2899C20.774 42.5913 21.1846 42.7587 21.6116 42.7552C22.0332 42.7552 22.4369 42.5851 22.7312 42.2835L25.9313 39.0835V39.0837C26.2313 38.7835 26.6384 38.615 27.0627 38.615H36.0002C37.2731 38.615 38.494 38.1093 39.3942 37.209C40.2945 36.309 40.8002 35.0881 40.8002 33.815V32.2151H41.6003C42.2367 32.2151 42.8472 31.9623 43.2971 31.512C43.7471 31.062 44 30.4516 44 29.8151H43.9998ZM39.1998 33.815C39.199 34.6633 38.8615 35.4768 38.2615 36.0768C37.6618 36.6765 36.8483 37.014 36 37.0151H27.0625C26.2134 37.0127 25.3986 37.3502 24.7997 37.9523L21.5996 41.1524V40.0068L21.5999 40.0065C21.5926 39.2906 21.3481 38.597 20.9045 38.0348C20.4607 37.4729 19.843 37.074 19.1482 36.9007C18.4735 36.7135 17.8788 36.3104 17.4548 35.753C17.0308 35.1958 16.8007 34.5152 16.7999 33.815V25.8149C16.8007 24.9666 17.1382 24.1531 17.7382 23.5534C18.338 22.9534 19.1514 22.6159 19.9997 22.6151H36C36.8483 22.6159 37.6618 22.9534 38.2615 23.5534C38.8615 24.1531 39.199 24.9666 39.1998 25.8149L39.1998 33.815ZM24.7999 29.8151C24.7999 30.4516 24.5471 31.062 24.0971 31.512C23.6471 31.9623 23.0366 32.2151 22.4 32.2151C21.7635 32.2151 21.1531 31.9623 20.7031 31.512C20.2528 31.062 20 30.4516 20 29.8151C20 29.1785 20.2528 28.568 20.7031 28.118C21.1531 27.668 21.7636 27.4152 22.4 27.4152C23.0367 27.4152 23.6471 27.668 24.0971 28.118C24.5471 28.568 24.7999 29.1785 24.7999 29.8151ZM35.9999 29.8151C35.9999 30.4516 35.747 31.062 35.2968 31.512C34.8468 31.9623 34.2363 32.2151 33.5999 32.2151C32.9632 32.2151 32.3527 31.9623 31.9028 31.512C31.4528 31.062 31.1999 30.4516 31.1999 29.8151C31.1999 29.1785 31.4528 28.568 31.9028 28.118C32.3528 27.6681 32.9632 27.4152 33.5999 27.4152C34.2363 27.4152 34.8468 27.668 35.2968 28.118C35.747 28.568 35.9999 29.1785 35.9999 29.8151Z" fill="white"/>
</svg>
