<svg width="96" height="96" viewBox="0 0 96 96" fill="none" xmlns="http://www.w3.org/2000/svg">
<path d="M94.9997 76.4966C94.9997 76.995 90.654 77.4507 83.4683 77.8C82.1621 77.8637 80.7615 77.9237 79.2767 77.9819C77.9931 78.031 76.6482 78.0768 75.2419 78.1193C73.8786 78.1599 72.4636 78.1978 70.9969 78.2329C66.3629 78.3439 61.2413 78.4239 55.7996 78.464C54.4792 78.4731 53.1409 78.4806 51.7848 78.4867C50.3725 78.4916 48.9442 78.494 47.4999 78.494C21.2662 78.494 0 77.6008 0 76.4984C0 75.396 21.2662 74.502 47.4999 74.502C58.7938 74.502 69.1649 74.6675 77.3178 74.944L78.2089 74.974H78.2143C88.483 75.3397 94.9997 75.8854 94.9997 76.4966Z" fill="#4C4C62"/>
<path d="M94.9997 76.4946C94.9997 76.993 90.654 77.4487 83.4683 77.7998C82.1621 77.8625 80.7615 77.9226 79.2767 77.9817C77.9931 78.0296 76.6482 78.0754 75.2419 78.119C73.8786 78.1596 72.4639 78.1975 70.9978 78.2327C66.3629 78.3437 61.2413 78.4237 55.7996 78.4637C54.4798 78.4728 53.1415 78.4801 51.7848 78.4856C50.3725 78.491 48.9442 78.4941 47.4999 78.4947C21.2662 78.4947 0 77.6006 0 76.4936C0 75.5432 15.8263 74.7473 37.0182 74.5472C38.2268 74.5351 39.4491 74.5254 40.6849 74.5181C42.91 74.5054 45.1817 74.4987 47.4999 74.4981C49.818 74.4975 52.0897 74.5041 54.3148 74.5181C55.5531 74.526 56.775 74.5357 57.9806 74.5472C65.1827 74.6145 71.7665 74.7518 77.3169 74.9401L78.208 74.9701H78.2143C88.483 75.3385 94.9997 75.8842 94.9997 76.4946Z" fill="#26282F"/>
<path d="M70.5243 39.2483L63.1745 39.5885L70.3965 38.1086C70.284 37.4559 70.1017 36.8174 69.8526 36.204C70.8699 35.4602 71.7239 34.5146 72.3619 33.4258C72.9998 32.3371 73.4079 31.1284 73.5608 29.8748C73.7138 28.6212 73.6084 27.3494 73.2511 26.1383C72.8939 24.9273 72.2924 23.8029 71.484 22.8348C70.6756 21.8667 69.6776 21.0756 68.5518 20.5107C67.426 19.9457 66.1966 19.619 64.9397 19.5506C63.6828 19.4823 62.4254 19.6738 61.2454 20.1134C60.0654 20.553 58.988 21.2312 58.08 22.1059L63.2053 28.7457L57.2053 23.0791C56.4376 24.0713 55.8796 25.2102 55.5656 26.4261C55.2515 27.6421 55.1879 28.9095 55.3787 30.1509L60.6309 31.6062L55.5546 31.0186C55.6599 31.4308 55.7931 31.8353 55.9534 32.2293C54.2856 33.4427 53.0727 35.1835 52.5095 37.1718C51.9462 39.1602 52.0654 41.2808 52.8478 43.193C51.5736 44.1179 50.5574 45.3556 49.8965 46.7875C49.2356 48.2193 48.9521 49.7975 49.0732 51.3708C49.1943 52.9441 49.7159 54.4598 50.588 55.7729C51.4602 57.086 52.6537 58.1524 54.0543 58.8701C53.8389 59.1708 53.6776 59.5069 53.5775 59.8633C53.4248 60.3807 53.4126 60.9296 53.5422 61.4532C53.1612 61.8333 52.8838 62.305 52.7365 62.8234C52.5892 63.3417 52.577 63.8894 52.7009 64.4138C52.32 64.7938 52.0426 65.2656 51.8953 65.784C51.748 66.3023 51.7358 66.85 51.8597 67.3744C51.4786 67.7543 51.2011 68.2261 51.0538 68.7445C50.9065 69.2629 50.8944 69.8106 51.0185 70.335C50.6332 70.7119 50.3551 71.1851 50.2126 71.7057C49.8328 73.0428 50.3504 74.3643 51.3693 74.6554C52.3882 74.9465 53.5213 74.0978 53.9011 72.7599C54.0537 72.2426 54.0662 71.6938 53.9374 71.17C54.3179 70.7897 54.595 70.3179 54.7423 69.7996C54.8895 69.2814 54.902 68.7339 54.7786 68.2094C55.1592 67.8289 55.4364 67.357 55.5836 66.8386C55.7309 66.3201 55.7433 65.7725 55.6198 65.2479C56.0005 64.8677 56.2777 64.3959 56.425 63.8776C56.5722 63.3593 56.5847 62.8118 56.461 62.2873C56.8464 61.9106 57.1243 61.4373 57.266 60.9166C57.3674 60.566 57.4072 60.2003 57.3839 59.836C58.9564 59.9818 60.5399 59.7183 61.9813 59.071C63.4228 58.4237 64.6736 57.4145 65.6131 56.1407C66.5525 54.867 67.1488 53.3717 67.3444 51.7993C67.54 50.2269 67.3283 48.6305 66.7297 47.1641C67.9671 46.2651 68.9617 45.0708 69.6234 43.6891C70.2852 42.3075 70.5932 40.7821 70.5197 39.251L70.5243 39.2483Z" fill="#29293A"/>
<path opacity="0.1" d="M47.4995 77.6294C53.6218 77.6294 58.5849 77.1029 58.5849 76.4534C58.5849 75.8039 53.6218 75.2773 47.4995 75.2773C41.3772 75.2773 36.4141 75.8039 36.4141 76.4534C36.4141 77.1029 41.3772 77.6294 47.4995 77.6294Z" fill="black"/>
<path d="M40.4095 76.4931C54.7702 76.4931 66.4118 64.8121 66.4118 50.4028C66.4118 35.9935 54.7702 24.3125 40.4095 24.3125C26.0489 24.3125 14.4072 35.9935 14.4072 50.4028C14.4072 64.8121 26.0489 76.4931 40.4095 76.4931Z" fill="#4C4C62"/>
<path d="M62.0162 50.4026C62.0162 62.3758 52.3417 72.082 40.4099 72.082C39.7251 72.082 39.0467 72.0509 38.3801 71.9876C27.6374 70.9811 19.1775 62.0853 18.8175 51.1336C18.809 50.8899 18.8047 50.6462 18.8047 50.4026C18.8047 49.8552 18.825 49.3121 18.8656 48.7733C19.6956 37.5621 29.0251 28.7285 40.411 28.7285C50.2393 28.7285 58.5335 35.3122 61.1541 44.3227C61.2 44.4845 61.2459 44.6443 61.2897 44.8104C61.45 45.4178 61.5853 46.0356 61.6957 46.6637C61.9091 47.8985 62.0163 49.1494 62.0162 50.4026Z" fill="#18181C"/>
<path opacity="0.4" d="M62.0161 50.4023C62.0161 62.3755 52.3417 72.0817 40.4099 72.0817C28.7216 72.0817 19.1999 62.7668 18.8164 51.1333C21.2799 51.2041 23.7893 51.1226 26.1171 50.3176C28.6405 49.4461 30.8005 47.7782 33.1241 46.4587C39.3661 42.9268 46.8154 41.976 53.9462 42.6749C56.3681 42.9118 58.8796 43.4048 61.153 44.3117C61.7271 46.2887 62.0177 48.3377 62.0161 50.3969V50.4023Z" fill="#585EC7"/>
<path opacity="0.4" d="M62.0154 50.4017C62.0154 62.3749 52.341 72.0811 40.4092 72.0811C39.7244 72.0811 39.046 72.05 38.3794 71.9868C34.8759 70.2505 31.9071 67.5935 29.7893 64.2986C27.6714 61.0036 26.4837 57.1941 26.3525 53.2755C28.816 53.3462 31.3255 53.2648 33.6533 52.4598C36.1776 51.5883 38.3367 49.9204 40.6602 48.6009C46.8456 45.1 54.2158 44.1364 61.2879 44.7988C61.4482 45.4062 61.5835 46.024 61.6939 46.6521C61.9083 47.8904 62.0158 49.1449 62.0154 50.4017Z" fill="#585EC7"/>
<path d="M62.0163 50.4015C62.0163 62.3748 52.3418 72.0809 40.41 72.0809C28.4782 72.0809 18.8037 62.3748 18.8037 50.4015C18.8037 49.8541 18.824 49.311 18.8646 48.7722C20.5685 48.9811 22.2315 49.4454 23.798 50.1496C26.332 51.2912 28.5861 53.0438 31.2216 53.9238C33.1445 54.567 35.1892 54.7202 37.2126 54.7813C39.7391 54.8617 42.319 54.7974 44.7088 53.971C47.2321 53.0995 49.3911 51.4316 51.7158 50.1174C54.8063 48.3681 58.196 47.2522 61.6947 46.6562C61.9088 47.8931 62.0164 49.1461 62.0163 50.4015Z" fill="#585EC7"/>
<path d="M89.5608 18.9575L87.9065 20.0098L88.9109 18.1771C88.6275 17.9497 88.2766 17.8236 87.9137 17.8187H87.8866C87.7718 17.8203 87.6572 17.8118 87.5439 17.7932L86.9828 18.1498L87.223 17.7114C86.8259 17.5721 86.4827 17.3108 86.2422 16.9646L85.2387 17.6013L85.8732 16.4444C85.2858 15.7376 84.4954 15.3047 83.6243 15.3047C82.5809 15.3047 81.6517 15.9268 81.0516 16.8973C80.8743 17.1876 80.6236 17.4257 80.3249 17.5873C80.0262 17.749 79.6903 17.8285 79.3511 17.8178H79.2949C78.1427 17.8178 77.21 19.1285 77.21 20.7456C77.21 22.3628 78.1436 23.6726 79.2949 23.6726C79.5477 23.6714 79.7965 23.609 80.0201 23.4907C80.7715 23.0987 81.7578 23.0905 82.5446 23.4406C82.882 23.5926 83.2475 23.6716 83.6173 23.6725C83.9871 23.6735 84.353 23.5963 84.6912 23.4461C85.4726 23.1023 86.4471 23.1096 87.194 23.4943C87.4156 23.612 87.6621 23.6744 87.9128 23.6762C89.065 23.6762 89.9978 22.3656 89.9978 20.7493C90.0045 20.1247 89.8542 19.5084 89.5608 18.9575V18.9575Z" fill="#29293A"/>
<path opacity="0.03" d="M86.4412 23.241C85.8393 23.1261 85.2169 23.1939 84.6536 23.4356C84.3161 23.587 83.9505 23.6653 83.5808 23.6653C83.211 23.6653 82.8455 23.587 82.508 23.4356C81.7202 23.0854 80.734 23.0927 79.9825 23.4847C79.759 23.6035 79.5101 23.6659 79.2573 23.6666C78.2293 23.663 77.3818 22.6252 77.2041 21.2609C77.4086 21.1114 77.5822 20.9236 77.7154 20.7079C78.3155 19.7374 79.2455 19.1152 80.2889 19.1152C81.3322 19.1152 82.2505 19.7301 82.8506 20.6897C83.0297 20.9796 83.2803 21.2182 83.5782 21.3825C83.8761 21.5468 84.2112 21.6312 84.5512 21.6274H84.5775C85.3906 21.6292 86.0976 22.285 86.4412 23.241Z" fill="black"/>
<path d="M17.5021 17.7695L16.6772 18.2943L17.1785 17.3848C17.0369 17.2699 16.8611 17.2059 16.679 17.2029H16.6664C16.609 17.2037 16.5517 17.1994 16.495 17.1901L16.2149 17.372L16.3355 17.1528C16.1374 17.0836 15.9661 16.9534 15.846 16.7808L15.3456 17.0992L15.662 16.5216C15.5287 16.3495 15.3589 16.2092 15.165 16.1109C14.9711 16.0126 14.7578 15.9587 14.5406 15.9531C14.0194 15.9531 13.5562 16.2642 13.2571 16.7481C13.168 16.8921 13.0427 17.0099 12.8937 17.0898C12.7447 17.1696 12.5774 17.2086 12.4086 17.2029H12.3805C11.8058 17.2029 11.3398 17.8559 11.3398 18.6627C11.3398 19.4695 11.8058 20.118 12.3805 20.118C12.5069 20.1175 12.6313 20.0863 12.7431 20.027C12.9387 19.9317 13.1525 19.8801 13.3699 19.8758C13.5873 19.8716 13.8031 19.9148 14.0022 20.0025C14.1707 20.0777 14.353 20.1166 14.5375 20.1166C14.7219 20.1166 14.9043 20.0777 15.0728 20.0025C15.2704 19.9167 15.4841 19.8744 15.6994 19.8784C15.9147 19.8825 16.1267 19.9329 16.321 20.0261C16.4312 20.0851 16.5541 20.1164 16.679 20.1171C17.2538 20.1171 17.7197 19.464 17.7197 18.6618C17.7234 18.3507 17.6486 18.0437 17.5021 17.7695Z" fill="#29293A"/>
<path opacity="0.03" d="M15.9465 19.9076C15.6464 19.85 15.3361 19.8839 15.0554 20.0049C14.8869 20.0801 14.7045 20.119 14.5201 20.119C14.3357 20.119 14.1533 20.0801 13.9848 20.0049C13.7856 19.9172 13.5697 19.874 13.3521 19.8782C13.1346 19.8825 12.9205 19.9341 12.7248 20.0294C12.6132 20.089 12.4887 20.1202 12.3622 20.1204C11.851 20.1204 11.4267 19.6047 11.3379 18.9243C11.4396 18.8504 11.5263 18.7578 11.5935 18.6515C11.8927 18.1676 12.3568 17.8574 12.8771 17.8574C13.3974 17.8574 13.8552 18.1639 14.1543 18.6424C14.2436 18.7871 14.3686 18.9062 14.5173 18.9881C14.666 19.07 14.8332 19.112 15.0028 19.1099H15.0164C15.4234 19.1035 15.7724 19.431 15.9465 19.9076Z" fill="black"/>
<path d="M22.4125 22.2774L23.7414 23.1205L22.9365 21.6525C23.1647 21.4702 23.447 21.3694 23.7387 21.366H23.7596C23.8507 21.3675 23.9417 21.3605 24.0315 21.3451L24.4802 21.6316L24.2853 21.2796C24.6036 21.1681 24.8786 20.9586 25.0713 20.6811L25.8753 21.1932L25.3731 20.2709C25.8436 19.7051 26.4772 19.3613 27.1743 19.3613C28.011 19.3613 28.7552 19.8598 29.2366 20.6347C29.3784 20.8669 29.5788 21.0574 29.8176 21.187C30.0564 21.3165 30.325 21.3804 30.5963 21.3724H30.6416C31.5644 21.3724 32.3123 22.422 32.3123 23.7172C32.3123 25.0124 31.5644 26.0629 30.6416 26.0629C30.4384 26.0621 30.2384 26.0119 30.0587 25.9165C29.7446 25.7634 29.4011 25.6805 29.0519 25.6736C28.7028 25.6667 28.3563 25.7359 28.0364 25.8765C27.7658 25.999 27.4725 26.0627 27.1757 26.0635C26.8789 26.0643 26.5852 26.0021 26.3141 25.881C25.9966 25.7428 25.6532 25.6747 25.3072 25.6815C24.9612 25.6882 24.6208 25.7696 24.3089 25.9201C24.1311 26.013 23.9337 26.0619 23.7333 26.0629C22.8096 26.0629 22.0617 25.0124 22.0617 23.7172C22.0559 23.2152 22.1766 22.72 22.4125 22.2774V22.2774Z" fill="#29293A"/>
<path opacity="0.03" d="M28.5439 31.248C29.0263 31.1564 29.5248 31.2109 29.9762 31.4045C30.2471 31.526 30.5406 31.5888 30.8374 31.5888C31.1341 31.5888 31.4276 31.526 31.6985 31.4045C32.0185 31.2636 32.3651 31.1941 32.7144 31.2009C33.0638 31.2076 33.4075 31.2904 33.7218 31.4436C33.9011 31.539 34.1008 31.5892 34.3038 31.59C35.1241 31.59 35.8058 30.7614 35.9481 29.6681C35.7824 29.5473 35.6417 29.3953 35.5339 29.2206C35.0525 28.4439 34.3083 27.9473 33.4716 27.9473C32.6349 27.9473 31.9007 28.4402 31.4193 29.2097C31.2761 29.4415 31.0757 29.6324 30.8375 29.7638C30.5993 29.8953 30.3314 29.9629 30.0596 29.9601H30.0387C29.3852 29.9574 28.8195 30.4822 28.5439 31.248Z" fill="black"/>
<path d="M86.1038 75.2957C86.5444 74.4771 86.0449 73.4766 85.4693 72.7489C84.8936 72.0213 84.2002 71.2618 84.2111 70.3331C84.2328 68.9988 85.6442 68.2102 86.7728 67.5026C87.6102 66.978 88.3824 66.3554 89.0735 65.648C89.3508 65.3642 89.6174 65.0605 89.7805 64.6984C90.0135 64.1773 90.0071 63.5833 89.9926 63.0112C89.9437 61.1078 89.8497 59.2057 89.7107 57.3047" stroke="#4C4C62" stroke-width="2.1111" stroke-miterlimit="10"/>
<path d="M91.8548 57.1985C91.8387 56.85 91.7353 56.5111 91.5542 56.2132C91.3731 55.9153 91.1201 55.668 90.8187 55.494L90.3546 56.4154L90.3682 55.2994C89.9464 55.1749 89.4961 55.1882 89.0823 55.3372C88.6685 55.4863 88.3126 55.7634 88.066 56.1286C87.8194 56.4938 87.6948 56.9282 87.7103 57.369C87.7257 57.8099 87.8804 58.2344 88.1519 58.5814C88.4235 58.9283 88.7979 59.1796 89.2211 59.2991C89.6443 59.4186 90.0944 59.4001 90.5065 59.2463C90.9185 59.0924 91.2712 58.8111 91.5135 58.4431C91.7558 58.075 91.8754 57.6392 91.8548 57.1985V57.1985Z" fill="#6C63FF"/>
<path d="M88.1554 71.2866C87.9376 71.7108 87.5811 72.047 87.1456 72.2388C86.7101 72.4306 86.2222 72.4663 85.7636 72.34C85.305 72.2137 84.9036 71.933 84.6268 71.545C84.3499 71.157 84.2144 70.6853 84.243 70.209C84.2716 69.7327 84.4625 69.2807 84.7838 68.9289C85.1051 68.577 85.5371 68.3467 86.0075 68.2765C86.4779 68.2064 86.958 68.3006 87.3674 68.5434C87.7768 68.7863 88.0905 69.163 88.256 69.6103L86.9597 70.6681L88.3856 70.3371C88.3856 70.6675 88.3066 70.9931 88.1554 71.2866V71.2866Z" fill="#6C63FF"/>
<path d="M87.1323 67.2453C86.6229 67.27 86.1224 67.1056 85.7262 66.7834C85.33 66.4613 85.066 66.004 84.9846 65.4989C84.9032 64.9938 85.0101 64.4763 85.2849 64.0453C85.5596 63.6143 85.983 63.2999 86.4742 63.1623L86.4633 64.02L86.9328 63.0868H86.9383C87.2138 63.0681 87.4902 63.1047 87.7514 63.1946C88.0126 63.2844 88.2533 63.4257 88.4594 63.6101C88.6655 63.7945 88.8328 64.0183 88.9516 64.2684C89.0704 64.5185 89.1382 64.7899 89.1512 65.0667C89.1641 65.3434 89.1218 65.62 89.0268 65.8801C88.9318 66.1403 88.7861 66.3788 88.598 66.5817C88.41 66.7846 88.1835 66.9478 87.9318 67.0618C87.6801 67.1757 87.4083 67.2381 87.1323 67.2453V67.2453Z" fill="#6C63FF"/>
<path d="M92.1664 63.8843C91.8455 63.8995 91.5254 63.8398 91.2313 63.7098C90.9373 63.5798 90.6774 63.383 90.472 63.135C90.2667 62.887 90.1216 62.5945 90.0481 62.2807C89.9747 61.9668 89.9748 61.6401 90.0487 61.3263C90.1225 61.0125 90.2679 60.7202 90.4735 60.4725C90.6791 60.2247 90.9393 60.0282 91.2334 59.8985C91.5276 59.7688 91.8478 59.7095 92.1687 59.7251C92.4897 59.7407 92.8026 59.831 93.0829 59.9886L92.7203 60.9964L93.4745 60.2688C93.6748 60.4522 93.837 60.6735 93.952 60.9199C94.0669 61.1664 94.1323 61.4331 94.1444 61.705C94.1548 61.899 94.1374 62.0935 94.0927 62.2825C93.989 62.7234 93.7449 63.1184 93.3972 63.4074C93.0496 63.6965 92.6175 63.8639 92.1664 63.8843Z" fill="#6C63FF"/>
<path opacity="0.1" d="M91.5758 57.7544C91.0972 57.8071 90.6313 57.9563 90.1508 57.9863C89.6704 58.0163 89.1428 57.9008 88.8392 57.5261C88.6751 57.3241 88.5935 57.0713 88.4548 56.8484C88.3238 56.6435 88.1445 56.4742 87.9327 56.3555C87.7984 56.6195 87.7219 56.9092 87.7083 57.2053C87.6946 57.5014 87.7441 57.797 87.8535 58.0724C87.9629 58.3477 88.1296 58.5965 88.3424 58.802C88.5553 59.0075 88.8095 59.165 89.0879 59.264C89.3664 59.363 89.6627 59.4012 89.957 59.376C90.2514 59.3509 90.537 59.263 90.7947 59.1182C91.0525 58.9734 91.2764 58.775 91.4516 58.5364C91.6268 58.2977 91.7492 58.0243 91.8106 57.7344C91.7363 57.7407 91.6538 57.7462 91.5758 57.7544Z" fill="black"/>
<path opacity="0.1" d="M92.1669 63.8821C91.81 63.8978 91.4551 63.8209 91.1365 63.6587C90.8178 63.4966 90.5463 63.2547 90.3481 62.9565C90.1498 62.6583 90.0316 62.3138 90.0049 61.9564C89.9781 61.5989 90.0437 61.2406 90.1953 60.916C90.3604 61.0269 90.5021 61.1694 90.6123 61.3353C90.76 61.5591 90.8498 61.8174 91.0238 62.0229C91.3465 62.404 91.8986 62.5287 92.399 62.5059C92.8993 62.4832 93.3825 62.3404 93.882 62.2949C93.9509 62.2885 94.0207 62.284 94.0905 62.2822C93.9866 62.7223 93.7426 63.1165 93.3956 63.4052C93.0485 63.6938 92.6172 63.8612 92.1669 63.8821V63.8821Z" fill="black"/>
<path opacity="0.1" d="M87.1311 67.247C86.7767 67.2645 86.4238 67.1905 86.106 67.032C85.7883 66.8736 85.5164 66.636 85.3163 66.3419C85.1162 66.0479 84.9946 65.7073 84.9632 65.3527C84.9318 64.998 84.9916 64.6412 85.1369 64.3164C85.3074 64.4296 85.4561 64.5729 85.5756 64.7394C85.7361 64.9676 85.8367 65.2305 86.0289 65.4415C86.3788 65.8326 86.9671 65.97 87.4974 65.9572C88.0113 65.9463 88.5054 65.8199 89.0166 65.7808C88.8907 66.19 88.6422 66.5504 88.3048 66.8128C87.9674 67.0751 87.5575 67.2268 87.1311 67.247V67.247Z" fill="black"/>
<path opacity="0.1" d="M88.1553 71.288C87.9119 71.7604 87.4974 72.1214 86.9971 72.2969C86.4968 72.4724 85.9485 72.4492 85.4647 72.232C84.9809 72.0147 84.5983 71.62 84.3954 71.1287C84.1925 70.6374 84.1846 70.0868 84.3735 69.5898C84.5435 69.7024 84.6962 69.8394 84.8267 69.9964C85.0243 70.2384 85.1539 70.5112 85.3824 70.7359C85.8066 71.1543 86.491 71.3262 87.1047 71.3426C87.4557 71.3449 87.8065 71.3267 88.1553 71.288V71.288Z" fill="black"/>
<path d="M82.9766 74.3544C82.9766 74.3544 84.6137 74.3035 85.1068 73.9515C85.5999 73.5995 87.625 73.1774 87.7474 73.7432C87.8698 74.3089 90.2076 76.5546 88.3593 76.5701C86.511 76.5855 84.0643 76.2808 83.5721 75.9798C83.0799 75.6787 82.9766 74.3544 82.9766 74.3544Z" fill="#656380"/>
<path opacity="0.2" d="M88.3928 76.3726C86.5445 76.3871 84.0979 76.0834 83.6057 75.7823C83.2304 75.5531 83.0808 74.7308 83.031 74.3516H82.9766C82.9766 74.3516 83.0799 75.6759 83.5721 75.9769C84.0643 76.278 86.511 76.5818 88.3593 76.5672C88.8932 76.5627 89.0772 76.3726 89.0672 76.0906C88.9929 76.2625 88.7899 76.369 88.3928 76.3726Z" fill="black"/>
<path d="M76.6888 74.9253C76.4014 74.3914 76.7277 73.7374 77.1021 73.2617C77.4765 72.786 77.9334 72.2903 77.9234 71.6836C77.9098 70.8123 76.9879 70.2975 76.2509 69.8354C75.7041 69.4928 75.1999 69.0861 74.7489 68.6239C74.56 68.4462 74.4039 68.2365 74.2875 68.0045C74.1352 67.6634 74.1397 67.2768 74.1497 66.903C74.1817 65.6587 74.2421 64.4157 74.331 63.1738" stroke="#4C4C62" stroke-width="2.1111" stroke-miterlimit="10"/>
<path d="M72.9323 63.0998C72.9429 62.8727 73.0102 62.6519 73.1281 62.4577C73.2459 62.2634 73.4105 62.1021 73.6067 61.9883L73.9095 62.5904L73.9004 61.8628C74.1761 61.7807 74.4706 61.7888 74.7414 61.8858C75.0122 61.9827 75.2453 62.1636 75.4068 62.4023C75.5684 62.6409 75.6502 62.925 75.6403 63.2133C75.6303 63.5016 75.5293 63.7793 75.3517 64.0062C75.1741 64.2332 74.9292 64.3975 74.6524 64.4755C74.3756 64.5536 74.0812 64.5412 73.8118 64.4403C73.5424 64.3394 73.312 64.1551 73.1539 63.9141C72.9958 63.6731 72.9182 63.388 72.9323 63.0998Z" fill="#6C63FF"/>
<path d="M75.3483 72.3024C75.4849 72.5688 75.7054 72.7824 75.9755 72.9101C76.2456 73.0377 76.5502 73.0722 76.8419 73.0082C77.1336 72.9442 77.396 72.7853 77.5884 72.5561C77.7807 72.327 77.8922 72.0405 77.9055 71.7412C77.9142 71.5531 77.8834 71.3653 77.8148 71.19C77.7166 70.9313 77.5419 70.7088 77.3142 70.5523C77.0866 70.3959 76.8167 70.3129 76.5407 70.3145C76.2648 70.3161 75.9959 70.4021 75.77 70.5612C75.5441 70.7203 75.372 70.9447 75.2767 71.2046L76.1233 71.8958L75.1924 71.6794C75.1929 71.8967 75.2465 72.1106 75.3483 72.3024V72.3024Z" fill="#6C63FF"/>
<path d="M76.0165 69.6644C76.3751 69.68 76.7253 69.5527 76.9907 69.3102C77.2562 69.0678 77.4153 68.7298 77.4334 68.3701C77.4443 68.1573 77.4042 67.9448 77.3164 67.7507C77.2351 67.5692 77.1151 67.4077 76.9649 67.2776C76.8147 67.1475 76.638 67.0519 76.4471 66.9976L76.4535 67.5579L76.1452 66.9485C75.7868 66.9332 75.4368 67.0606 75.1716 67.303C74.9064 67.5455 74.7474 67.8833 74.7293 68.2428C74.7212 68.3997 74.7409 68.5567 74.7873 68.7067C74.8699 68.9734 75.032 69.2082 75.2519 69.3795C75.4717 69.5507 75.7386 69.6502 76.0165 69.6644V69.6644Z" fill="#6C63FF"/>
<path d="M72.7277 67.466C73.0863 67.4816 73.4365 67.3543 73.7019 67.1118C73.9673 66.8694 74.1265 66.5314 74.1445 66.1717C74.1543 65.9299 74.0999 65.6899 73.9867 65.4762C73.8736 65.2625 73.7058 65.0828 73.5006 64.9556C73.2954 64.8284 73.0602 64.7583 72.8191 64.7524C72.578 64.7465 72.3396 64.805 72.1285 64.922L72.3678 65.5805L71.8756 65.1057C71.6784 65.2872 71.5392 65.5232 71.4755 65.7839C71.4118 66.0447 71.4264 66.3185 71.5175 66.5709C71.6087 66.8233 71.7722 67.043 71.9876 67.2023C72.2029 67.3616 72.4605 67.4534 72.7277 67.466V67.466Z" fill="#6C63FF"/>
<path opacity="0.1" d="M73.1152 63.4649C73.427 63.4994 73.7316 63.5968 74.0452 63.6168C74.3589 63.6368 74.7033 63.5604 74.9019 63.3157C75.0088 63.1838 75.0623 63.0174 75.153 62.8737C75.2387 62.7398 75.3557 62.629 75.4938 62.5508C75.5995 62.7628 75.6484 62.9988 75.6355 63.2356C75.6226 63.4723 75.5484 63.7016 75.4203 63.9009C75.2922 64.1001 75.1146 64.2624 74.9049 64.3717C74.6953 64.4811 74.4608 64.5338 74.2247 64.5245C73.9263 64.5098 73.641 64.3969 73.4129 64.2033C73.1848 64.0096 73.0267 63.7459 72.9629 63.4531C73.0127 63.4567 73.0635 63.4649 73.1152 63.4649Z" fill="black"/>
<path opacity="0.1" d="M72.7288 67.4665C73.0874 67.4821 73.4376 67.3548 73.7031 67.1123C73.9685 66.8698 74.1276 66.5319 74.1457 66.1722C74.1566 65.9499 74.1124 65.7283 74.017 65.5273C73.9095 65.5997 73.8172 65.6924 73.745 65.8002C73.648 65.9457 73.59 66.1149 73.4731 66.2495C73.2619 66.4978 72.9011 66.5797 72.5747 66.5642C72.2484 66.5488 71.932 66.4569 71.6057 66.4269C71.5613 66.4223 71.5151 66.4196 71.4697 66.4187C71.537 66.7072 71.6965 66.9657 71.9238 67.1549C72.1511 67.3441 72.4338 67.4535 72.7288 67.4665V67.4665Z" fill="black"/>
<path opacity="0.1" d="M76.0162 69.6637C76.3748 69.6793 76.725 69.552 76.9904 69.3095C77.2558 69.067 77.4149 68.7291 77.433 68.3694C77.444 68.1565 77.4039 67.9441 77.3161 67.75C77.2048 67.8227 77.1077 67.9151 77.0296 68.0229C76.9245 68.172 76.8592 68.343 76.7359 68.4776C76.5075 68.7332 76.1231 68.8233 75.7769 68.8151C75.4306 68.8069 75.1187 68.7241 74.7852 68.6996C74.8668 68.9677 75.0287 69.2041 75.249 69.3766C75.4692 69.5491 75.7371 69.6494 76.0162 69.6637V69.6637Z" fill="black"/>
<path opacity="0.1" d="M75.3486 72.3018C75.4852 72.5682 75.7057 72.7819 75.9759 72.9095C76.246 73.0372 76.5506 73.0717 76.8422 73.0077C77.1339 72.9436 77.3964 72.7847 77.5887 72.5556C77.781 72.3264 77.8925 72.0399 77.9058 71.7406C77.9146 71.5526 77.8837 71.3647 77.8152 71.1895C77.7035 71.2631 77.6033 71.3529 77.5179 71.456C77.3891 71.6133 77.3039 71.7916 77.1553 71.9389C76.8779 72.2118 76.4301 72.3237 76.033 72.3346C75.8045 72.3373 75.5759 72.3264 75.3486 72.3018V72.3018Z" fill="black"/>
<path d="M78.7314 74.3065C78.7314 74.3065 77.6617 74.2728 77.3399 74.0427C77.0181 73.8126 75.6946 73.5379 75.6176 73.9072C75.5405 74.2765 74.0113 75.7436 75.2178 75.7527C76.4244 75.7618 78.0225 75.5644 78.3443 75.3679C78.6661 75.1715 78.7314 74.3065 78.7314 74.3065Z" fill="#656380"/>
<path opacity="0.2" d="M75.1937 75.6264C76.4012 75.6364 78.0038 75.4381 78.3202 75.2417C78.5658 75.0916 78.6628 74.554 78.6955 74.3066H78.7317C78.7317 74.3066 78.6637 75.1716 78.3419 75.3681C78.0201 75.5646 76.4229 75.7628 75.2155 75.7528C74.8674 75.7528 74.7468 75.6264 74.7532 75.4418C74.8021 75.5545 74.9345 75.6246 75.1937 75.6264Z" fill="black"/>
<path opacity="0.6" d="M34.2516 64.9352C34.4461 67.3993 37.9801 67.7803 37.9801 67.7803C37.4859 67.6211 37.4628 67.3684 37.1896 66.0669C36.9164 64.7654 35.6901 63.8689 35.6901 63.8689C40.3881 60.5577 36.0405 56.8324 36.0405 56.8324C35.1697 57.287 34.4724 58.0134 34.0552 58.9005C33.8516 59.2083 33.8095 59.3524 33.708 59.7965C33.6875 59.8889 33.597 60.0992 33.5808 60.192C33.5007 60.6512 33.5554 61.0067 33.5938 61.6685C33.6321 62.3304 33.7551 62.9847 33.9599 63.6157C33.9599 63.6157 31.0425 63.2025 30.7999 64.0364C30.5573 64.8703 29.4317 65.5945 29.4317 65.5945C31.7695 67.1156 34.2516 64.9352 34.2516 64.9352Z" fill="#FE7D1E"/>
<path opacity="0.6" d="M51.4808 57.508C52.5217 59.7494 55.9631 58.8661 55.9631 58.8661C55.45 58.8915 55.3369 58.6631 54.6291 57.5354C53.9214 56.4077 52.4625 55.9994 52.4625 55.9994C55.702 51.2495 50.3283 49.2853 50.3283 49.2853C49.6717 50.0173 49.2724 50.9432 49.1914 51.9215C49.162 52.2766 49.3553 52.7102 49.2213 52.9371C49.2334 53.0315 49.2487 53.1249 49.2658 53.2171C48.9587 53.4835 49.7735 54.3094 49.7258 54.6776C49.9909 55.2816 50.3323 55.8491 50.7415 56.3664C50.7415 56.3664 47.8657 57.0003 47.9301 57.8726C47.9944 58.745 47.193 59.8126 47.193 59.8126C49.917 60.4176 51.4808 57.508 51.4808 57.508Z" fill="#FE7D1E"/>
<path opacity="0.25" d="M6.85599 71.6384C6.90806 71.6384 6.95027 71.5961 6.95027 71.5438C6.95027 71.4916 6.90806 71.4492 6.85599 71.4492C6.80393 71.4492 6.76172 71.4916 6.76172 71.5438C6.76172 71.5961 6.80393 71.6384 6.85599 71.6384Z" fill="#F1F2F6"/>
<path opacity="0.25" d="M6.81009 72.3865C6.86216 72.3865 6.90437 72.3441 6.90437 72.2919C6.90437 72.2396 6.86216 72.1973 6.81009 72.1973C6.75803 72.1973 6.71582 72.2396 6.71582 72.2919C6.71582 72.3441 6.75803 72.3865 6.81009 72.3865Z" fill="#F1F2F6"/>
</svg>
