<svg width="96" height="96" viewBox="0 0 96 96" fill="none" xmlns="http://www.w3.org/2000/svg">
<g clip-path="url(#clip0_4555_112872)">
<path d="M95.0005 41.941H94.84V37.5458C94.84 37.2117 94.7742 36.8809 94.6464 36.5723C94.5185 36.2637 94.3312 35.9832 94.0949 35.747C93.8587 35.5108 93.5783 35.3234 93.2697 35.1956C92.961 35.0677 92.6302 35.002 92.2962 35.002H82.9843C82.6502 35.002 82.3194 35.0677 82.0108 35.1956C81.7022 35.3234 81.4217 35.5108 81.1855 35.747C80.9493 35.9832 80.7619 36.2637 80.6341 36.5723C80.5062 36.8809 80.4404 37.2117 80.4404 37.5458V61.6584C80.4404 61.9924 80.5062 62.3232 80.6341 62.6319C80.7619 62.9405 80.9493 63.2209 81.1855 63.4572C81.4217 63.6934 81.7022 63.8808 82.0108 64.0086C82.3194 64.1364 82.6502 64.2022 82.9843 64.2022H92.2962C92.6302 64.2022 92.961 64.1364 93.2697 64.0086C93.5783 63.8808 93.8587 63.6934 94.0949 63.4572C94.3312 63.2209 94.5185 62.9405 94.6464 62.6319C94.7742 62.3232 94.84 61.9924 94.84 61.6584V45.0696H95.0005V41.941Z" fill="#4C4C62"/>
<path d="M94.2984 37.696V61.7735C94.2983 62.2774 94.0982 62.7607 93.7418 63.117C93.3855 63.4733 92.9023 63.6735 92.3984 63.6735H83.0417C82.7922 63.6735 82.5452 63.6243 82.3148 63.5288C82.0843 63.4333 81.8749 63.2933 81.6986 63.1169C81.5222 62.9405 81.3823 62.731 81.2869 62.5005C81.1915 62.27 81.1425 62.023 81.1426 61.7735V37.696C81.1426 37.1923 81.3427 36.7093 81.6988 36.3531C82.055 35.997 82.538 35.7969 83.0417 35.7969H84.1769C84.1212 35.9339 84.1 36.0825 84.1152 36.2297C84.1304 36.3768 84.1815 36.5179 84.264 36.6407C84.3465 36.7635 84.4579 36.8641 84.5884 36.9337C84.7189 37.0033 84.8646 37.0398 85.0125 37.0399H90.3473C90.4954 37.0402 90.6412 37.004 90.772 36.9345C90.9027 36.865 91.0144 36.7644 91.097 36.6415C91.1796 36.5186 91.2306 36.3772 91.2456 36.2299C91.2606 36.0826 91.2391 35.9339 91.1829 35.7969H92.3984C92.9021 35.7969 93.3853 35.9969 93.7416 36.353C94.0979 36.7092 94.2982 37.1922 94.2984 37.696Z" fill="#18181C"/>
<path d="M92.5262 48.123H81.6494V51.0581H92.5262V48.123Z" fill="#6C63FF"/>
<path d="M92.9585 50.5393H82.4269C82.3583 50.5392 82.2925 50.5119 82.2439 50.4634C82.1954 50.4148 82.168 50.349 82.168 50.2803V47.6906C82.168 47.622 82.1954 47.5561 82.2439 47.5076C82.2925 47.459 82.3583 47.4317 82.4269 47.4316H92.9585C93.0271 47.4317 93.093 47.459 93.1415 47.5076C93.1901 47.5561 93.2174 47.622 93.2174 47.6906V50.2803C93.2174 50.349 93.1901 50.4148 93.1415 50.4634C93.093 50.5119 93.0271 50.5392 92.9585 50.5393ZM82.4269 47.6043C82.4041 47.6043 82.3821 47.6134 82.3659 47.6296C82.3497 47.6458 82.3406 47.6677 82.3406 47.6906V50.2803C82.3406 50.3032 82.3497 50.3252 82.3659 50.3414C82.3821 50.3575 82.4041 50.3666 82.4269 50.3667H92.9585C92.9814 50.3666 93.0033 50.3575 93.0195 50.3414C93.0357 50.3252 93.0448 50.3032 93.0448 50.2803V47.6906C93.0448 47.6677 93.0357 47.6458 93.0195 47.6296C93.0033 47.6134 92.9814 47.6043 92.9585 47.6043H82.4269Z" fill="#4C4C62"/>
<path d="M84.2396 49.7617H82.8584V49.9344H84.2396V49.7617Z" fill="#4C4C62"/>
<path d="M86.139 49.7617H84.7578V49.9344H86.139V49.7617Z" fill="#4C4C62"/>
<path d="M88.0374 49.7617H86.6562V49.9344H88.0374V49.7617Z" fill="#4C4C62"/>
<path d="M89.9368 49.7617H88.5557V49.9344H89.9368V49.7617Z" fill="#4C4C62"/>
<path d="M91.8363 49.7617H90.4551V49.9344H91.8363V49.7617Z" fill="#4C4C62"/>
<path opacity="0.1" d="M94.2984 59.3235V61.7716C94.2983 62.2755 94.0982 62.7588 93.7418 63.1151C93.3855 63.4714 92.9023 63.6716 92.3984 63.6716H83.0417C82.7922 63.6716 82.5452 63.6224 82.3148 63.5269C82.0843 63.4314 81.8749 63.2914 81.6986 63.115C81.5222 62.9386 81.3823 62.7291 81.2869 62.4986C81.1915 62.2681 81.1425 62.0211 81.1426 61.7716V50.5098L94.2984 59.3235Z" fill="black"/>
<path d="M49.4514 57.0996H8.62012V77.1268H49.4514V57.0996Z" fill="#18181C"/>
<path opacity="0.1" d="M39.0709 77.1268H8.79277C8.74702 77.1267 8.70318 77.1084 8.67083 77.0761C8.63848 77.0437 8.62025 76.9999 8.62012 76.9541V57.2723C8.62025 57.2265 8.63848 57.1827 8.67083 57.1503C8.70318 57.118 8.74702 57.0997 8.79277 57.0996H9.17604L39.0709 77.1268Z" fill="black"/>
<path d="M90.7999 59.7773H27.5244V59.95H90.7999V59.7773Z" fill="#4C4C62"/>
<path d="M47.5291 17.7887H29.4451V17.416H21.2451V17.7887H3.08653C2.92589 17.7887 2.76682 17.8204 2.61841 17.8819C2.47 17.9433 2.33515 18.0334 2.22156 18.147C2.10797 18.2606 2.01787 18.3955 1.95639 18.5439C1.89492 18.6923 1.86328 18.8513 1.86328 19.012V43.7746C1.86328 44.099 1.99216 44.4101 2.22156 44.6395C2.45096 44.8689 2.7621 44.9978 3.08653 44.9978H47.5291C47.8535 44.9978 48.1646 44.8689 48.394 44.6395C48.6235 44.4101 48.7523 44.099 48.7523 43.7746V19.012C48.7523 18.8513 48.7207 18.6923 48.6592 18.5439C48.5977 18.3955 48.5076 18.2606 48.394 18.147C48.2805 18.0334 48.1456 17.9433 47.9972 17.8819C47.8488 17.8204 47.6897 17.7887 47.5291 17.7887V17.7887Z" fill="#4C4C62"/>
<path d="M47.1122 19.9512H3.50391V44.5518H47.1122V19.9512Z" fill="#18181C"/>
<path d="M25.2705 19.2793C25.5175 19.2793 25.7178 19.0791 25.7178 18.832C25.7178 18.585 25.5175 18.3848 25.2705 18.3848C25.0235 18.3848 24.8232 18.585 24.8232 18.832C24.8232 19.0791 25.0235 19.2793 25.2705 19.2793Z" fill="#6C63FF"/>
<path d="M16.4755 29.132H15.4396C15.371 29.1319 15.3051 29.1046 15.2566 29.056C15.208 29.0075 15.1807 28.9416 15.1807 28.873V27.8371C15.1807 27.7684 15.208 27.7026 15.2566 27.6541C15.3051 27.6055 15.371 27.5782 15.4396 27.5781H16.4755C16.5442 27.5782 16.61 27.6055 16.6586 27.6541C16.7071 27.7026 16.7344 27.7684 16.7345 27.8371V28.873C16.7344 28.9416 16.7071 29.0075 16.6586 29.056C16.61 29.1046 16.5442 29.1319 16.4755 29.132V29.132ZM15.4396 27.7508C15.4168 27.7508 15.3948 27.7599 15.3786 27.7761C15.3624 27.7923 15.3533 27.8142 15.3533 27.8371V28.873C15.3533 28.8959 15.3624 28.9178 15.3786 28.934C15.3948 28.9502 15.4168 28.9593 15.4396 28.9593H16.4755C16.4984 28.9593 16.5204 28.9502 16.5365 28.934C16.5527 28.9178 16.5618 28.8959 16.5618 28.873V27.8371C16.5618 27.8142 16.5527 27.7923 16.5365 27.7761C16.5204 27.7599 16.4984 27.7508 16.4755 27.7508H15.4396Z" fill="#4C4C62"/>
<path d="M34.9485 28.959H15.2666V29.1316H34.9485V28.959Z" fill="#4C4C62"/>
<path d="M34.4306 33.707H29.8555V35.0882H34.4306V33.707Z" fill="#6C63FF"/>
<path d="M34.776 34.7413H30.5461C30.4774 34.7413 30.4116 34.714 30.363 34.6654C30.3145 34.6168 30.2872 34.551 30.2871 34.4824V33.4465C30.2872 33.3778 30.3145 33.312 30.363 33.2634C30.4116 33.2149 30.4774 33.1876 30.5461 33.1875H34.776C34.8446 33.1876 34.9104 33.2149 34.959 33.2634C35.0076 33.312 35.0349 33.3778 35.0349 33.4465V34.4824C35.0349 34.551 35.0076 34.6168 34.959 34.6654C34.9104 34.714 34.8446 34.7413 34.776 34.7413V34.7413ZM30.5461 33.3601C30.5232 33.3602 30.5013 33.3693 30.4851 33.3855C30.4689 33.4016 30.4598 33.4236 30.4598 33.4465V34.4824C30.4598 34.5052 30.4689 34.5272 30.4851 34.5434C30.5013 34.5596 30.5232 34.5687 30.5461 34.5687H34.776C34.7988 34.5687 34.8208 34.5596 34.837 34.5434C34.8532 34.5272 34.8623 34.5052 34.8623 34.4824V33.4465C34.8623 33.4236 34.8532 33.4016 34.837 33.3855C34.8208 33.3693 34.7988 33.3602 34.776 33.3601H30.5461Z" fill="#4C4C62"/>
<path d="M69.3912 35.2598H60.7588V41.3025H69.3912V35.2598Z" fill="#6C63FF"/>
<path d="M70.2545 40.8294H61.9674C61.8758 40.8293 61.788 40.7929 61.7233 40.7281C61.6586 40.6634 61.6222 40.5756 61.6221 40.4841V34.7867C61.6222 34.6952 61.6586 34.6074 61.7233 34.5426C61.788 34.4779 61.8758 34.4415 61.9674 34.4414H70.2545C70.346 34.4415 70.4338 34.4779 70.4985 34.5426C70.5633 34.6074 70.5997 34.6952 70.5998 34.7867V40.4841C70.5997 40.5756 70.5633 40.6634 70.4985 40.7281C70.4338 40.7929 70.346 40.8293 70.2545 40.8294V40.8294ZM61.9674 34.7867V40.4841H70.2547L70.2545 34.7867H61.9674Z" fill="#4C4C62"/>
<path d="M69.306 34.569H68.9607C68.9607 33.8135 68.6605 33.0889 68.1263 32.5547C67.5921 32.0204 66.8675 31.7203 66.112 31.7203C65.3564 31.7203 64.6319 32.0204 64.0976 32.5547C63.5634 33.0889 63.2633 33.8135 63.2633 34.569H62.918C62.918 33.7219 63.2545 32.9095 63.8535 32.3105C64.4525 31.7115 65.2649 31.375 66.112 31.375C66.9591 31.375 67.7715 31.7115 68.3705 32.3105C68.9694 32.9095 69.306 33.7219 69.306 34.569V34.569Z" fill="#4C4C62"/>
<path d="M66.9746 36.9443C66.9747 36.794 66.9357 36.6462 66.8612 36.5157C66.7867 36.3851 66.6794 36.2762 66.55 36.1998C66.4205 36.1235 66.2733 36.0822 66.123 36.0802C65.9727 36.0781 65.8245 36.1154 65.693 36.1882C65.5615 36.2611 65.4513 36.367 65.3733 36.4955C65.2953 36.624 65.2522 36.7706 65.2483 36.9209C65.2444 37.0712 65.2798 37.2199 65.351 37.3523C65.4222 37.4846 65.5268 37.5961 65.6543 37.6757V38.6023C65.6543 38.6623 65.6661 38.7217 65.6891 38.7772C65.7121 38.8326 65.7457 38.883 65.7882 38.9254C65.8306 38.9679 65.881 39.0015 65.9364 39.0245C65.9919 39.0474 66.0513 39.0593 66.1113 39.0593V39.0593C66.2325 39.0593 66.3488 39.0111 66.4345 38.9254C66.5202 38.8397 66.5683 38.7235 66.5683 38.6023V37.6757C66.6926 37.5983 66.7951 37.4906 66.8662 37.3626C66.9372 37.2347 66.9745 37.0907 66.9746 36.9443V36.9443Z" fill="#4C4C62"/>
<path d="M25.9281 65.9922H24.5469V66.1648H25.9281V65.9922Z" fill="#4C4C62"/>
<path d="M27.8265 65.9922H26.4453V66.1648H27.8265V65.9922Z" fill="#4C4C62"/>
<path d="M29.7259 65.9922H28.3447V66.1648H29.7259V65.9922Z" fill="#4C4C62"/>
<path d="M31.6243 65.9922H30.2432V66.1648H31.6243V65.9922Z" fill="#4C4C62"/>
<path d="M33.5238 65.9922H32.1426V66.1648H33.5238V65.9922Z" fill="#4C4C62"/>
<path d="M51.2639 75.6596H10.7779C10.6864 75.6595 10.5986 75.6231 10.5339 75.5584C10.4691 75.4936 10.4327 75.4058 10.4326 75.3143V55.6324C10.4327 55.5409 10.4691 55.4531 10.5339 55.3884C10.5986 55.3236 10.6864 55.2872 10.7779 55.2871H51.2639C51.3554 55.2872 51.4432 55.3236 51.5079 55.3883C51.5727 55.4531 51.6091 55.5409 51.6092 55.6324V75.3143C51.6091 75.4058 51.5727 75.4936 51.5079 75.5584C51.4432 75.6231 51.3554 75.6595 51.2639 75.6596V75.6596ZM10.7779 55.6324V75.3143H51.2641L51.2639 55.6324H10.7779Z" fill="#4C4C62"/>
<path d="M12.5912 58.5671C12.8772 58.5671 13.1091 58.3352 13.1091 58.0492C13.1091 57.7631 12.8772 57.5312 12.5912 57.5312C12.3051 57.5312 12.0732 57.7631 12.0732 58.0492C12.0732 58.3352 12.3051 58.5671 12.5912 58.5671Z" fill="#4C4C62"/>
<path d="M14.4027 58.5671C14.6888 58.5671 14.9207 58.3352 14.9207 58.0492C14.9207 57.7631 14.6888 57.5312 14.4027 57.5312C14.1167 57.5312 13.8848 57.7631 13.8848 58.0492C13.8848 58.3352 14.1167 58.5671 14.4027 58.5671Z" fill="#4C4C62"/>
<path d="M16.2162 58.5671C16.5022 58.5671 16.7341 58.3352 16.7341 58.0492C16.7341 57.7631 16.5022 57.5312 16.2162 57.5312C15.9301 57.5312 15.6982 57.7631 15.6982 58.0492C15.6982 58.3352 15.9301 58.5671 16.2162 58.5671Z" fill="#4C4C62"/>
<path d="M34.8619 67.201H23.2082C23.1395 67.2009 23.0737 67.1736 23.0252 67.1251C22.9766 67.0765 22.9493 67.0107 22.9492 66.942V64.007C22.9493 63.9384 22.9766 63.8725 23.0252 63.824C23.0737 63.7754 23.1395 63.7481 23.2082 63.748H34.8619C34.9306 63.7481 34.9964 63.7754 35.045 63.824C35.0935 63.8725 35.1208 63.9384 35.1209 64.007V66.942C35.1208 67.0107 35.0935 67.0765 35.045 67.1251C34.9964 67.1736 34.9306 67.2009 34.8619 67.201V67.201ZM23.2082 63.9207C23.1853 63.9207 23.1634 63.9298 23.1472 63.946C23.131 63.9622 23.1219 63.9841 23.1219 64.007V66.942C23.1219 66.9649 23.131 66.9869 23.1472 67.0031C23.1634 67.0192 23.1853 67.0283 23.2082 67.0284H34.8619C34.8848 67.0283 34.9068 67.0192 34.923 67.0031C34.9391 66.9869 34.9482 66.9649 34.9483 66.942V64.007C34.9482 63.9841 34.9391 63.9622 34.923 63.946C34.9068 63.9298 34.8848 63.9207 34.8619 63.9207H23.2082Z" fill="#4C4C62"/>
<path d="M37.797 67.2874C38.6552 67.2874 39.3508 66.5917 39.3508 65.7335C39.3508 64.8754 38.6552 64.1797 37.797 64.1797C36.9388 64.1797 36.2432 64.8754 36.2432 65.7335C36.2432 66.5917 36.9388 67.2874 37.797 67.2874Z" fill="#6C63FF"/>
<path d="M38.315 67.1143C37.9906 67.1143 37.6735 67.0181 37.4037 66.8379C37.134 66.6577 36.9238 66.4015 36.7997 66.1018C36.6755 65.8021 36.643 65.4723 36.7063 65.1542C36.7696 64.836 36.9258 64.5438 37.1552 64.3144C37.3846 64.085 37.6768 63.9288 37.995 63.8655C38.3131 63.8022 38.6429 63.8347 38.9426 63.9588C39.2423 64.083 39.4985 64.2932 39.6787 64.5629C39.8589 64.8326 39.9551 65.1497 39.9551 65.4741C39.9546 65.909 39.7817 66.3259 39.4742 66.6334C39.1667 66.9408 38.7498 67.1138 38.315 67.1143V67.1143ZM38.315 64.0066C38.0247 64.0066 37.741 64.0927 37.4997 64.254C37.2583 64.4152 37.0702 64.6444 36.9592 64.9125C36.8481 65.1807 36.819 65.4758 36.8757 65.7604C36.9323 66.0451 37.072 66.3066 37.2773 66.5118C37.4825 66.7171 37.744 66.8568 38.0287 66.9135C38.3133 66.9701 38.6084 66.941 38.8766 66.8299C39.1447 66.7189 39.3739 66.5308 39.5352 66.2894C39.6964 66.0481 39.7825 65.7644 39.7825 65.4741C39.782 65.0851 39.6273 64.7121 39.3522 64.4369C39.0771 64.1618 38.704 64.0071 38.315 64.0066V64.0066Z" fill="#4C4C62"/>
<path d="M38.3386 66.0861L37.5029 65.2503L37.7471 65.0062L38.2925 65.5516L39.8146 63.3887L40.097 63.5875L38.3386 66.0861Z" fill="#4C4C62"/>
<path opacity="0.1" d="M37.4439 44.5514H3.50391V21.8145L37.4439 44.5514Z" fill="black"/>
<path d="M49.9771 44.1038H45.7212V43.7971C45.7212 43.7891 45.7196 43.7812 45.7165 43.7739C45.7135 43.7665 45.709 43.7598 45.7034 43.7541C45.6977 43.7485 45.691 43.744 45.6836 43.741C45.6763 43.7379 45.6684 43.7363 45.6604 43.7363H44.2012C44.1932 43.7363 44.1853 43.7379 44.1779 43.741C44.1705 43.744 44.1638 43.7485 44.1582 43.7541C44.1526 43.7598 44.1481 43.7665 44.145 43.7739C44.142 43.7812 44.1404 43.7891 44.1404 43.7971V44.1038H43.2284V43.7971C43.2284 43.7891 43.2268 43.7812 43.2238 43.7739C43.2207 43.7665 43.2162 43.7598 43.2106 43.7541C43.2049 43.7485 43.1982 43.744 43.1909 43.741C43.1835 43.7379 43.1756 43.7363 43.1676 43.7363H41.7084C41.7004 43.7363 41.6925 43.7379 41.6851 43.741C41.6778 43.744 41.6711 43.7485 41.6654 43.7541C41.6598 43.7598 41.6553 43.7665 41.6522 43.7739C41.6492 43.7812 41.6476 43.7891 41.6476 43.7971V44.1038H40.7356V43.7971C40.7356 43.7891 40.734 43.7812 40.731 43.7739C40.7279 43.7665 40.7235 43.7598 40.7178 43.7541C40.7122 43.7485 40.7055 43.744 40.6981 43.741C40.6907 43.7379 40.6828 43.7363 40.6748 43.7363H39.2156C39.2077 43.7363 39.1997 43.7379 39.1924 43.741C39.185 43.744 39.1783 43.7485 39.1726 43.7541C39.167 43.7598 39.1625 43.7665 39.1595 43.7739C39.1564 43.7812 39.1548 43.7891 39.1548 43.7971V44.1038H38.2428V43.7971C38.2428 43.7891 38.2413 43.7812 38.2382 43.7739C38.2352 43.7665 38.2307 43.7598 38.225 43.7541C38.2194 43.7485 38.2127 43.744 38.2053 43.741C38.1979 43.7379 38.19 43.7363 38.182 43.7363H36.7229C36.7149 43.7363 36.707 43.7379 36.6996 43.741C36.6922 43.744 36.6855 43.7485 36.6799 43.7541C36.6742 43.7598 36.6697 43.7665 36.6667 43.7739C36.6636 43.7812 36.6621 43.7891 36.6621 43.7971V44.1038H35.7501V43.7971C35.7501 43.7891 35.7485 43.7812 35.7454 43.7739C35.7424 43.7665 35.7379 43.7598 35.7323 43.7541C35.7266 43.7485 35.7199 43.744 35.7125 43.741C35.7052 43.7379 35.6973 43.7363 35.6893 43.7363H34.2301C34.2221 43.7363 34.2142 43.7379 34.2068 43.741C34.1994 43.744 34.1927 43.7485 34.1871 43.7541C34.1814 43.7598 34.177 43.7665 34.1739 43.7739C34.1709 43.7812 34.1693 43.7891 34.1693 43.7971V44.1038H33.2573V43.7971C33.2573 43.7891 33.2557 43.7812 33.2527 43.7739C33.2496 43.7665 33.2451 43.7598 33.2395 43.7541C33.2338 43.7485 33.2271 43.744 33.2198 43.741C33.2124 43.7379 33.2045 43.7363 33.1965 43.7363H31.7373C31.7293 43.7363 31.7214 43.7379 31.714 43.741C31.7067 43.744 31.7 43.7485 31.6943 43.7541C31.6887 43.7598 31.6842 43.7665 31.6811 43.7739C31.6781 43.7812 31.6765 43.7891 31.6765 43.7971V44.1038H30.7645V43.7971C30.7645 43.7891 30.7629 43.7812 30.7599 43.7739C30.7568 43.7665 30.7524 43.7598 30.7467 43.7541C30.7411 43.7485 30.7344 43.744 30.727 43.741C30.7196 43.7379 30.7117 43.7363 30.7037 43.7363H19.2734C19.2654 43.7363 19.2575 43.7379 19.2502 43.741C19.2428 43.744 19.2361 43.7485 19.2304 43.7541C19.2248 43.7598 19.2203 43.7665 19.2172 43.7739C19.2142 43.7812 19.2126 43.7891 19.2126 43.7971V44.1038H18.3006V43.7971C18.3006 43.7891 18.2991 43.7812 18.296 43.7739C18.2929 43.7665 18.2885 43.7598 18.2828 43.7541C18.2772 43.7485 18.2705 43.744 18.2631 43.741C18.2557 43.7379 18.2478 43.7363 18.2398 43.7363H16.7806C16.7727 43.7363 16.7648 43.7379 16.7574 43.741C16.75 43.744 16.7433 43.7485 16.7377 43.7541C16.732 43.7598 16.7275 43.7665 16.7245 43.7739C16.7214 43.7812 16.7198 43.7891 16.7198 43.7971V44.1038H15.8079V43.7971C15.8079 43.7891 15.8063 43.7812 15.8032 43.7739C15.8002 43.7665 15.7957 43.7598 15.79 43.7541C15.7844 43.7485 15.7777 43.744 15.7703 43.741C15.7629 43.7379 15.755 43.7363 15.7471 43.7363H14.2879C14.2799 43.7363 14.272 43.7379 14.2646 43.741C14.2572 43.744 14.2505 43.7485 14.2449 43.7541C14.2392 43.7598 14.2348 43.7665 14.2317 43.7739C14.2286 43.7812 14.2271 43.7891 14.2271 43.7971V44.1038H13.3151V43.7971C13.3151 43.7891 13.3135 43.7812 13.3104 43.7739C13.3074 43.7665 13.3029 43.7598 13.2973 43.7541C13.2916 43.7485 13.2849 43.744 13.2775 43.741C13.2702 43.7379 13.2623 43.7363 13.2543 43.7363H11.7951C11.7871 43.7363 11.7792 43.7379 11.7718 43.741C11.7644 43.744 11.7577 43.7485 11.7521 43.7541C11.7465 43.7598 11.742 43.7665 11.7389 43.7739C11.7359 43.7812 11.7343 43.7891 11.7343 43.7971V44.1038H10.8223V43.7971C10.8223 43.7891 10.8207 43.7812 10.8177 43.7739C10.8146 43.7665 10.8101 43.7598 10.8045 43.7541C10.7988 43.7485 10.7921 43.744 10.7848 43.741C10.7774 43.7379 10.7695 43.7363 10.7615 43.7363H9.30231C9.29433 43.7363 9.28642 43.7379 9.27904 43.741C9.27167 43.744 9.26496 43.7485 9.25932 43.7541C9.25367 43.7598 9.24919 43.7665 9.24614 43.7739C9.24308 43.7812 9.24151 43.7891 9.24151 43.7971V44.1038H8.32953V43.7971C8.32953 43.7891 8.32795 43.7812 8.3249 43.7739C8.32184 43.7665 8.31736 43.7598 8.31172 43.7541C8.30607 43.7485 8.29937 43.744 8.29199 43.741C8.28462 43.7379 8.27671 43.7363 8.26873 43.7363H6.80954C6.80155 43.7363 6.79365 43.7379 6.78627 43.741C6.77889 43.744 6.77219 43.7485 6.76654 43.7541C6.7609 43.7598 6.75642 43.7665 6.75336 43.7739C6.75031 43.7812 6.74874 43.7891 6.74874 43.7971V44.1038H5.83674V43.7971C5.83674 43.7891 5.83517 43.7812 5.83212 43.7739C5.82906 43.7665 5.82458 43.7598 5.81894 43.7541C5.81329 43.7485 5.80659 43.744 5.79921 43.741C5.79184 43.7379 5.78393 43.7363 5.77595 43.7363H4.31676C4.30878 43.7363 4.30087 43.7379 4.29349 43.741C4.28612 43.744 4.27941 43.7485 4.27377 43.7541C4.26812 43.7598 4.26364 43.7665 4.26059 43.7739C4.25753 43.7812 4.25596 43.7891 4.25596 43.7971V44.1038H1.45919C1.26756 44.1038 1.07782 44.1415 0.900779 44.2148C0.723743 44.2882 0.562883 44.3957 0.427385 44.5312C0.291887 44.6667 0.184405 44.8275 0.111074 45.0045C0.0377427 45.1816 -1.13362e-07 45.3713 0 45.563V46.2228C9.15782e-07 46.6098 0.153737 46.9809 0.427387 47.2546C0.701037 47.5282 1.07219 47.6819 1.45919 47.6819H49.9771C50.1688 47.6819 50.3585 47.6442 50.5355 47.5709C50.7126 47.4975 50.8734 47.3901 51.0089 47.2546C51.1444 47.1191 51.2519 46.9582 51.3252 46.7812C51.3986 46.6041 51.4363 46.4144 51.4363 46.2228V45.563C51.4363 45.3713 51.3986 45.1816 51.3252 45.0045C51.2519 44.8275 51.1444 44.6666 51.0089 44.5312C50.8734 44.3957 50.7126 44.2882 50.5355 44.2148C50.3585 44.1415 50.1688 44.1038 49.9771 44.1038V44.1038Z" fill="#4C4C62"/>
<path d="M36.6745 36.2089H13.8849C13.8163 36.2088 13.7505 36.1815 13.7019 36.133C13.6534 36.0844 13.6261 36.0186 13.626 35.9499V26.4543C13.6261 26.3856 13.6534 26.3198 13.7019 26.2712C13.7505 26.2227 13.8163 26.1954 13.8849 26.1953H36.6745C36.7432 26.1954 36.809 26.2227 36.8575 26.2712C36.9061 26.3198 36.9334 26.3856 36.9335 26.4543V35.9499C36.9334 36.0186 36.9061 36.0844 36.8575 36.133C36.809 36.1815 36.7432 36.2088 36.6745 36.2089V36.2089ZM13.8849 26.368C13.8621 26.368 13.8401 26.3771 13.8239 26.3933C13.8078 26.4095 13.7987 26.4314 13.7986 26.4543V35.9499C13.7987 35.9728 13.8078 35.9948 13.8239 36.0109C13.8401 36.0271 13.8621 36.0362 13.8849 36.0363H36.6745C36.6974 36.0362 36.7193 36.0271 36.7355 36.0109C36.7517 35.9948 36.7608 35.9728 36.7608 35.9499V26.4543C36.7608 26.4314 36.7517 26.4095 36.7355 26.3933C36.7193 26.3771 36.6974 26.368 36.6745 26.368H13.8849Z" fill="#4C4C62"/>
<path d="M16.4755 31.7199H15.4396C15.371 31.7198 15.3051 31.6925 15.2566 31.6439C15.208 31.5954 15.1807 31.5295 15.1807 31.4609V30.425C15.1807 30.3563 15.208 30.2905 15.2566 30.2419C15.3051 30.1934 15.371 30.1661 15.4396 30.166H16.4755C16.5442 30.1661 16.61 30.1934 16.6586 30.2419C16.7071 30.2905 16.7344 30.3563 16.7345 30.425V31.4609C16.7344 31.5295 16.7071 31.5954 16.6586 31.6439C16.61 31.6925 16.5442 31.7198 16.4755 31.7199V31.7199ZM15.4396 30.3387C15.4168 30.3387 15.3948 30.3478 15.3786 30.364C15.3624 30.3802 15.3533 30.4021 15.3533 30.425V31.4609C15.3533 31.4838 15.3624 31.5057 15.3786 31.5219C15.3948 31.5381 15.4168 31.5472 15.4396 31.5472H16.4755C16.4984 31.5472 16.5204 31.5381 16.5365 31.5219C16.5527 31.5057 16.5618 31.4838 16.5618 31.4609V30.425C16.5618 30.4021 16.5527 30.3802 16.5365 30.364C16.5204 30.3478 16.4984 30.3387 16.4755 30.3387H15.4396Z" fill="#4C4C62"/>
<path d="M34.9485 31.5488H15.2666V31.7215H34.9485V31.5488Z" fill="#4C4C62"/>
<path d="M86.1388 40.6992H22.8633V40.8719H86.1388V40.6992Z" fill="#4C4C62"/>
<path d="M22.8628 41.9073C23.5303 41.9073 24.0714 41.3662 24.0714 40.6988C24.0714 40.0313 23.5303 39.4902 22.8628 39.4902C22.1954 39.4902 21.6543 40.0313 21.6543 40.6988C21.6543 41.3662 22.1954 41.9073 22.8628 41.9073Z" fill="#4C4C62"/>
<path d="M86.138 41.821C86.6625 41.821 87.0876 41.3959 87.0876 40.8714C87.0876 40.347 86.6625 39.9219 86.138 39.9219C85.6136 39.9219 85.1885 40.347 85.1885 40.8714C85.1885 41.3959 85.6136 41.821 86.138 41.821Z" fill="#4C4C62"/>
<path d="M90.8002 60.8991C91.3246 60.8991 91.7497 60.474 91.7497 59.9496C91.7497 59.4251 91.3246 59 90.8002 59C90.2757 59 89.8506 59.4251 89.8506 59.9496C89.8506 60.474 90.2757 60.8991 90.8002 60.8991Z" fill="#4C4C62"/>
<path d="M27.7835 60.8991C28.308 60.8991 28.7331 60.474 28.7331 59.9496C28.7331 59.4251 28.308 59 27.7835 59C27.2591 59 26.834 59.4251 26.834 59.9496C26.834 60.474 27.2591 60.8991 27.7835 60.8991Z" fill="#4C4C62"/>
</g>
<defs>
<clipPath id="clip0_4555_112872">
<rect width="94.9997" height="59.711" fill="white" transform="translate(0 17.416)"/>
</clipPath>
</defs>
</svg>
