<svg width="121" height="40" viewBox="0 0 121 40" fill="none" xmlns="http://www.w3.org/2000/svg">
    <path d="M24.3925 24.0505L13.9768 29.9734C13.0301 30.5118 11.9984 30.2792 11.2819 29.6249C10.5632 28.9685 10.2087 27.9278 10.6094 26.8987C12.6162 21.7444 13.848 17.0255 14.7077 11.2119C15.036 8.9921 18.0209 8.41512 19.0987 10.2981L25.2209 20.9951C25.8367 22.071 25.4654 23.4403 24.3925 24.0505Z"
          stroke="#F1F2F6" stroke-width="0.911644"/>
    <path d="M8.93195 20.6905L15.0018 10.307C15.5536 9.36305 16.5621 9.04343 17.5074 9.24802C18.4557 9.45326 19.2798 10.175 19.4446 11.2679C20.2696 16.7413 21.5487 21.4466 23.694 26.9114C24.5133 28.9983 22.2167 31.0048 20.348 29.9192L9.73367 23.7532C8.66587 23.1329 8.30657 21.7603 8.93195 20.6905Z"
          stroke="#F1F2F6" stroke-width="0.911644"/>
    <path fill-rule="evenodd" clip-rule="evenodd"
          d="M56.2859 11.1055H53.9746V22.803C53.9746 23.0804 54.0263 23.3444 54.1313 23.5927L54.1325 23.5956L54.1337 23.5984C54.2425 23.8395 54.3866 24.0532 54.5666 24.2374L54.57 24.2409L54.5736 24.2444C54.7605 24.4217 54.9774 24.5636 55.2222 24.6708L55.225 24.6721L55.2279 24.6733C55.479 24.7764 55.7439 24.8276 56.0202 24.8276H61.0059C61.2874 24.8276 61.5554 24.7767 61.8074 24.6733L61.8102 24.6721L61.8131 24.6708C62.0587 24.5633 62.274 24.4203 62.4561 24.2409C62.6439 24.0558 62.7899 23.84 62.8937 23.5955C63.0054 23.3468 63.0606 23.0817 63.0606 22.803V16.7988C63.0606 16.5202 63.0054 16.2551 62.8937 16.0063C62.7902 15.7626 62.6444 15.5495 62.4561 15.3699C62.2739 15.1844 62.0576 15.0407 61.8102 14.9387C61.5577 14.8286 61.2887 14.7742 61.0059 14.7742H57.8093C57.5341 14.7742 57.2723 14.8251 57.0265 14.9284C56.7842 15.0243 56.5685 15.1616 56.381 15.3395C56.3481 15.3706 56.3164 15.4028 56.2859 15.4361V11.1055ZM62.4561 15.3699L62.4596 15.3734L62.4525 15.3664L62.4561 15.3699ZM101.502 11.1055H98.9999V13.4634H101.502V11.1055ZM113.044 11.1055H110.724V14.7742H106.004C105.726 14.7742 105.46 14.829 105.209 14.9387C104.961 15.041 104.742 15.1848 104.554 15.3699C104.372 15.5493 104.227 15.7615 104.117 16.0035L104.116 16.0063L104.115 16.0091C104.01 16.2574 103.958 16.5215 103.958 16.7988V22.803C103.958 23.0804 104.01 23.3444 104.115 23.5927L104.116 23.5956L104.117 23.5984C104.226 23.8395 104.37 24.0532 104.55 24.2374L104.554 24.2409L104.557 24.2444C104.744 24.4217 104.961 24.5636 105.206 24.6708L105.209 24.6721L105.212 24.6733C105.463 24.7764 105.728 24.8276 106.004 24.8276H107.38V24.8281H111.897V24.8276H113.044V11.1055ZM33.8799 14.7742C33.5971 14.7742 33.3281 14.8286 33.0756 14.9387C32.8275 15.041 32.6085 15.1848 32.4207 15.3699C32.2386 15.5493 32.0935 15.7615 31.9843 16.0035L31.9831 16.0063L31.9819 16.0091C31.8769 16.2574 31.8252 16.5215 31.8252 16.7988V18.83C31.8252 19.1074 31.8769 19.3715 31.9819 19.6197L31.9831 19.6226L31.9843 19.6254C32.0931 19.8665 32.2372 20.0803 32.4171 20.2644L32.4206 20.2679L32.4242 20.2714C32.6111 20.4487 32.828 20.5907 33.0727 20.6978L33.0756 20.6991L33.0785 20.7003C33.3304 20.8037 33.5984 20.8546 33.8799 20.8546H37.8552V22.5412H31.8252V24.8276H38.1209C38.4023 24.8276 38.6683 24.7767 38.9158 24.6722L38.919 24.6708C39.1638 24.5636 39.3806 24.4217 39.5675 24.2444L39.5693 24.2426L39.5711 24.2409C39.7589 24.0558 39.9049 23.84 40.0087 23.5956C40.1204 23.3468 40.1756 23.0817 40.1756 22.803V20.5928C40.1756 20.3142 40.1204 20.0491 40.0087 19.8003C39.9049 19.5558 39.7585 19.3421 39.5693 19.1622C39.3822 18.9783 39.1642 18.8352 38.9174 18.7333C38.6698 18.6224 38.4031 18.5682 38.1209 18.5682H34.1456V17.0606H39.8033V14.7742H33.8799ZM44.7526 14.7742H42.4413V22.803C42.4413 23.0804 42.493 23.3444 42.598 23.5927L42.5991 23.5956L42.6004 23.5984C42.7092 23.8395 42.8533 24.0532 43.0332 24.2374L43.0367 24.2409L43.0403 24.2444C43.2272 24.4217 43.4441 24.5636 43.6888 24.6708L43.6917 24.6721L43.6946 24.6733C43.9457 24.7764 44.2106 24.8276 44.4869 24.8276H45.7388V24.8281H50.2556V24.8276H51.5273V14.7742H49.2069V22.5412H44.7526V14.7742ZM67.3719 14.7742C67.0891 14.7742 66.8201 14.8286 66.5676 14.9387C66.3195 15.041 66.1005 15.1848 65.9127 15.3699C65.7306 15.5493 65.5855 15.7615 65.4763 16.0035L65.4751 16.0063L65.4739 16.0091C65.3689 16.2574 65.3172 16.5215 65.3172 16.7988V18.83C65.3172 19.1074 65.3689 19.3715 65.4739 19.6197L65.4751 19.6226L65.4763 19.6254C65.5851 19.8665 65.7292 20.0803 65.9092 20.2644L65.9126 20.2679L65.9162 20.2714C66.1031 20.4487 66.32 20.5907 66.5648 20.6978L66.5676 20.6991L66.5705 20.7003C66.8225 20.8037 67.0905 20.8546 67.3719 20.8546H71.3472V22.5412H65.3172V24.8276H71.6129C71.8943 24.8276 72.1603 24.7767 72.4078 24.6722L72.411 24.6708C72.6558 24.5636 72.8727 24.4217 73.0595 24.2444L73.0613 24.2426L73.0631 24.2409C73.2509 24.0559 73.3969 23.8401 73.5007 23.5956C73.6124 23.3468 73.6676 23.0817 73.6676 22.803V20.5928C73.6676 20.3142 73.6124 20.049 73.5007 19.8002C73.3969 19.5558 73.2505 19.3421 73.0614 19.1622C72.8743 18.9783 72.6563 18.8352 72.4094 18.7333C72.1618 18.6224 71.8952 18.5682 71.6129 18.5682H67.6376V17.0606H73.2953V14.7742H67.3719ZM79.7475 24.8276H77.9789C77.7026 24.8276 77.4377 24.7764 77.1866 24.6733L77.1837 24.6721L77.1809 24.6708C76.9361 24.5636 76.7192 24.4217 76.5323 24.2444L76.5287 24.2409L76.5253 24.2374C76.3453 24.0532 76.2012 23.8395 76.0924 23.5984L76.0912 23.5956L76.09 23.5927C75.985 23.3444 75.9333 23.0804 75.9333 22.803V16.7988C75.9333 16.5215 75.985 16.2574 76.09 16.0091L76.0912 16.0063L76.0924 16.0035C76.2016 15.7615 76.3467 15.5493 76.5288 15.3699C76.7166 15.1848 76.9356 15.041 77.1837 14.9387C77.4353 14.829 77.7012 14.7742 77.9789 14.7742H82.9646C83.2474 14.7742 83.5164 14.8286 83.7689 14.9387C84.0163 15.0407 84.2326 15.1844 84.4149 15.3699C84.6031 15.5494 84.7489 15.7625 84.8524 16.0062C84.9641 16.255 85.0193 16.5201 85.0193 16.7988V28.6753H82.6989V24.8281H79.7475V24.8276ZM89.778 14.7742H87.4666V22.803C87.4666 23.0804 87.5183 23.3444 87.6233 23.5927L87.6245 23.5956L87.6257 23.5984C87.7345 23.8395 87.8786 24.0532 88.0586 24.2374L88.062 24.2409L88.0657 24.2444C88.2525 24.4217 88.4694 24.5636 88.7142 24.6708L88.717 24.6721L88.7199 24.6733C88.9711 24.7764 89.2359 24.8276 89.5123 24.8276H91.1703V24.8281H95.6871V24.8276H96.5526V14.7742H94.2322V22.5412H89.778V14.7742ZM101.411 14.7742H99.0908V24.8276H101.411V14.7742ZM56.2859 22.5412V17.0606H60.7402V22.5412H56.2859ZM78.2446 22.5412V17.0606H82.6989V22.5412H78.2446ZM106.27 22.5412V17.0606H110.724V22.5412H106.27Z"
          fill="#F1F2F6"/>
</svg>
