<svg width="97" height="96" viewBox="0 0 97 96" fill="none" xmlns="http://www.w3.org/2000/svg">
<g clip-path="url(#clip0_4555_112896)">
<g clip-path="url(#clip1_4555_112896)">
<path d="M55.6701 24.9026C57.4506 24.9026 58.8939 23.4527 58.8939 21.6642C58.8939 19.8757 57.4506 18.4258 55.6701 18.4258C53.8896 18.4258 52.4463 19.8757 52.4463 21.6642C52.4463 23.4527 53.8896 24.9026 55.6701 24.9026Z" fill="#29293A"/>
<path d="M80.6789 72.9628C85.4707 69.2965 87.7594 63.1356 86.3266 57.2585C86.291 57.1125 86.2534 56.9668 86.2139 56.8215C85.264 53.3329 82.9139 50.0173 79.4887 48.9026C76.6128 47.9667 73.4736 48.6864 70.4732 48.3142C64.5834 47.5836 60.0172 42.7965 56.8043 37.7843C53.5913 32.7722 51.1221 27.1618 46.8528 23.0211C39.8155 16.1957 28.336 14.7262 19.6109 19.169C10.8857 23.6118 5.32789 33.4685 5.56491 43.292C5.80195 53.1154 11.6074 62.5073 20.0385 67.4904C23.1357 69.3209 26.7179 70.6177 30.2829 70.1639C33.3763 69.7702 36.187 68.1006 39.2657 67.6049C44.1063 66.8255 48.916 69.024 53.1027 71.5859C57.2894 74.1478 61.3335 77.1844 66.0911 78.3721C70.7108 79.5253 76.4341 76.2106 80.6789 72.9628Z" fill="#1B1B1F"/>
<path d="M73.7934 19.3755C73.6884 19.3051 73.5822 19.2384 73.4771 19.1705C70.4406 17.2197 67.1861 15.635 63.7806 14.4489L62.9909 25.3912H57.9851V12.8516C57.67 12.7861 57.3524 12.7242 57.0349 12.666V25.3912H51.0861C47.8112 25.3912 44.6705 24.0844 42.3548 21.7582C40.0391 19.4321 38.7381 16.2771 38.7381 12.9874V12.9874C38.4194 13.0566 38.103 13.1305 37.7867 13.2094V25.3912H32.9415L32.1893 14.9571C28.6896 16.3053 25.3672 18.0783 22.2959 20.2366C22.2428 20.273 22.1897 20.3106 22.1377 20.347C21.8709 20.535 21.6077 20.7266 21.3457 20.9207V62.6657H35.6255L35.3731 59.1545L33.9846 39.8763H61.9465L60.5581 59.1545L60.3057 62.6657H74.4273V19.7976C74.2172 19.6545 74.0059 19.5138 73.7934 19.3755ZM37.7867 36.6925H33.7552L33.0103 26.3469H37.7867V36.6925ZM57.0349 36.6925H50.2639V36.4876C50.2639 36.389 50.2445 36.2915 50.207 36.2004C50.1694 36.1094 50.1143 36.0267 50.0449 35.9571C49.9755 35.8875 49.8931 35.8323 49.8024 35.7947C49.7117 35.7571 49.6146 35.7379 49.5165 35.738H46.5729C46.4749 35.738 46.3778 35.7574 46.2873 35.795C46.1967 35.8327 46.1145 35.8879 46.0452 35.9575C45.9759 36.0271 45.9209 36.1097 45.8834 36.2007C45.8459 36.2916 45.8267 36.3891 45.8267 36.4876V36.6925H38.7381V26.3469H57.0349V36.6925ZM57.9851 36.6925V26.3469H62.9221L62.1772 36.6925H57.9851Z" fill="#4C4C62"/>
<path d="M0.333008 65.3398C1.3819 66.5883 2.51639 67.7615 3.72818 68.851L91.9375 68.9723C93.1493 67.8828 94.2838 66.7096 95.3327 65.4611L0.333008 65.3398Z" fill="#4C4C62"/>
<path d="M60.1504 54.0967V64.4913C60.1505 64.6237 60.2029 64.7508 60.2962 64.8444C60.3894 64.9381 60.5158 64.9908 60.6477 64.9909H75.9821C76.114 64.9908 76.2404 64.9381 76.3336 64.8444C76.4269 64.7508 76.4793 64.6237 76.4794 64.4913V54.0967C76.4791 53.9643 76.4266 53.8375 76.3334 53.744C76.2402 53.6504 76.1138 53.5978 75.9821 53.5977H60.6477C60.516 53.5978 60.3896 53.6504 60.2964 53.744C60.2032 53.8375 60.1507 53.9643 60.1504 54.0967V54.0967Z" fill="#4C4C62"/>
<path d="M60.5107 54.2246V64.3616C60.5109 64.4324 60.5389 64.5002 60.5887 64.5503C60.6385 64.6003 60.7061 64.6285 60.7765 64.6286H75.8551C75.9255 64.6285 75.9931 64.6003 76.0429 64.5503C76.0927 64.5002 76.1207 64.4324 76.1209 64.3616V54.2246C76.1208 54.1537 76.0929 54.0858 76.043 54.0356C75.9932 53.9854 75.9256 53.9572 75.8551 53.957H60.7765C60.706 53.9572 60.6384 53.9854 60.5886 54.0356C60.5387 54.0858 60.5107 54.1537 60.5107 54.2246V54.2246Z" fill="#6C63FF"/>
<path d="M59.8297 66.5185C59.8577 66.5539 59.8935 66.5824 59.9341 66.602C59.9747 66.6215 60.0193 66.6315 60.0643 66.6313H76.4838C76.5287 66.6312 76.573 66.6211 76.6136 66.6017C76.6541 66.5823 76.6898 66.554 76.7181 66.519C76.7464 66.4839 76.7665 66.443 76.7771 66.3992C76.7877 66.3553 76.7884 66.3097 76.7791 66.2655L76.5243 65.0494C76.5137 64.9998 76.491 64.9536 76.4581 64.9151C76.4252 64.8766 76.3833 64.847 76.3361 64.8289C76.302 64.8154 76.2656 64.8086 76.2289 64.8086H60.3182C60.2815 64.8086 60.2451 64.8154 60.211 64.8289C60.1638 64.847 60.1219 64.8766 60.089 64.9151C60.0561 64.9536 60.0334 64.9998 60.0228 65.0494L59.768 66.2655C59.7589 66.3097 59.7597 66.3553 59.7704 66.399C59.7811 66.4428 59.8013 66.4836 59.8297 66.5185V66.5185Z" fill="#2F2E41"/>
<path d="M75.6655 65.332H76.0534C76.0859 65.332 76.1123 65.3055 76.1123 65.2728V65.0864C76.1123 65.0537 76.0859 65.0272 76.0534 65.0272H75.6655C75.633 65.0272 75.6066 65.0537 75.6066 65.0864V65.2728C75.6066 65.3055 75.633 65.332 75.6655 65.332Z" fill="#4C4C62"/>
<path d="M74.6538 65.332H75.0416C75.0742 65.332 75.1006 65.3055 75.1006 65.2728V65.0864C75.1006 65.0537 75.0742 65.0272 75.0416 65.0272H74.6538C74.6213 65.0272 74.5949 65.0537 74.5949 65.0864V65.2728C74.5949 65.3055 74.6213 65.332 74.6538 65.332Z" fill="#4C4C62"/>
<path d="M73.6431 65.332H74.0309C74.0635 65.332 74.0898 65.3055 74.0898 65.2728V65.0864C74.0898 65.0537 74.0635 65.0272 74.0309 65.0272H73.6431C73.6105 65.0272 73.5841 65.0537 73.5841 65.0864V65.2728C73.5841 65.3055 73.6105 65.332 73.6431 65.332Z" fill="#4C4C62"/>
<path d="M72.6314 65.332H73.0192C73.0517 65.332 73.0781 65.3055 73.0781 65.2728V65.0864C73.0781 65.0537 73.0517 65.0272 73.0192 65.0272H72.6314C72.5988 65.0272 72.5724 65.0537 72.5724 65.0864V65.2728C72.5724 65.3055 72.5988 65.332 72.6314 65.332Z" fill="#4C4C62"/>
<path d="M71.6196 65.332H72.0075C72.04 65.332 72.0664 65.3055 72.0664 65.2728V65.0864C72.0664 65.0537 72.04 65.0272 72.0075 65.0272H71.6196C71.5871 65.0272 71.5607 65.0537 71.5607 65.0864V65.2728C71.5607 65.3055 71.5871 65.332 71.6196 65.332Z" fill="#4C4C62"/>
<path d="M70.6089 65.332H70.9967C71.0293 65.332 71.0557 65.3055 71.0557 65.2728V65.0864C71.0557 65.0537 71.0293 65.0272 70.9967 65.0272H70.6089C70.5763 65.0272 70.55 65.0537 70.55 65.0864V65.2728C70.55 65.3055 70.5763 65.332 70.6089 65.332Z" fill="#4C4C62"/>
<path d="M69.5972 65.332H69.985C70.0176 65.332 70.0439 65.3055 70.0439 65.2728V65.0864C70.0439 65.0537 70.0176 65.0272 69.985 65.0272H69.5972C69.5646 65.0272 69.5382 65.0537 69.5382 65.0864V65.2728C69.5382 65.3055 69.5646 65.332 69.5972 65.332Z" fill="#4C4C62"/>
<path d="M68.5855 65.332H68.9733C69.0058 65.332 69.0322 65.3055 69.0322 65.2728V65.0864C69.0322 65.0537 69.0058 65.0272 68.9733 65.0272H68.5855C68.5529 65.0272 68.5265 65.0537 68.5265 65.0864V65.2728C68.5265 65.3055 68.5529 65.332 68.5855 65.332Z" fill="#4C4C62"/>
<path d="M67.5747 65.332H67.9625C67.9951 65.332 68.0215 65.3055 68.0215 65.2728V65.0864C68.0215 65.0537 67.9951 65.0272 67.9625 65.0272H67.5747C67.5422 65.0272 67.5158 65.0537 67.5158 65.0864V65.2728C67.5158 65.3055 67.5422 65.332 67.5747 65.332Z" fill="#4C4C62"/>
<path d="M66.563 65.332H66.9508C66.9834 65.332 67.0098 65.3055 67.0098 65.2728V65.0864C67.0098 65.0537 66.9834 65.0272 66.9508 65.0272H66.563C66.5304 65.0272 66.504 65.0537 66.504 65.0864V65.2728C66.504 65.3055 66.5304 65.332 66.563 65.332Z" fill="#4C4C62"/>
<path d="M65.5513 65.332H65.9391C65.9717 65.332 65.998 65.3055 65.998 65.2728V65.0864C65.998 65.0537 65.9717 65.0272 65.9391 65.0272H65.5513C65.5187 65.0272 65.4923 65.0537 65.4923 65.0864V65.2728C65.4923 65.3055 65.5187 65.332 65.5513 65.332Z" fill="#4C4C62"/>
<path d="M64.5405 65.332H64.9284C64.9609 65.332 64.9873 65.3055 64.9873 65.2728V65.0864C64.9873 65.0537 64.9609 65.0272 64.9284 65.0272H64.5405C64.508 65.0272 64.4816 65.0537 64.4816 65.0864V65.2728C64.4816 65.3055 64.508 65.332 64.5405 65.332Z" fill="#4C4C62"/>
<path d="M63.5288 65.332H63.9166C63.9492 65.332 63.9756 65.3055 63.9756 65.2728V65.0864C63.9756 65.0537 63.9492 65.0272 63.9166 65.0272H63.5288C63.4963 65.0272 63.4699 65.0537 63.4699 65.0864V65.2728C63.4699 65.3055 63.4963 65.332 63.5288 65.332Z" fill="#4C4C62"/>
<path d="M62.5171 65.332H62.9049C62.9375 65.332 62.9639 65.3055 62.9639 65.2728V65.0864C62.9639 65.0537 62.9375 65.0272 62.9049 65.0272H62.5171C62.4845 65.0272 62.4581 65.0537 62.4581 65.0864V65.2728C62.4581 65.3055 62.4845 65.332 62.5171 65.332Z" fill="#4C4C62"/>
<path d="M61.5054 65.332H61.8932C61.9258 65.332 61.9521 65.3055 61.9521 65.2728V65.0864C61.9521 65.0537 61.9258 65.0272 61.8932 65.0272H61.5054C61.4728 65.0272 61.4464 65.0537 61.4464 65.0864V65.2728C61.4464 65.3055 61.4728 65.332 61.5054 65.332Z" fill="#4C4C62"/>
<path d="M60.4946 65.332H60.8825C60.915 65.332 60.9414 65.3055 60.9414 65.2728V65.0864C60.9414 65.0537 60.915 65.0272 60.8825 65.0272H60.4946C60.4621 65.0272 60.4357 65.0537 60.4357 65.0864V65.2728C60.4357 65.3055 60.4621 65.332 60.4946 65.332Z" fill="#4C4C62"/>
<path d="M75.6782 65.8398H76.0661C76.0986 65.8398 76.125 65.8133 76.125 65.7806V65.5943C76.125 65.5616 76.0986 65.535 76.0661 65.535H75.6782C75.6457 65.535 75.6193 65.5616 75.6193 65.5943V65.7806C75.6193 65.8133 75.6457 65.8398 75.6782 65.8398Z" fill="#4C4C62"/>
<path d="M74.6665 65.8398H75.0543C75.0869 65.8398 75.1133 65.8133 75.1133 65.7806V65.5943C75.1133 65.5616 75.0869 65.535 75.0543 65.535H74.6665C74.634 65.535 74.6076 65.5616 74.6076 65.5943V65.7806C74.6076 65.8133 74.634 65.8398 74.6665 65.8398Z" fill="#4C4C62"/>
<path d="M73.6548 65.8398H74.0426C74.0752 65.8398 74.1016 65.8133 74.1016 65.7806V65.5943C74.1016 65.5616 74.0752 65.535 74.0426 65.535H73.6548C73.6222 65.535 73.5958 65.5616 73.5958 65.5943V65.7806C73.5958 65.8133 73.6222 65.8398 73.6548 65.8398Z" fill="#4C4C62"/>
<path d="M72.644 65.8398H73.0319C73.0644 65.8398 73.0908 65.8133 73.0908 65.7806V65.5943C73.0908 65.5616 73.0644 65.535 73.0319 65.535H72.644C72.6115 65.535 72.5851 65.5616 72.5851 65.5943V65.7806C72.5851 65.8133 72.6115 65.8398 72.644 65.8398Z" fill="#4C4C62"/>
<path d="M71.6314 65.8398H72.0192C72.0517 65.8398 72.0781 65.8133 72.0781 65.7806V65.5943C72.0781 65.5616 72.0517 65.535 72.0192 65.535H71.6314C71.5988 65.535 71.5724 65.5616 71.5724 65.5943V65.7806C71.5724 65.8133 71.5988 65.8398 71.6314 65.8398Z" fill="#4C4C62"/>
<path d="M70.6206 65.8398H71.0084C71.041 65.8398 71.0674 65.8133 71.0674 65.7806V65.5943C71.0674 65.5616 71.041 65.535 71.0084 65.535H70.6206C70.5881 65.535 70.5617 65.5616 70.5617 65.5943V65.7806C70.5617 65.8133 70.5881 65.8398 70.6206 65.8398Z" fill="#4C4C62"/>
<path d="M69.6099 65.8398H69.9977C70.0302 65.8398 70.0566 65.8133 70.0566 65.7806V65.5943C70.0566 65.5616 70.0302 65.535 69.9977 65.535H69.6099C69.5773 65.535 69.5509 65.5616 69.5509 65.5943V65.7806C69.5509 65.8133 69.5773 65.8398 69.6099 65.8398Z" fill="#4C4C62"/>
<path d="M68.5972 65.8398H68.985C69.0176 65.8398 69.0439 65.8133 69.0439 65.7806V65.5943C69.0439 65.5616 69.0176 65.535 68.985 65.535H68.5972C68.5646 65.535 68.5382 65.5616 68.5382 65.5943V65.7806C68.5382 65.8133 68.5646 65.8398 68.5972 65.8398Z" fill="#4C4C62"/>
<path d="M67.5864 65.8398H67.9743C68.0068 65.8398 68.0332 65.8133 68.0332 65.7806V65.5943C68.0332 65.5616 68.0068 65.535 67.9743 65.535H67.5864C67.5539 65.535 67.5275 65.5616 67.5275 65.5943V65.7806C67.5275 65.8133 67.5539 65.8398 67.5864 65.8398Z" fill="#4C4C62"/>
<path d="M66.5747 65.8398H66.9625C66.9951 65.8398 67.0215 65.8133 67.0215 65.7806V65.5943C67.0215 65.5616 66.9951 65.535 66.9625 65.535H66.5747C66.5422 65.535 66.5158 65.5616 66.5158 65.5943V65.7806C66.5158 65.8133 66.5422 65.8398 66.5747 65.8398Z" fill="#4C4C62"/>
<path d="M65.563 65.8398H65.9508C65.9834 65.8398 66.0098 65.8133 66.0098 65.7806V65.5943C66.0098 65.5616 65.9834 65.535 65.9508 65.535H65.563C65.5304 65.535 65.5041 65.5616 65.5041 65.5943V65.7806C65.5041 65.8133 65.5304 65.8398 65.563 65.8398Z" fill="#4C4C62"/>
<path d="M64.5523 65.8398H64.9401C64.9726 65.8398 64.999 65.8133 64.999 65.7806V65.5943C64.999 65.5616 64.9726 65.535 64.9401 65.535H64.5523C64.5197 65.535 64.4933 65.5616 64.4933 65.5943V65.7806C64.4933 65.8133 64.5197 65.8398 64.5523 65.8398Z" fill="#4C4C62"/>
<path d="M63.5405 65.8398H63.9284C63.9609 65.8398 63.9873 65.8133 63.9873 65.7806V65.5943C63.9873 65.5616 63.9609 65.535 63.9284 65.535H63.5405C63.508 65.535 63.4816 65.5616 63.4816 65.5943V65.7806C63.4816 65.8133 63.508 65.8398 63.5405 65.8398Z" fill="#4C4C62"/>
<path d="M62.5288 65.8398H62.9166C62.9492 65.8398 62.9756 65.8133 62.9756 65.7806V65.5943C62.9756 65.5616 62.9492 65.535 62.9166 65.535H62.5288C62.4963 65.535 62.4699 65.5616 62.4699 65.5943V65.7806C62.4699 65.8133 62.4963 65.8398 62.5288 65.8398Z" fill="#4C4C62"/>
<path d="M61.5181 65.8398H61.9059C61.9385 65.8398 61.9648 65.8133 61.9648 65.7806V65.5943C61.9648 65.5616 61.9385 65.535 61.9059 65.535H61.5181C61.4855 65.535 61.4591 65.5616 61.4591 65.5943V65.7806C61.4591 65.8133 61.4855 65.8398 61.5181 65.8398Z" fill="#4C4C62"/>
<path d="M60.5064 65.8398H60.8942C60.9267 65.8398 60.9531 65.8133 60.9531 65.7806V65.5943C60.9531 65.5616 60.9267 65.535 60.8942 65.535H60.5064C60.4738 65.535 60.4474 65.5616 60.4474 65.5943V65.7806C60.4474 65.8133 60.4738 65.8398 60.5064 65.8398Z" fill="#4C4C62"/>
<path d="M67.2828 66.4492H71.2106C71.2431 66.4492 71.2695 66.4227 71.2695 66.39V66.2036C71.2695 66.1709 71.2431 66.1444 71.2106 66.1444H67.2828C67.2502 66.1444 67.2238 66.1709 67.2238 66.2036V66.39C67.2238 66.4227 67.2502 66.4492 67.2828 66.4492Z" fill="#4C4C62"/>
<path d="M63.1217 56.1758H62.7783C62.6742 56.1758 62.5898 56.2606 62.5898 56.3651C62.5898 56.4697 62.6742 56.5545 62.7783 56.5545H63.1217C63.2258 56.5545 63.3102 56.4697 63.3102 56.3651C63.3102 56.2606 63.2258 56.1758 63.1217 56.1758Z" fill="#F1F2F6"/>
<path d="M67.0484 56.1758H66.7051C66.601 56.1758 66.5166 56.2606 66.5166 56.3651C66.5166 56.4697 66.601 56.5545 66.7051 56.5545H67.0484C67.1525 56.5545 67.2369 56.4697 67.2369 56.3651C67.2369 56.2606 67.1525 56.1758 67.0484 56.1758Z" fill="#F1F2F6"/>
<path d="M68.1607 56.1758H67.8174C67.7133 56.1758 67.6289 56.2606 67.6289 56.3651C67.6289 56.4697 67.7133 56.5545 67.8174 56.5545H68.1607C68.2648 56.5545 68.3492 56.4697 68.3492 56.3651C68.3492 56.2606 68.2648 56.1758 68.1607 56.1758Z" fill="#F1F2F6"/>
<path d="M65.9806 56.1445H63.8467C63.7426 56.1445 63.6582 56.2293 63.6582 56.3339C63.6582 56.4384 63.7426 56.5232 63.8467 56.5232H65.9806C66.0847 56.5232 66.1691 56.4384 66.1691 56.3339C66.1691 56.2293 66.0847 56.1445 65.9806 56.1445Z" fill="#F1F2F6"/>
<path d="M71.216 56.1445H69.082C68.9779 56.1445 68.8936 56.2293 68.8936 56.3339C68.8936 56.4384 68.9779 56.5232 69.082 56.5232H71.216C71.3201 56.5232 71.4045 56.4384 71.4045 56.3339C71.4045 56.2293 71.3201 56.1445 71.216 56.1445Z" fill="#F1F2F6"/>
<path d="M64.1685 57.0312H63.8252C63.7211 57.0312 63.6367 57.116 63.6367 57.2206C63.6367 57.3252 63.7211 57.4099 63.8252 57.4099H64.1685C64.2726 57.4099 64.357 57.3252 64.357 57.2206C64.357 57.116 64.2726 57.0312 64.1685 57.0312Z" fill="#F1F2F6"/>
<path d="M68.0953 57.0312H67.752C67.6479 57.0312 67.5635 57.116 67.5635 57.2206C67.5635 57.3252 67.6479 57.4099 67.752 57.4099H68.0953C68.1994 57.4099 68.2838 57.3252 68.2838 57.2206C68.2838 57.116 68.1994 57.0312 68.0953 57.0312Z" fill="#F1F2F6"/>
<path d="M69.2086 57.0312H68.8652C68.7611 57.0312 68.6768 57.116 68.6768 57.2206C68.6768 57.3252 68.7611 57.4099 68.8652 57.4099H69.2086C69.3127 57.4099 69.3971 57.3252 69.3971 57.2206C69.3971 57.116 69.3127 57.0312 69.2086 57.0312Z" fill="#F1F2F6"/>
<path d="M67.0275 56.998H64.8936C64.7895 56.998 64.7051 57.0828 64.7051 57.1874C64.7051 57.292 64.7895 57.3767 64.8936 57.3767H67.0275C67.1316 57.3767 67.216 57.292 67.216 57.1874C67.216 57.0828 67.1316 56.998 67.0275 56.998Z" fill="#F1F2F6"/>
<path d="M72.2628 56.998H70.1289C70.0248 56.998 69.9404 57.0828 69.9404 57.1874C69.9404 57.292 70.0248 57.3767 70.1289 57.3767H72.2628C72.3669 57.3767 72.4513 57.292 72.4513 57.1874C72.4513 57.0828 72.3669 56.998 72.2628 56.998Z" fill="#F1F2F6"/>
<path d="M65.2154 57.8848H64.8721C64.768 57.8848 64.6836 57.9695 64.6836 58.0741C64.6836 58.1787 64.768 58.2634 64.8721 58.2634H65.2154C65.3195 58.2634 65.4039 58.1787 65.4039 58.0741C65.4039 57.9695 65.3195 57.8848 65.2154 57.8848Z" fill="#F1F2F6"/>
<path d="M69.1431 57.8848H68.7998C68.6957 57.8848 68.6113 57.9695 68.6113 58.0741C68.6113 58.1787 68.6957 58.2634 68.7998 58.2634H69.1431C69.2472 58.2634 69.3316 58.1787 69.3316 58.0741C69.3316 57.9695 69.2472 57.8848 69.1431 57.8848Z" fill="#F1F2F6"/>
<path d="M70.2555 57.8848H69.9121C69.808 57.8848 69.7236 57.9695 69.7236 58.0741C69.7236 58.1787 69.808 58.2634 69.9121 58.2634H70.2555C70.3596 58.2634 70.4439 58.1787 70.4439 58.0741C70.4439 57.9695 70.3596 57.8848 70.2555 57.8848Z" fill="#F1F2F6"/>
<path d="M68.0744 57.8535H65.9404C65.8363 57.8535 65.752 57.9383 65.752 58.0429C65.752 58.1474 65.8363 58.2322 65.9404 58.2322H68.0744C68.1785 58.2322 68.2628 58.1474 68.2628 58.0429C68.2628 57.9383 68.1785 57.8535 68.0744 57.8535Z" fill="#F1F2F6"/>
<path d="M73.3107 57.8535H71.1768C71.0727 57.8535 70.9883 57.9383 70.9883 58.0429C70.9883 58.1474 71.0727 58.2322 71.1768 58.2322H73.3107C73.4148 58.2322 73.4992 58.1474 73.4992 58.0429C73.4992 57.9383 73.4148 57.8535 73.3107 57.8535Z" fill="#F1F2F6"/>
<path d="M66.2623 58.7402H65.919C65.8149 58.7402 65.7305 58.825 65.7305 58.9296C65.7305 59.0341 65.8149 59.1189 65.919 59.1189H66.2623C66.3664 59.1189 66.4508 59.0341 66.4508 58.9296C66.4508 58.825 66.3664 58.7402 66.2623 58.7402Z" fill="#F1F2F6"/>
<path d="M70.19 58.7402H69.8467C69.7426 58.7402 69.6582 58.825 69.6582 58.9296C69.6582 59.0341 69.7426 59.1189 69.8467 59.1189H70.19C70.2941 59.1189 70.3785 59.0341 70.3785 58.9296C70.3785 58.825 70.2941 58.7402 70.19 58.7402Z" fill="#F1F2F6"/>
<path d="M71.3023 58.7402H70.959C70.8549 58.7402 70.7705 58.825 70.7705 58.9296C70.7705 59.0341 70.8549 59.1189 70.959 59.1189H71.3023C71.4064 59.1189 71.4908 59.0341 71.4908 58.9296C71.4908 58.825 71.4064 58.7402 71.3023 58.7402Z" fill="#F1F2F6"/>
<path d="M69.1212 58.707H66.9873C66.8832 58.707 66.7988 58.7918 66.7988 58.8964C66.7988 59.0009 66.8832 59.0857 66.9873 59.0857H69.1212C69.2253 59.0857 69.3097 59.0009 69.3097 58.8964C69.3097 58.7918 69.2253 58.707 69.1212 58.707Z" fill="#F1F2F6"/>
<path d="M67.0484 62.1387H66.7051C66.601 62.1387 66.5166 62.2234 66.5166 62.328C66.5166 62.4326 66.601 62.5173 66.7051 62.5173H67.0484C67.1525 62.5173 67.2369 62.4326 67.2369 62.328C67.2369 62.2234 67.1525 62.1387 67.0484 62.1387Z" fill="#F1F2F6"/>
<path d="M68.1607 62.1387H67.8174C67.7133 62.1387 67.6289 62.2234 67.6289 62.328C67.6289 62.4326 67.7133 62.5173 67.8174 62.5173H68.1607C68.2648 62.5173 68.3492 62.4326 68.3492 62.328C68.3492 62.2234 68.2648 62.1387 68.1607 62.1387Z" fill="#F1F2F6"/>
<path d="M71.216 62.1699H69.082C68.9779 62.1699 68.8936 62.2547 68.8936 62.3593C68.8936 62.4638 68.9779 62.5486 69.082 62.5486H71.216C71.3201 62.5486 71.4045 62.4638 71.4045 62.3593C71.4045 62.2547 71.3201 62.1699 71.216 62.1699Z" fill="#F1F2F6"/>
<path d="M63.1217 62.1387H62.7783C62.6742 62.1387 62.5898 62.2234 62.5898 62.328C62.5898 62.4326 62.6742 62.5173 62.7783 62.5173H63.1217C63.2258 62.5173 63.3102 62.4326 63.3102 62.328C63.3102 62.2234 63.2258 62.1387 63.1217 62.1387Z" fill="#F1F2F6"/>
<path d="M65.9806 62.1699H63.8467C63.7426 62.1699 63.6582 62.2547 63.6582 62.3593C63.6582 62.4638 63.7426 62.5486 63.8467 62.5486H65.9806C66.0847 62.5486 66.1691 62.4638 66.1691 62.3593C66.1691 62.2547 66.0847 62.1699 65.9806 62.1699Z" fill="#F1F2F6"/>
<path d="M64.1685 61.2832H63.8252C63.7211 61.2832 63.6367 61.368 63.6367 61.4725C63.6367 61.5771 63.7211 61.6619 63.8252 61.6619H64.1685C64.2726 61.6619 64.357 61.5771 64.357 61.4725C64.357 61.368 64.2726 61.2832 64.1685 61.2832Z" fill="#F1F2F6"/>
<path d="M68.0953 61.2832H67.752C67.6479 61.2832 67.5635 61.368 67.5635 61.4725C67.5635 61.5771 67.6479 61.6619 67.752 61.6619H68.0953C68.1994 61.6619 68.2838 61.5771 68.2838 61.4725C68.2838 61.368 68.1994 61.2832 68.0953 61.2832Z" fill="#F1F2F6"/>
<path d="M69.2086 61.2832H68.8652C68.7611 61.2832 68.6768 61.368 68.6768 61.4725C68.6768 61.5771 68.7611 61.6619 68.8652 61.6619H69.2086C69.3127 61.6619 69.3971 61.5771 69.3971 61.4725C69.3971 61.368 69.3127 61.2832 69.2086 61.2832Z" fill="#F1F2F6"/>
<path d="M67.0275 61.3164H64.8936C64.7895 61.3164 64.7051 61.4012 64.7051 61.5057C64.7051 61.6103 64.7895 61.6951 64.8936 61.6951H67.0275C67.1316 61.6951 67.216 61.6103 67.216 61.5057C67.216 61.4012 67.1316 61.3164 67.0275 61.3164Z" fill="#F1F2F6"/>
<path d="M65.2154 60.4297H64.8721C64.768 60.4297 64.6836 60.5145 64.6836 60.619C64.6836 60.7236 64.768 60.8084 64.8721 60.8084H65.2154C65.3195 60.8084 65.4039 60.7236 65.4039 60.619C65.4039 60.5145 65.3195 60.4297 65.2154 60.4297Z" fill="#F1F2F6"/>
<path d="M69.1431 60.4297H68.7998C68.6957 60.4297 68.6113 60.5145 68.6113 60.619C68.6113 60.7236 68.6957 60.8084 68.7998 60.8084H69.1431C69.2472 60.8084 69.3316 60.7236 69.3316 60.619C69.3316 60.5145 69.2472 60.4297 69.1431 60.4297Z" fill="#F1F2F6"/>
<path d="M70.2555 60.4297H69.9121C69.808 60.4297 69.7236 60.5145 69.7236 60.619C69.7236 60.7236 69.808 60.8084 69.9121 60.8084H70.2555C70.3596 60.8084 70.4439 60.7236 70.4439 60.619C70.4439 60.5145 70.3596 60.4297 70.2555 60.4297Z" fill="#F1F2F6"/>
<path d="M68.0744 60.4609H65.9404C65.8363 60.4609 65.752 60.5457 65.752 60.6503C65.752 60.7548 65.8363 60.8396 65.9404 60.8396H68.0744C68.1785 60.8396 68.2628 60.7548 68.2628 60.6503C68.2628 60.5457 68.1785 60.4609 68.0744 60.4609Z" fill="#F1F2F6"/>
<path d="M66.2623 59.5742H65.919C65.8149 59.5742 65.7305 59.659 65.7305 59.7636C65.7305 59.8681 65.8149 59.9529 65.919 59.9529H66.2623C66.3664 59.9529 66.4508 59.8681 66.4508 59.7636C66.4508 59.659 66.3664 59.5742 66.2623 59.5742Z" fill="#F1F2F6"/>
<path d="M70.19 59.5742H69.8467C69.7426 59.5742 69.6582 59.659 69.6582 59.7636C69.6582 59.8681 69.7426 59.9529 69.8467 59.9529H70.19C70.2941 59.9529 70.3785 59.8681 70.3785 59.7636C70.3785 59.659 70.2941 59.5742 70.19 59.5742Z" fill="#F1F2F6"/>
<path d="M71.3023 59.5742H70.959C70.8549 59.5742 70.7705 59.659 70.7705 59.7636C70.7705 59.8681 70.8549 59.9529 70.959 59.9529H71.3023C71.4064 59.9529 71.4908 59.8681 71.4908 59.7636C71.4908 59.659 71.4064 59.5742 71.3023 59.5742Z" fill="#F1F2F6"/>
<path d="M69.1212 59.6055H66.9873C66.8832 59.6055 66.7988 59.6902 66.7988 59.7948C66.7988 59.8994 66.8832 59.9841 66.9873 59.9841H69.1212C69.2253 59.9841 69.3097 59.8994 69.3097 59.7948C69.3097 59.6902 69.2253 59.6055 69.1212 59.6055Z" fill="#F1F2F6"/>
<path d="M61.2964 72.1544L59.6846 69.5951L64.7438 65.5439L66.832 63.2199C67.1033 62.918 67.4487 62.6929 67.8338 62.5671C68.2188 62.4413 68.63 62.4192 69.0262 62.503C69.4224 62.5868 69.7898 62.7737 70.0916 63.0448C70.3934 63.3159 70.6191 63.6619 70.7461 64.0481C70.9343 64.6204 70.8939 65.2437 70.6332 65.7866C70.3726 66.3295 69.9122 66.7494 69.3491 66.9578L66.0471 68.1798L61.2964 72.1544Z" fill="#FFB6B6"/>
<path d="M23.4775 53.5974V66.0364H32.1526V53.5974C32.1528 53.5079 32.1244 53.4208 32.0715 53.3487C32.0187 53.2767 31.9443 53.2236 31.8592 53.1972C31.8191 53.1839 31.7771 53.1773 31.7349 53.1778H23.8965C23.8416 53.1776 23.7871 53.1884 23.7363 53.2095C23.6855 53.2305 23.6394 53.2614 23.6004 53.3004C23.5615 53.3393 23.5306 53.3856 23.5096 53.4366C23.4885 53.4876 23.4776 53.5422 23.4775 53.5974V53.5974ZM26.8631 57.8715C26.8653 57.6263 26.9639 57.3918 27.1373 57.2192C27.3107 57.0466 27.545 56.9498 27.7891 56.9498C28.0333 56.9498 28.2675 57.0466 28.4409 57.2192C28.6144 57.3918 28.7129 57.6263 28.7152 57.8715V59.3148C28.7139 59.5607 28.6158 59.7961 28.4423 59.9695C28.2688 60.1429 28.0339 60.2403 27.7891 60.2403C27.5443 60.2403 27.3095 60.1429 27.136 59.9695C26.9624 59.7961 26.8643 59.5607 26.8631 59.3148V57.8715Z" fill="#2F2E41"/>
<path d="M23.4512 65.6387V66.8382C23.4514 66.9003 23.4759 66.9599 23.5196 67.0039C23.5632 67.048 23.6223 67.0729 23.6842 67.0735H31.9464C32.0083 67.0732 32.0675 67.0482 32.1112 67.0041C32.1549 66.96 32.1794 66.9004 32.1794 66.8382V65.6387H23.4512Z" fill="#4C4C62"/>
<path d="M9.83008 34.856V57.5678C9.83031 57.8572 9.94487 58.1347 10.1486 58.3394C10.3523 58.544 10.6286 58.6591 10.9167 58.6593H44.4217C44.7099 58.6591 44.9861 58.544 45.1899 58.3394C45.3936 58.1347 45.5082 57.8572 45.5084 57.5678V34.856C45.5077 34.5668 45.393 34.2897 45.1893 34.0853C44.9856 33.8809 44.7096 33.766 44.4217 33.7656H10.9167C10.6289 33.766 10.3529 33.8809 10.1492 34.0853C9.94551 34.2897 9.83077 34.5668 9.83008 34.856Z" fill="#4C4C62"/>
<path d="M10.6162 35.1393V57.2883C10.6165 57.443 10.6777 57.5912 10.7866 57.7005C10.8955 57.8099 11.043 57.8714 11.197 57.8717H44.143C44.2969 57.8714 44.4445 57.8099 44.5533 57.7005C44.6622 57.5912 44.7235 57.443 44.7237 57.2883V35.1393C44.7237 34.9845 44.6626 34.836 44.5537 34.7264C44.4448 34.6168 44.2971 34.555 44.143 34.5547H11.197C11.0428 34.555 10.8951 34.6168 10.7863 34.7264C10.6774 34.836 10.6162 34.9845 10.6162 35.1393Z" fill="#18181C"/>
<path d="M16.7305 66.9924C16.764 67.0346 16.8067 67.0687 16.8552 67.092C16.9037 67.1153 16.9568 67.1273 17.0106 67.127H36.6114C36.665 67.1269 36.7179 67.1149 36.7663 67.0917C36.8146 67.0685 36.8573 67.0348 36.891 66.9929C36.9248 66.9511 36.9489 66.9023 36.9615 66.8499C36.9741 66.7976 36.9749 66.7431 36.9639 66.6904L36.6597 65.2386C36.647 65.1794 36.6199 65.1243 36.5807 65.0783C36.5414 65.0324 36.4914 64.997 36.4351 64.9754C36.3943 64.9594 36.3509 64.9511 36.3071 64.9512H17.3137C17.2699 64.9511 17.2265 64.9594 17.1857 64.9754C17.1294 64.997 17.0793 65.0324 17.0401 65.0783C17.0009 65.1243 16.9737 65.1794 16.9611 65.2386L16.6569 66.6904C16.646 66.7431 16.647 66.7975 16.6598 66.8497C16.6725 66.902 16.6967 66.9507 16.7305 66.9924Z" fill="#2F2E41"/>
<path d="M43.0743 37.6057H12.2469C12.2148 37.605 12.1843 37.5917 12.1619 37.5687C12.1395 37.5456 12.127 37.5147 12.127 37.4825C12.127 37.4503 12.1395 37.4194 12.1619 37.3964C12.1843 37.3734 12.2148 37.3601 12.2469 37.3594H43.0743C43.1063 37.3601 43.1368 37.3734 43.1592 37.3964C43.1816 37.4194 43.1942 37.4503 43.1942 37.4825C43.1942 37.5147 43.1816 37.5456 43.1592 37.5687C43.1368 37.5917 43.1063 37.605 43.0743 37.6057V37.6057Z" fill="#4C4C62"/>
<path d="M14.3444 36.7314C14.7412 36.7314 15.0629 36.4011 15.0629 35.9936C15.0629 35.5862 14.7412 35.2559 14.3444 35.2559C13.9476 35.2559 13.626 35.5862 13.626 35.9936C13.626 36.4011 13.9476 36.7314 14.3444 36.7314Z" fill="#4C4C62"/>
<path d="M16.8268 36.7314C17.2236 36.7314 17.5453 36.4011 17.5453 35.9936C17.5453 35.5862 17.2236 35.2559 16.8268 35.2559C16.4301 35.2559 16.1084 35.5862 16.1084 35.9936C16.1084 36.4011 16.4301 36.7314 16.8268 36.7314Z" fill="#4C4C62"/>
<path d="M19.3083 36.7314C19.7051 36.7314 20.0267 36.4011 20.0267 35.9936C20.0267 35.5862 19.7051 35.2559 19.3083 35.2559C18.9115 35.2559 18.5898 35.5862 18.5898 35.9936C18.5898 36.4011 18.9115 36.7314 19.3083 36.7314Z" fill="#4C4C62"/>
<path d="M41.5797 35.4375H39.8169C39.782 35.4383 39.7489 35.4528 39.7245 35.4778C39.7002 35.5029 39.6865 35.5365 39.6865 35.5715C39.6865 35.6065 39.7002 35.6402 39.7245 35.6652C39.7489 35.6902 39.782 35.7047 39.8169 35.7055H41.5797C41.6147 35.705 41.6482 35.6907 41.6728 35.6656C41.6974 35.6405 41.7112 35.6067 41.7112 35.5715C41.7112 35.5363 41.6974 35.5025 41.6728 35.4774C41.6482 35.4523 41.6147 35.438 41.5797 35.4375Z" fill="#4C4C62"/>
<path d="M41.5788 35.9414H39.8161C39.7812 35.9422 39.748 35.9566 39.7236 35.9817C39.6992 36.0067 39.6855 36.0404 39.6855 36.0754C39.6855 36.1105 39.6992 36.1441 39.7236 36.1692C39.748 36.1942 39.7812 36.2087 39.8161 36.2094H41.5788C41.6139 36.209 41.6475 36.1947 41.6721 36.1696C41.6968 36.1445 41.7107 36.1107 41.7107 36.0754C41.7107 36.0402 41.6968 36.0063 41.6721 35.9812C41.6475 35.9561 41.6139 35.9418 41.5788 35.9414V35.9414Z" fill="#4C4C62"/>
<path d="M41.5797 36.4453H39.8169C39.782 36.4461 39.7489 36.4606 39.7245 36.4857C39.7002 36.5107 39.6865 36.5443 39.6865 36.5793C39.6865 36.6143 39.7002 36.648 39.7245 36.673C39.7489 36.6981 39.782 36.7125 39.8169 36.7134H41.5797C41.6147 36.7129 41.6482 36.6985 41.6728 36.6734C41.6974 36.6484 41.7112 36.6146 41.7112 36.5793C41.7112 36.5441 41.6974 36.5103 41.6728 36.4852C41.6482 36.4601 41.6147 36.4458 41.5797 36.4453V36.4453Z" fill="#4C4C62"/>
<path d="M84.0769 66.1655C84.1301 66.3211 84.231 66.4558 84.3651 66.5501C84.4992 66.6445 84.6597 66.6938 84.8234 66.6908L88.022 66.6081C88.1869 66.6049 88.3464 66.5481 88.4766 66.4463C88.6067 66.3445 88.7006 66.2031 88.7441 66.0433L89.1968 61.1813C89.3573 61.2544 89.5322 61.2905 89.7084 61.2869C89.8616 61.2831 90.0125 61.249 90.1525 61.1865C90.2925 61.1241 90.4189 61.0346 90.5244 60.9231C90.63 60.8116 90.7127 60.6803 90.7677 60.5367C90.8228 60.3931 90.8491 60.24 90.8453 60.0861C90.8415 59.9323 90.8075 59.7807 90.7453 59.6401C90.6832 59.4995 90.594 59.3725 90.483 59.2664C90.372 59.1604 90.2413 59.0774 90.0984 59.0221C89.9554 58.9668 89.803 58.9403 89.6499 58.9441C89.5794 58.9439 89.5092 58.9513 89.4403 58.966C89.3653 58.8846 89.2743 58.8198 89.1729 58.7759C89.0716 58.732 88.9622 58.7099 88.8518 58.711L83.9316 58.8386C83.8908 58.8401 83.8502 58.8452 83.8102 58.8537C83.7023 58.8739 83.6 58.9171 83.5101 58.9804C83.4202 59.0437 83.3449 59.1255 83.2891 59.2205C83.2334 59.3155 83.1985 59.4214 83.1869 59.531C83.1753 59.6406 83.1872 59.7515 83.2219 59.8561L84.0769 66.1655ZM89.2896 60.8512L89.6117 59.6926C89.6483 59.5588 89.6491 59.4176 89.6141 59.2833C89.6297 59.2833 89.6435 59.2758 89.6592 59.2758C89.88 59.2712 90.0937 59.3548 90.2533 59.5082C90.4129 59.6616 90.5054 59.8723 90.5106 60.0941C90.5157 60.316 90.4331 60.5308 90.2808 60.6916C90.1286 60.8523 89.919 60.9458 89.6982 60.9516C89.5555 60.9561 89.4142 60.9214 89.2896 60.8512Z" fill="#2F2E41"/>
<path d="M83.8105 58.8539C83.9154 59.456 85.0939 59.8792 86.511 59.8056C87.8141 59.7453 88.8796 59.2857 89.0748 58.7409C89.0025 58.7195 88.9274 58.7094 88.8521 58.7111L83.9319 58.8387C83.8911 58.8403 83.8505 58.8453 83.8105 58.8539V58.8539Z" fill="#4C4C62"/>
<path d="M86.7707 63.4947C86.7772 63.493 86.7833 63.4903 86.7889 63.4866L87.4836 63.0299C87.492 63.0244 87.4989 63.0169 87.5036 63.008C87.5084 62.9992 87.5109 62.9892 87.5109 62.9792C87.5109 62.9691 87.5084 62.9592 87.5036 62.9503C87.4989 62.9415 87.492 62.934 87.4836 62.9285L86.7616 62.4534C86.755 62.449 86.7475 62.446 86.7397 62.4445C86.7319 62.4429 86.7239 62.443 86.7161 62.4446C86.7084 62.4462 86.701 62.4494 86.6944 62.4538C86.6878 62.4583 86.6822 62.4641 86.6778 62.4707C86.6735 62.4774 86.6705 62.4849 86.669 62.4927C86.6675 62.5006 86.6676 62.5086 86.6693 62.5164C86.6709 62.5243 86.6741 62.5317 86.6785 62.5382C86.683 62.5448 86.6888 62.5505 86.6954 62.5548L87.3403 62.9791L86.7228 63.3851C86.7109 63.393 86.7021 63.4048 86.698 63.4186C86.694 63.4324 86.6949 63.4471 86.7006 63.4603C86.7063 63.4734 86.7165 63.4841 86.7294 63.4904C86.7422 63.4966 86.7569 63.4982 86.7707 63.4947H86.7707Z" fill="#6C63FF"/>
<path d="M85.6734 63.5433C85.685 63.5404 85.6955 63.534 85.7036 63.525C85.7116 63.516 85.7167 63.5048 85.7184 63.4928C85.72 63.4808 85.718 63.4686 85.7127 63.4578C85.7074 63.4469 85.699 63.4379 85.6886 63.4319L85.0483 63.0632L85.6672 62.6014C85.6735 62.5967 85.6789 62.5907 85.683 62.5839C85.687 62.5771 85.6897 62.5695 85.6909 62.5616C85.692 62.5538 85.6916 62.5457 85.6897 62.538C85.6878 62.5303 85.6843 62.523 85.6796 62.5166C85.6749 62.5103 85.6689 62.5049 85.6622 62.5008C85.6554 62.4967 85.6478 62.494 85.64 62.4928C85.6321 62.4917 85.6242 62.4921 85.6165 62.494C85.6088 62.496 85.6016 62.4994 85.5952 62.5041L84.9023 63.0211C84.8943 63.0271 84.8878 63.035 84.8836 63.0442C84.8794 63.0533 84.8774 63.0633 84.878 63.0734C84.8786 63.0834 84.8817 63.0932 84.887 63.1017C84.8923 63.1103 84.8996 63.1174 84.9083 63.1224L85.6285 63.5371C85.6421 63.545 85.6582 63.5472 85.6734 63.5433V63.5433Z" fill="#6C63FF"/>
<path d="M86.7014 63.894C86.7073 63.8926 86.7129 63.8902 86.718 63.887C86.7248 63.8829 86.7307 63.8774 86.7354 63.871C86.74 63.8646 86.7434 63.8573 86.7453 63.8496C86.7472 63.8418 86.7475 63.8338 86.7463 63.8259C86.7451 63.818 86.7423 63.8105 86.7382 63.8037L85.7535 62.1775C85.7452 62.1637 85.7318 62.1539 85.7162 62.1501C85.7006 62.1464 85.6842 62.1489 85.6706 62.1573C85.6569 62.1657 85.6471 62.1791 85.6433 62.1947C85.6395 62.2104 85.6421 62.2268 85.6504 62.2406L86.6351 63.8668C86.6418 63.8779 86.6518 63.8865 86.6638 63.8914C86.6757 63.8963 86.6889 63.8972 86.7014 63.894Z" fill="#6C63FF"/>
<path d="M31.3429 44.3008H26.0074C25.7897 44.3008 25.6133 44.478 25.6133 44.6967V45.2203C25.6133 45.439 25.7897 45.6162 26.0074 45.6162H31.3429C31.5606 45.6162 31.7371 45.439 31.7371 45.2203V44.6967C31.7371 44.478 31.5606 44.3008 31.3429 44.3008Z" fill="#6C63FF"/>
<path d="M34.4537 46.9316H22.898C22.6804 46.9316 22.5039 47.1089 22.5039 47.3275V47.8512C22.5039 48.0698 22.6804 48.2471 22.898 48.2471H34.4537C34.6713 48.2471 34.8478 48.0698 34.8478 47.8512V47.3275C34.8478 47.1089 34.6713 46.9316 34.4537 46.9316Z" fill="#383841"/>
<path d="M34.4537 49.5625H22.898C22.6804 49.5625 22.5039 49.7398 22.5039 49.9584V50.482C22.5039 50.7007 22.6804 50.8779 22.898 50.8779H34.4537C34.6713 50.8779 34.8478 50.7007 34.8478 50.482V49.9584C34.8478 49.7398 34.6713 49.5625 34.4537 49.5625Z" fill="#383841"/>
<path d="M35.4336 58.3728L35.4598 58.4558L35.4611 58.4586L36.249 60.8646L37.1553 63.6373L38.8604 68.8479L38.877 69.6573V69.66L39.0037 76.1711L38.6525 77.0539L39.0478 78.5011C39.0478 78.5011 38.8659 76.3135 37.8908 77.5698C37.3385 78.2837 36.6925 79.0142 36.1622 79.6991C36.9349 80.0132 37.72 80.2973 38.5175 80.5514C38.6897 80.6067 38.8632 80.6593 39.0367 80.7119C39.0739 80.7229 39.1111 80.734 39.1483 80.7451C41.7918 81.5304 44.5248 81.9717 47.2802 82.0581C47.4234 82.0622 47.5639 82.065 47.7003 82.0678C47.7485 82.0692 47.7953 82.0705 47.8421 82.0705C47.9964 82.0719 48.1493 82.0733 48.3035 82.0733C48.6148 82.0733 48.9247 82.0687 49.2332 82.0595C51.5168 81.9948 53.787 81.6864 56.0057 81.1394C55.9905 80.2193 55.9492 79.1443 55.89 77.9959C55.8624 77.4328 55.244 76.8226 55.2068 76.2332C55.1806 75.7905 55.7357 75.374 55.7068 74.9244C55.5195 72.1558 55.2853 73.2186 55.1118 71.2581C55.0939 71.0657 55.0773 70.8817 55.0622 70.706C54.9506 69.447 54.8735 68.6597 54.8735 68.6597L55.6145 63.968L56.7784 56.6018L56.6888 56.4538L56.5883 56.404L50.4494 53.3518L50.1161 52.494C50.019 52.2468 49.8505 52.0345 49.6323 51.8844C49.4141 51.7342 49.1562 51.6531 48.8917 51.6514L44.8478 51.6348C44.6379 51.6338 44.4308 51.6832 44.2438 51.7787C44.0567 51.8742 43.895 52.0132 43.7721 52.1841L42.6771 53.7074L35.4336 58.3728Z" fill="#4C4C62"/>
<path d="M39.7924 67.6883L38.8765 69.6572L38.2512 71.002L37.1755 76.6595L36.6369 77.2337L36.1755 75.201L31.3463 76.2781C31.1879 75.394 31.3038 76.308 31.2061 75.3382C31.2336 75.3105 31.2625 75.2828 31.2915 75.2551C31.3686 75.1832 31.4333 75.1154 31.4319 75.0504C31.3768 71.7049 31.5421 66.0115 32.9222 62.5622C33.1384 61.999 33.4234 61.465 33.7707 60.9725C33.7982 60.9351 33.8244 60.8977 33.8506 60.8604C34.4869 59.9652 34.8891 59.0839 35.4593 58.4571V58.4557C35.4629 58.4529 35.4661 58.4496 35.469 58.4461C35.471 58.445 35.4729 58.4436 35.4745 58.4419L39.3916 56.3555L39.5597 61.0984L39.6795 64.5075L39.7924 67.6883Z" fill="#4C4C62"/>
<path d="M53.917 68.2461L55.0611 70.7051L55.4604 71.5615L56.5358 77.2184L57.0726 77.7912L57.5351 75.7591L57.7524 75.7143L61.6714 74.899L62.8137 78.5431C63.0711 78.1122 63.1725 77.6052 63.1008 77.1079C63.029 76.6105 62.7885 76.1533 62.4199 75.8135C62.3419 75.7426 62.2769 75.6736 62.2787 75.6083C62.3438 71.6734 62.1042 64.4885 59.9404 61.5313C59.2531 60.5928 58.8408 59.6581 58.2409 59.0051C58.239 59.0032 58.239 59.0013 58.2372 59.0013L56.7773 56.6001L56.6881 56.4527L56.5879 56.4023L53.917 68.2461Z" fill="#4C4C62"/>
<path d="M46.9864 50.4784C49.9576 50.4784 52.3663 48.0588 52.3663 45.0742C52.3663 42.0895 49.9576 39.6699 46.9864 39.6699C44.0151 39.6699 41.6064 42.0895 41.6064 45.0742C41.6064 48.0588 44.0151 50.4784 46.9864 50.4784Z" fill="#FFB6B6"/>
<path d="M54.2574 41.2999C54.2157 41.2552 54.1655 41.2193 54.1097 41.1945C54.0539 41.1697 53.9937 41.1565 53.9327 41.1556L54.0135 40.93C54.04 40.8589 54.0471 40.7821 54.0342 40.7074C54.0213 40.6326 53.9889 40.5627 53.9402 40.5047C53.8916 40.4467 53.8285 40.4027 53.7573 40.3773C53.6862 40.3519 53.6096 40.3459 53.5354 40.36L53.2408 40.417L53.2686 40.2193C53.2792 40.1456 53.2706 40.0705 53.2436 40.0012C53.2166 39.932 53.172 39.8709 53.1144 39.8242C53.0568 39.7774 52.9881 39.7466 52.915 39.7346C52.8419 39.7226 52.7669 39.73 52.6975 39.756C52.6344 39.7809 52.5664 39.7914 52.4988 39.7866C52.4311 39.7817 52.3653 39.7617 52.3063 39.7281C52.2471 39.6954 52.1956 39.6502 52.1556 39.5955C52.1156 39.5408 52.0879 39.478 52.0745 39.4115L51.9719 38.9142L51.961 38.8876C51.4611 38.0507 50.5001 37.4418 49.3241 37.2187C48.2772 37.0186 47.2039 37.1204 46.1692 37.2163C45.7586 37.2551 45.295 37.2987 44.9086 37.5364C44.5802 37.7402 44.3025 38.1477 44.3593 38.5589C43.339 38.2447 42.2451 38.8718 41.703 39.6626C41.0607 40.6037 40.9556 41.7826 40.9387 42.7044C40.8929 44.8851 41.3408 46.6692 42.2669 48.0082C42.3345 48.1052 42.3514 48.3077 42.4854 48.3757L42.4576 48.3308C42.6074 48.406 42.7595 48.5273 42.7027 48.657C42.5397 49.0306 43.6228 49.8566 44.3858 50.1294C45.778 50.6279 47.6289 50.5855 48.9304 50.406L48.9763 50.0967C49.446 50.0324 49.7768 49.9099 49.8698 49.7183C50.034 49.5776 50.1741 49.4515 50.296 49.335L50.2972 49.3338C50.2996 49.3314 50.3045 49.3278 50.3069 49.3253C50.8949 48.7589 51.0313 48.4363 51.0929 47.9451C51.152 47.4636 51.047 46.9748 50.9395 46.5346C53.2022 46.8863 50.0485 44.1137 52.1566 43.5776C52.1808 43.5702 52.2054 43.5641 52.2302 43.5595C52.2918 43.5449 52.3534 43.5303 52.4126 43.5134C52.6977 43.4356 52.9708 43.3185 53.2239 43.1653C53.8131 42.8051 54.0075 42.3272 54.3118 41.7887C54.3557 41.712 54.3741 41.6233 54.3643 41.5354C54.3545 41.4475 54.3171 41.365 54.2574 41.2999V41.2999Z" fill="#2F2E41"/>
<path d="M66.0139 68.6316C66.0127 68.8438 66.0102 69.141 66.0006 69.5085C65.9994 69.5594 65.9982 69.6116 65.997 69.6649C65.9813 70.3405 65.9656 70.9069 65.9402 71.5363C65.939 71.58 65.9378 71.6225 65.9354 71.6661C65.9016 72.5442 65.8484 73.5667 65.7567 75.1858C65.5864 78.1767 65.2894 75.597 64.9912 76.6461C64.9767 76.6982 64.961 76.7601 64.9465 76.8329C64.9014 77.0969 64.8252 77.3546 64.7195 77.6006C64.5614 77.6952 64.3984 77.7862 64.2378 77.8771C63.7802 78.133 63.3153 78.3792 62.8469 78.6133C62.5837 78.7443 62.3193 78.8729 62.0536 78.9966C62.0114 79.016 61.9703 79.0354 61.9293 79.0536C60.569 79.6856 59.1672 80.2229 57.7336 80.6618C57.4535 80.7467 57.1746 80.8292 56.8921 80.9056C56.5974 80.9881 56.3028 81.0657 56.0046 81.1385C53.7861 81.6856 51.5159 81.9942 49.2324 82.059C48.9245 82.0687 48.6142 82.0724 48.3027 82.0724C48.1481 82.0724 47.996 82.0712 47.8415 82.0699C47.7944 82.0699 47.7473 82.0687 47.7002 82.0675C47.5638 82.0639 47.4225 82.0614 47.28 82.0578C44.5246 81.9715 41.7917 81.53 39.1483 80.7443L39.036 80.7115C38.8621 80.6582 38.6895 80.606 38.5168 80.5502C37.7199 80.2968 36.9347 80.0129 36.1612 79.6988C35.5708 79.4599 34.9872 79.2036 34.4105 78.9299C34.4052 78.9284 34.4003 78.926 34.396 78.9226C34.2753 78.8668 34.1533 78.8086 34.0326 78.7492C34.0169 78.7407 34 78.7322 33.9831 78.7237C33.5327 78.5029 33.0872 78.2717 32.6465 78.0299C32.2758 77.1749 31.7542 77.0111 31.4306 76.2592C31.3365 76.0358 31.2684 75.8022 31.2278 75.563C31.2278 75.5606 31.2266 75.5582 31.2266 75.5545C31.2604 76.0057 31.0829 74.754 31.2254 75.5497C31.2242 75.5351 31.223 75.5193 31.2218 75.5011C31.2181 75.4575 31.2133 75.4041 31.2061 75.3374C30.7919 71.2756 30.8185 66.6304 30.6386 62.8026C30.6265 62.5552 30.6141 62.3183 30.6012 62.0919C30.5976 62.0167 30.5927 61.9427 30.5879 61.87C30.5963 61.8481 30.606 61.8251 30.6169 61.8032C30.6192 61.797 30.622 61.7909 30.6253 61.7851C30.6289 61.7775 30.6329 61.7702 30.6374 61.7632C30.6398 61.7596 30.6434 61.7547 30.6458 61.7511C30.6476 61.7469 30.6496 61.7429 30.6519 61.739C30.6627 61.722 30.6748 61.7038 30.6881 61.6868C30.6941 61.6795 30.699 61.6735 30.705 61.6674C30.7092 61.6612 30.714 61.6555 30.7195 61.6504C30.7232 61.6446 30.7277 61.6393 30.7328 61.6347C30.7376 61.6298 30.7424 61.6237 30.7485 61.6177C30.7511 61.6139 30.7543 61.6106 30.7581 61.608C30.7677 61.597 30.7782 61.5868 30.7895 61.5777C30.8326 61.5378 30.8786 61.5014 30.9272 61.4685C30.9441 61.4576 30.9622 61.4467 30.9791 61.4345C31.1008 61.3614 31.2289 61.2997 31.3618 61.2502C31.4077 61.2332 31.4536 61.2174 31.5031 61.2005C31.5212 61.1956 31.5381 61.1895 31.5562 61.1835C31.5828 61.175 31.6093 61.1665 31.6371 61.1604C31.7748 61.1192 31.9233 61.084 32.0838 61.0513C32.1032 61.0476 32.1237 61.044 32.1442 61.0392C32.1732 61.0331 32.2034 61.0282 32.2336 61.0234C32.2746 61.0161 32.3169 61.0088 32.3591 61.0016C32.7177 60.9446 33.1246 60.9021 33.5738 60.8742C33.616 60.8718 33.6583 60.8694 33.7005 60.8669C33.75 60.8645 33.7995 60.8621 33.8503 60.8597C33.8925 60.8572 33.936 60.856 33.9794 60.8548C34.0217 60.8524 34.0652 60.8512 34.1098 60.8499C34.2318 60.8463 34.3574 60.8427 34.4853 60.8402C34.85 60.833 35.2339 60.8354 35.6372 60.8439C35.8243 60.8487 36.0151 60.8536 36.2107 60.8621C36.224 60.8621 36.2361 60.8633 36.2481 60.8633C36.4184 60.8694 36.5898 60.8766 36.7661 60.8863C36.8892 60.8924 37.0136 60.8985 37.138 60.9057C37.2551 60.913 37.3734 60.9203 37.4929 60.9288C37.5859 60.9336 37.6789 60.9409 37.773 60.947C37.8527 60.953 37.9324 60.9591 38.0121 60.964L38.1208 60.9712C38.1799 60.9761 38.2391 60.9797 38.2995 60.9858C38.4323 60.9967 38.5651 61.0076 38.7003 61.0185C38.8343 61.0307 38.9708 61.0428 39.1072 61.0549C39.2437 61.0671 39.3813 61.0804 39.5189 61.0937C39.5334 61.0949 39.5467 61.0962 39.56 61.0974C39.6856 61.1107 39.8111 61.1228 39.9379 61.1362C39.9669 61.1386 39.9971 61.141 40.026 61.1447C40.1469 61.1569 40.2701 61.1712 40.3921 61.1842C40.4296 61.1882 40.4668 61.1922 40.5043 61.1963C40.5999 61.2067 40.6941 61.2158 40.7903 61.2271C40.9171 61.2417 41.0463 61.255 41.1718 61.272C41.2696 61.2829 41.3674 61.2939 41.4652 61.306C41.6186 61.3242 41.7743 61.3436 41.9301 61.3642C41.9892 61.3715 42.0484 61.3788 42.1076 61.3872C42.5519 61.443 43.001 61.5049 43.4574 61.5692C44.1493 61.6674 44.852 61.7741 45.5595 61.8894C46.2682 62.0046 46.981 62.1263 47.6978 62.2544C47.8789 62.2872 48.06 62.3199 48.2423 62.3539C48.3244 62.3696 48.4065 62.3854 48.4886 62.4012C48.6287 62.4266 48.7687 62.4533 48.9088 62.48C49.0488 62.5067 49.1889 62.5334 49.329 62.5613C49.4956 62.594 49.6634 62.6268 49.83 62.6595C50.9275 62.8778 52.019 63.1107 53.0839 63.3545C53.259 63.3945 53.4341 63.4357 53.6079 63.4758C53.9557 63.557 54.3002 63.6395 54.6415 63.7232C54.7356 63.745 54.8286 63.7681 54.9216 63.7911C55.1534 63.8493 55.3852 63.9075 55.6134 63.967L55.6533 63.9779C55.8211 64.0191 55.9853 64.0616 56.1495 64.1052C56.5371 64.2071 56.9182 64.3102 57.2929 64.4145C57.5416 64.4836 57.7875 64.5536 58.0306 64.6243C58.394 64.7298 58.7502 64.8366 59.0967 64.9445C59.1824 64.9712 59.2682 64.9979 59.3527 65.0233C59.6062 65.1022 59.8562 65.1822 60.0989 65.2623C60.292 65.3254 60.4804 65.3896 60.6663 65.4539C60.8523 65.5182 61.0346 65.5825 61.2133 65.6468C61.328 65.688 61.4415 65.7317 61.555 65.7729C61.718 65.8335 61.8785 65.8942 62.0355 65.9548C62.0838 65.973 62.1309 65.9924 62.178 66.0106C62.2082 66.024 62.2371 66.0349 62.2661 66.047C62.3229 66.07 62.3808 66.0919 62.4364 66.1149C62.4931 66.1367 62.5486 66.1598 62.6042 66.184C62.6585 66.2059 62.7141 66.2289 62.7672 66.252C62.8215 66.2738 62.8746 66.2968 62.9278 66.3211C62.9724 66.3393 63.0159 66.3587 63.0582 66.3781C63.1439 66.4157 63.2296 66.4533 63.3129 66.4921C63.354 66.5115 63.395 66.5297 63.4361 66.5491L63.5303 66.5928C63.5435 66.6001 63.5568 66.6061 63.5701 66.6122C63.6003 66.6267 63.6317 66.6425 63.6619 66.6571C63.7319 66.6898 63.8007 66.725 63.8683 66.7577C63.9589 66.8038 64.047 66.8499 64.1315 66.8948C64.2173 66.9409 64.3006 66.987 64.3803 67.0318C64.3935 67.0391 64.4056 67.0464 64.4189 67.0537C64.437 67.0634 64.4551 67.0743 64.4732 67.084C64.5348 67.1192 64.594 67.1555 64.6531 67.1907C64.769 67.2623 64.8789 67.3326 64.9815 67.403C65.0045 67.4187 65.0262 67.4345 65.0491 67.449C65.1252 67.5036 65.1977 67.557 65.2653 67.6116C65.2653 67.6128 65.2653 67.6128 65.2665 67.6128C65.2894 67.6298 65.3111 67.6479 65.3329 67.6649C65.351 67.6819 65.3703 67.6965 65.3884 67.7134C65.4512 67.768 65.5092 67.8202 65.5623 67.8735C65.5801 67.89 65.597 67.9074 65.613 67.9257C65.62 67.9315 65.6265 67.938 65.6323 67.9451C65.6565 67.9694 65.6782 67.9936 65.6987 68.0179C65.7019 68.0212 65.7047 68.0249 65.7072 68.0288C65.7361 68.0627 65.7627 68.0967 65.7881 68.1307C65.8001 68.1476 65.8134 68.1646 65.8243 68.1816C65.8388 68.2022 65.8533 68.2241 65.8653 68.2447C65.8762 68.2617 65.8859 68.2798 65.8955 68.2968C65.9211 68.3405 65.943 68.3864 65.9607 68.4339C65.9743 68.4661 65.9852 68.4993 65.9933 68.5333C66.0025 68.5655 66.0093 68.5984 66.0139 68.6316V68.6316Z" fill="#2F2E41"/>
<path opacity="0.2" d="M66.0141 68.6326C66.0129 68.8449 66.0105 69.142 66.0008 69.5095C65.9996 69.5604 65.9972 69.6126 65.996 69.6659C65.9839 70.1814 65.9658 70.8182 65.9405 71.5374C65.9392 71.581 65.938 71.6235 65.9356 71.6671C65.9018 72.5452 65.8487 73.5677 65.7569 75.1868C65.5867 78.1777 65.2897 75.598 64.9914 76.6471C64.1632 76.1353 63.2552 75.5992 62.2845 75.0486C62.1094 74.9491 61.9327 74.8493 61.7544 74.749C59.813 73.6611 57.6445 72.521 55.3806 71.3918C55.2913 71.347 55.2007 71.3021 55.1114 71.2584C49.9257 68.6835 44.2654 66.179 39.6798 64.5077C38.7947 64.1851 37.9496 63.894 37.1551 63.6381C35.4817 63.1008 34.0352 62.7248 32.922 62.5623C31.7629 62.3925 30.9624 62.4531 30.6388 62.8036C30.6268 62.5562 30.6143 62.3193 30.6014 62.0929C30.5966 62.0177 30.5917 61.9437 30.5869 61.871C30.5944 61.851 30.604 61.8319 30.6134 61.8127C30.6148 61.8099 30.6157 61.807 30.6171 61.8043C30.6194 61.798 30.6222 61.7919 30.6256 61.7861C30.6291 61.7785 30.6331 61.7712 30.6376 61.7642C30.6416 61.7556 30.6464 61.7475 30.6521 61.74C30.663 61.723 30.6751 61.7048 30.6883 61.6878C30.6981 61.6751 30.7086 61.663 30.7197 61.6514C30.7234 61.6456 30.7279 61.6403 30.733 61.6357C30.7378 61.6308 30.7427 61.6248 30.7487 61.6187C30.7513 61.6149 30.7546 61.6116 30.7584 61.609C30.7679 61.598 30.7784 61.5878 30.7898 61.5787C30.8328 61.5389 30.8788 61.5024 30.9274 61.4695C30.9443 61.4586 30.9624 61.4477 30.9793 61.4356C31.101 61.3624 31.2291 61.3007 31.3621 61.2512C31.4079 61.2342 31.4538 61.2185 31.5033 61.2015C31.5214 61.1966 31.5383 61.1906 31.5564 61.1845C31.583 61.176 31.6096 61.1675 31.6373 61.1615C31.775 61.1202 31.9235 61.085 32.0841 61.0523C32.1324 61.0426 32.1831 61.0329 32.2338 61.0244C32.2748 61.0171 32.3171 61.0098 32.3594 61.0026C32.718 60.9456 33.1248 60.9031 33.574 60.8752C33.6163 60.8728 33.6585 60.8704 33.7008 60.8679C33.7503 60.8655 33.7998 60.8631 33.8505 60.8607C33.8927 60.8582 33.9362 60.857 33.9797 60.8558C34.0219 60.8534 34.0654 60.8522 34.1101 60.851C34.232 60.8473 34.3576 60.8437 34.4856 60.8413C34.8502 60.8352 35.2342 60.8376 35.6374 60.8461C35.8246 60.8497 36.0153 60.8558 36.2109 60.8643C36.223 60.8643 36.2363 60.8655 36.2484 60.8655C36.4186 60.8704 36.5913 60.8789 36.7663 60.8873C36.8895 60.8934 37.0138 60.8995 37.1382 60.9068C37.2553 60.914 37.3736 60.9213 37.4932 60.9298C37.5861 60.9346 37.6791 60.9419 37.7733 60.948C37.853 60.9541 37.9327 60.9601 38.0123 60.965C38.1077 60.9722 38.2031 60.9795 38.2997 60.9868C38.4325 60.9977 38.5653 61.0086 38.7006 61.0195C38.8346 61.0317 38.971 61.0438 39.1074 61.0559C39.2439 61.0681 39.3815 61.0814 39.5192 61.0947C39.5337 61.096 39.5469 61.0972 39.5602 61.0984C39.6858 61.1117 39.8114 61.1239 39.9381 61.1372C40.6408 61.2088 41.3641 61.2924 42.1078 61.3883C42.5521 61.4453 43.0021 61.5063 43.4577 61.5714C44.1495 61.6696 44.8522 61.7764 45.5597 61.8904C46.2685 62.0056 46.9812 62.1273 47.698 62.2554C47.8791 62.2882 48.0602 62.3209 48.2425 62.3549C48.4647 62.3961 48.6869 62.4382 48.909 62.481C49.0491 62.5077 49.1891 62.5344 49.3292 62.5623C49.4958 62.595 49.6636 62.6278 49.8303 62.6605C50.9278 62.8788 52.0193 63.1117 53.0842 63.3555C53.2592 63.3955 53.4343 63.4368 53.6082 63.4768C53.9559 63.558 54.3004 63.6405 54.6417 63.7242C54.7359 63.7472 54.8288 63.7703 54.9218 63.7933C55.1548 63.8515 55.3855 63.9098 55.6136 63.968V63.9692C55.6269 63.9716 55.6402 63.9753 55.6535 63.9789C55.8201 64.0213 55.9855 64.0638 56.1497 64.1075C56.5373 64.2093 56.9184 64.312 57.2931 64.4155C57.5419 64.4859 57.7882 64.555 58.0308 64.6253C58.3943 64.7321 58.7504 64.8388 59.097 64.9455C59.1827 64.9722 59.2684 64.9989 59.3529 65.0244C59.6065 65.1044 59.8552 65.1841 60.0991 65.2633C60.2923 65.3264 60.4806 65.3907 60.6666 65.4549C60.8525 65.5192 61.0348 65.5835 61.2135 65.6478C61.3294 65.689 61.4429 65.7315 61.5552 65.7727C61.7194 65.8333 61.8788 65.894 62.0357 65.9558C62.084 65.974 62.1311 65.9934 62.1782 66.0116C62.2664 66.0456 62.3521 66.0808 62.4366 66.1159C62.4933 66.1378 62.5489 66.1608 62.6044 66.1851C62.6588 66.2069 62.7143 66.2299 62.7674 66.253C62.8218 66.2748 62.8749 66.2979 62.928 66.3221C62.9727 66.3403 63.0162 66.3597 63.0584 66.3791C63.1441 66.4167 63.2299 66.4543 63.3132 66.4931C63.3542 66.5125 63.3953 66.5307 63.4363 66.5501L63.5305 66.5938C63.5438 66.6011 63.5571 66.6071 63.5703 66.6132C63.673 66.6617 63.772 66.7102 63.8686 66.7587C63.9591 66.8048 64.0473 66.8509 64.1318 66.8958C64.232 66.9492 64.3274 67.0013 64.4191 67.0547C64.4372 67.0644 64.4554 67.0753 64.4735 67.085C64.535 67.1202 64.5942 67.1566 64.6534 67.1917C64.7693 67.2633 64.8791 67.3336 64.9818 67.404C65.0832 67.4743 65.1774 67.5435 65.2655 67.6126C65.2655 67.6138 65.2655 67.6138 65.2667 67.6138C65.309 67.6478 65.35 67.6817 65.3887 67.7145C65.4515 67.769 65.5094 67.8212 65.5625 67.8746C65.5803 67.891 65.5973 67.9084 65.6132 67.9267C65.6203 67.9326 65.6267 67.9391 65.6326 67.9461C65.6579 67.974 65.6833 68.0019 65.7074 68.0298C65.7364 68.0638 65.763 68.0977 65.7883 68.1317C65.8004 68.1487 65.8137 68.1656 65.8245 68.1826C65.839 68.2032 65.8535 68.2251 65.8656 68.2457C65.8765 68.2627 65.8861 68.2809 65.8958 68.2978C65.9214 68.3416 65.9432 68.3874 65.961 68.4349C65.9742 68.4672 65.9851 68.5005 65.9936 68.5343C66.0027 68.5666 66.0096 68.5994 66.0141 68.6326V68.6326Z" fill="black"/>
</g>
</g>
<defs>
<clipPath id="clip0_4555_112896">
<rect width="96" height="96" fill="white" transform="translate(0.333008)"/>
</clipPath>
<clipPath id="clip1_4555_112896">
<rect width="94.9997" height="69.4062" fill="white" transform="translate(0.333008 12.666)"/>
</clipPath>
</defs>
</svg>
