<svg
  width="16"
  height="16"
  viewBox="0 0 16 16"
  fill="none"
  xmlns="http://www.w3.org/2000/svg">
  <g clip-path="url(#clip0_890_3647)">
    <path
      d="M10.965 5.53376C10.3542 4.92301 9.36572 4.92298 8.75497 5.53373C8.14422 6.14442 8.14413 7.13301 8.75497 7.7438C9.36569 8.35455 10.3542 8.35461 10.965 7.7438C11.5757 7.13311 11.5758 6.14451 10.965 5.53376ZM10.2283 7.00711C10.0247 7.2107 9.69522 7.2107 9.4916 7.00711C9.28807 6.80355 9.28797 6.47405 9.4916 6.27042C9.69519 6.06686 10.0246 6.06676 10.2283 6.27045C10.4319 6.47401 10.4319 6.80355 10.2283 7.00711Z"
      fill="currentColor"/>
    <path
      d="M15.125 1.45294C14.9687 1.26544 14.9062 1.21857 14.626 1.13712C12.2372 0.751028 9.81403 1.529 8.09422 3.24878L6.14063 5.20236C5.12988 4.53387 3.75204 4.64427 2.86264 5.53364L0.652582 7.74373C0.449333 7.94698 0.449145 8.27699 0.652582 8.48042C1.16036 8.98817 1.8273 9.24208 2.4943 9.24208C2.7782 9.24208 3.06198 9.19561 3.33364 9.10361L3.10517 9.78908C3.0428 9.97627 3.09148 10.1826 3.23101 10.3221L3.29214 10.3833C2.36573 10.575 1.61836 11.3087 1.37377 12.2055L0.518364 15.3418C0.469177 15.5222 0.520426 15.7151 0.652582 15.8473C0.785176 15.9798 0.978269 16.0305 1.15799 15.9815L4.29432 15.1261C5.1916 14.8814 5.92494 14.1337 6.1166 13.2077L6.17773 13.2689C6.31741 13.4086 6.52382 13.457 6.71079 13.3947L7.39625 13.1662C7.08813 14.0759 7.29554 15.1234 8.01944 15.8472C8.22269 16.0505 8.55272 16.0507 8.75613 15.8472L10.9662 13.6372C11.8659 12.7374 11.9622 11.3595 11.2978 10.3589L13.2511 8.40558C14.8548 6.80184 15.6396 4.58639 15.425 2.35762C15.394 2.03482 15.3326 1.70206 15.125 1.45294ZM1.8207 8.04892L3.59933 6.2703C4.07957 5.79008 4.7971 5.68839 5.37788 5.96511C4.98226 6.36074 3.99007 7.35292 3.59933 7.74373C3.11911 8.22392 2.40155 8.32576 1.8207 8.04892ZM4.02017 14.121L1.76333 14.7365L2.37883 12.4796C2.63702 11.533 3.83573 10.9274 4.7041 11.7953L4.70451 11.7957C5.57198 12.6636 4.96732 13.8626 4.02017 14.121ZM6.68672 12.3045L4.19526 9.81305L4.5636 8.70805L7.79175 11.9362L6.68672 12.3045ZM10.2295 12.9005L8.45091 14.6791C8.17416 14.0983 8.27588 13.3807 8.75613 12.9004C9.14909 12.5075 10.1482 11.5083 10.5352 11.1214C10.8069 11.6888 10.7207 12.4093 10.2295 12.9005ZM12.5143 7.66889C12.3908 7.79239 8.81963 11.3636 8.7561 11.4271L5.07267 7.74367L8.83088 3.98543C9.36797 3.44834 9.98487 3.01815 10.6509 2.70328L13.7965 5.8488C13.4816 6.51489 13.0514 7.1318 12.5143 7.66889ZM14.1933 4.77233L11.7275 2.30643C12.5715 2.07806 13.4631 2.02018 14.3513 2.14846C14.4796 3.03665 14.4217 3.92824 14.1933 4.77233Z"
      fill="currentColor"/>
  </g>
  <defs>
    <clipPath id="clip0_890_3647">
      <rect
        width="16"
        height="16"
        fill="white"
        transform="translate(0.5)"/>
    </clipPath>
  </defs>
</svg>
