<svg width="97" height="96" viewBox="0 0 97 96" fill="none" xmlns="http://www.w3.org/2000/svg">
<g clip-path="url(#clip0_4555_112883)">
<g clip-path="url(#clip1_4555_112883)">
<path d="M81.9715 79.5601V85.3177C81.9713 85.5355 81.8846 85.7444 81.7305 85.8985C81.5765 86.0526 81.3676 86.1392 81.1497 86.1395H15.8726C15.6548 86.139 15.446 86.0523 15.292 85.8982C15.138 85.7442 15.0513 85.5355 15.0508 85.3177V78.0245C15.1283 77.9423 15.2058 77.8613 15.2856 77.7803C19.6217 73.2856 24.8422 69.7382 30.6178 67.3621C36.3934 64.9859 42.5988 63.8325 48.8425 63.9746C55.0862 64.1167 61.2327 65.5512 66.8943 68.1876C72.5558 70.824 77.6096 74.6051 81.7367 79.2924C81.8165 79.3805 81.894 79.4709 81.9715 79.5601Z" fill="#6C63FF"/>
<path d="M60.4277 16.3994C60.362 16.3595 60.2962 16.3208 60.2305 16.2832H53.3694C53.3201 16.3607 53.2731 16.4394 53.2273 16.518H60.625C60.5592 16.4781 60.4935 16.4394 60.4277 16.3994ZM15.0508 39.5834V41.3327C15.0801 41.335 15.1107 41.3351 15.14 41.3362L15.0813 44.6987L15.0508 44.6823V45.0133L15.0754 45.0263L15.0508 46.4363V51.2968H15.2856V38.7909C15.2198 39.0445 15.1416 39.3086 15.0508 39.5834V39.5834ZM60.4277 16.3994C60.362 16.3595 60.2962 16.3208 60.2305 16.2832H53.3694C53.3201 16.3607 53.2731 16.4394 53.2273 16.518H60.625C60.5592 16.4781 60.4935 16.4394 60.4277 16.3994ZM81.1497 16.2832H15.8726C15.6547 16.2834 15.4458 16.3701 15.2918 16.5242C15.1377 16.6783 15.051 16.8872 15.0508 17.105V85.3172C15.0513 85.5351 15.138 85.7438 15.292 85.8978C15.446 86.0519 15.6548 86.1386 15.8726 86.1391H81.1497C81.3676 86.1388 81.5765 86.0522 81.7305 85.8981C81.8846 85.744 81.9713 85.5351 81.9715 85.3172V17.105C81.9713 16.8872 81.8846 16.6783 81.7305 16.5242C81.5765 16.3701 81.3676 16.2834 81.1497 16.2832V16.2832ZM81.7367 85.3172C81.7367 85.4729 81.6748 85.6222 81.5647 85.7323C81.4546 85.8423 81.3054 85.9042 81.1497 85.9043H15.8726C15.7169 85.9042 15.5677 85.8423 15.4576 85.7323C15.3475 85.6222 15.2856 85.4729 15.2856 85.3172V17.105C15.2858 16.9494 15.3478 16.8003 15.4578 16.6902C15.5678 16.5802 15.717 16.5183 15.8726 16.518H81.1497C81.3053 16.5183 81.4545 16.5802 81.5645 16.6902C81.6745 16.8003 81.7365 16.9494 81.7367 17.105V85.3172Z" fill="#3F3D56"/>
<path d="M42.1153 76.9131L39.7869 76.9774C39.4333 76.9956 39.0833 76.8975 38.7907 76.6981C38.5378 76.51 38.4218 76.2558 38.4727 76.0004L38.9309 73.6978C39.0172 73.2634 39.5495 72.935 40.1965 72.9171L41.4823 72.8816C42.1293 72.8638 42.6789 73.1623 42.7891 73.5912L43.3737 75.8651C43.4385 76.1172 43.3367 76.3775 43.0947 76.5793C42.8134 76.7945 42.4695 76.9118 42.1153 76.9131V76.9131Z" fill="#3F3D56"/>
<path d="M56.2784 76.8487L53.95 76.913C53.5963 76.9311 53.2464 76.8331 52.9537 76.6337C52.7009 76.4456 52.5849 76.1913 52.6358 75.936L53.0939 73.6333C53.1803 73.1989 53.7126 72.8705 54.3596 72.8527L55.6454 72.8172C56.2924 72.7993 56.842 73.0978 56.9522 73.5268L57.5368 75.8006C57.6016 76.0528 57.4998 76.3131 57.2578 76.5148C56.9765 76.7301 56.6326 76.8473 56.2784 76.8487V76.8487Z" fill="#3F3D56"/>
<path d="M34.0299 57.2983C33.9236 57.2524 33.836 57.1717 33.7818 57.0693C33.7276 56.9669 33.7099 56.8491 33.7318 56.7354C33.7536 56.6216 33.8136 56.5187 33.9019 56.4437C33.9902 56.3687 34.1014 56.3261 34.2172 56.3229L60.6882 55.592C60.7549 55.5901 60.8214 55.6014 60.8837 55.6253C60.9461 55.6491 61.0032 55.685 61.0517 55.7308C61.1002 55.7767 61.1392 55.8317 61.1664 55.8926C61.1937 55.9536 61.2087 56.0193 61.2105 56.086V56.0861C61.2141 56.2208 61.164 56.3515 61.0714 56.4494C60.9788 56.5473 60.8511 56.6045 60.7163 56.6084L60.7163 56.6083L34.2453 57.3393C34.1714 57.3415 34.0979 57.3275 34.0299 57.2983Z" fill="#3F3D56"/>
<path d="M43.7991 48.5352L36.2324 48.7441L36.9379 74.2911L44.5045 74.0822L43.7991 48.5352Z" fill="#4C4C62"/>
<path d="M43.9916 48.0762L42.5371 52.0385L42.5384 70.0905L44.3107 70.5988L43.9916 48.0762Z" fill="#4C4C62"/>
<path d="M39.977 41.8598C38.5614 41.9 37.4813 44.3499 37.5073 45.3059L37.5551 47.0366L42.6809 46.8951L42.6331 45.1643C42.6062 44.2084 41.3926 41.8219 39.977 41.8598Z" fill="#3F3D56"/>
<path d="M36.3308 59.3239C36.0663 59.3309 35.8099 59.2327 35.6177 59.0508C35.4255 58.869 35.3133 58.6183 35.3057 58.3539L35.2279 55.5372C35.2206 55.2726 35.3187 55.016 35.5006 54.8238C35.6825 54.6315 35.9334 54.5194 36.1979 54.5121C36.4625 54.5048 36.7191 54.6029 36.9114 54.7848C37.1036 54.9667 37.2157 55.2175 37.223 55.4821L37.3008 58.2988C37.3078 58.5632 37.2096 58.8197 37.0278 59.0119C36.8459 59.2041 36.5953 59.3163 36.3308 59.3239V59.3239Z" fill="#3F3D56"/>
<path d="M38.2516 48.8071L38.2158 46.9457L38.704 46.9336L38.7398 48.7891L39.1823 75.8328L38.694 75.8463" fill="#9B9ED3"/>
<path d="M44.6671 53.1589L35.8924 53.4012C35.0543 52.3792 34.9782 48.025 36.7273 47.1963L37.4132 46.0316L42.7014 45.7734L43.3194 46.9997C44.1895 47.7401 44.6381 52.0671 44.6671 53.1589Z" fill="#4C4C62"/>
<path d="M41.3642 51.0702L39.1452 51.1315C38.717 51.1433 38.353 50.5878 38.3338 49.8933C38.3146 49.1988 38.6475 48.6241 39.0757 48.6122L41.2946 48.551C41.7228 48.5391 42.0869 49.0947 42.106 49.7892C42.1252 50.4836 41.7924 51.0584 41.3642 51.0702Z" fill="#6C63FF"/>
<path d="M37.0674 63.6328L32.4934 66.8638L31.6943 74.1488L37.0301 72.366L37.0674 63.6328Z" fill="#4C4C62"/>
<path d="M58.4055 48.2247L50.8389 48.4336L51.5443 73.9806L59.111 73.7716L58.4055 48.2247Z" fill="#4C4C62"/>
<path d="M51.0205 48.1621L52.5774 52.0853L53.0446 70.1314L51.286 70.6854L51.0205 48.1621Z" fill="#4C4C62"/>
<path d="M62.19 41.1305C62.7377 41.1305 63.1818 40.5351 63.1818 39.8006C63.1818 39.0661 62.7377 38.4707 62.19 38.4707C61.6423 38.4707 61.1982 39.0661 61.1982 39.8006C61.1982 40.5351 61.6423 41.1305 62.19 41.1305Z" fill="#4C4C62"/>
<path d="M67.3746 60.6559C67.9223 60.6559 68.3663 60.0605 68.3663 59.326C68.3663 58.5915 67.9223 57.9961 67.3746 57.9961C66.8268 57.9961 66.3828 58.5915 66.3828 59.326C66.3828 60.0605 66.8268 60.6559 67.3746 60.6559Z" fill="#4C4C62"/>
<path d="M28.7818 56.9235C29.3295 56.9235 29.7736 56.3281 29.7736 55.5936C29.7736 54.8591 29.3295 54.2637 28.7818 54.2637C28.2341 54.2637 27.79 54.8591 27.79 55.5936C27.79 56.3281 28.2341 56.9235 28.7818 56.9235Z" fill="#4C4C62"/>
<path d="M54.436 41.5512C53.0204 41.5914 51.9403 44.0413 51.9663 44.9973L52.0141 46.728L57.1399 46.5865L57.0921 44.8557C57.0652 43.8998 55.8516 41.5133 54.436 41.5512Z" fill="#3F3D56"/>
<path d="M55.901 49.3893L55.8652 47.5278L56.3534 47.5156L56.3892 49.3712L56.8317 76.4149L56.3434 76.4284" fill="#9B9ED3"/>
<path d="M59.1252 52.8504L50.3505 53.0927C50.1975 52.1679 50.3954 47.8525 51.1854 46.8877L51.8713 45.723L57.1595 45.4648L57.7775 46.6911C59.3389 46.8184 59.885 51.059 59.1252 52.8504Z" fill="#4C4C62"/>
<path d="M55.8337 51.1503L53.6147 51.2116C53.1865 51.2234 52.8201 50.5807 52.7979 49.7791C52.7758 48.9774 53.1062 48.3154 53.5344 48.3036L55.7534 48.2423C56.1816 48.2305 56.548 48.8732 56.5702 49.6749C56.5923 50.4765 56.2619 51.1385 55.8337 51.1503Z" fill="#6C63FF"/>
<path d="M58.7802 61.7656L63.202 65.2018L63.6676 72.5158L58.4189 70.4913L58.7802 61.7656Z" fill="#4C4C62"/>
<path d="M57.5449 27.8888C52.8003 27.8888 47.3475 22.6236 42.5231 25.1252C27.9162 32.6994 29.9269 20.0252 25.7305 15.3115L25.8682 15.0352C29.0452 27.1535 31.9196 46.4635 42.5865 24.8038C45.2586 19.3781 54.0282 27.7647 59.1903 27.5173L59.1993 27.8495C58.6541 27.8758 58.1027 27.8889 57.5449 27.8888Z" fill="#29293A"/>
<path d="M68.9329 28.6333C65.1507 31.4979 57.625 30.5929 55.2896 35.4999C48.2185 50.3569 42.1691 39.0395 35.9779 37.8156L35.9209 37.5121C42.1187 38.0261 48.7667 37.2286 55.1461 35.2054C60.9112 33.3772 66.0547 30.6576 70.0203 27.3438L70.228 27.6031C69.8093 27.9532 69.3776 28.2966 68.9329 28.6333Z" fill="#29293A"/>
<path d="M27.7906 27.9821C28.3383 27.9821 28.7824 27.3866 28.7824 26.6522C28.7824 25.9177 28.3383 25.3223 27.7906 25.3223C27.2429 25.3223 26.7988 25.9177 26.7988 26.6522C26.7988 27.3866 27.2429 27.9821 27.7906 27.9821Z" fill="#4C4C62"/>
<path d="M58.5504 17.1793C59.0981 17.1793 59.5421 16.5839 59.5421 15.8494C59.5421 15.1149 59.0981 14.5195 58.5504 14.5195C58.0026 14.5195 57.5586 15.1149 57.5586 15.8494C57.5586 16.5839 58.0026 17.1793 58.5504 17.1793Z" fill="#4C4C62"/>
<path d="M26.7984 45.0543C27.3461 45.0543 27.7902 44.4589 27.7902 43.7244C27.7902 42.9899 27.3461 42.3945 26.7984 42.3945C26.2507 42.3945 25.8066 42.9899 25.8066 43.7244C25.8066 44.4589 26.2507 45.0543 26.7984 45.0543Z" fill="#4C4C62"/>
<path d="M36.8702 33.3486C36.4168 33.6507 35.9527 32.9317 36.4149 32.643C36.8683 32.3409 37.3323 33.0599 36.8702 33.3486Z" fill="#4C4C62"/>
<path d="M53.6593 9.75095C53.2059 10.0531 52.7418 9.33402 53.2039 9.04533C53.6573 8.74324 54.1214 9.46228 53.6593 9.75095Z" fill="#4C4C62"/>
<path d="M63.5537 23.7417L63.2652 23.6784L63.3284 23.3898L63.1361 23.3477L63.0728 23.6362L62.7843 23.5731L62.7422 23.7654L63.0306 23.8287L62.9675 24.1171L63.1598 24.1593L63.2231 23.8707L63.5115 23.934L63.5537 23.7417Z" fill="#4C4C62"/>
<path d="M37.112 14.0716C37.8059 14.0716 38.3685 13.509 38.3685 12.8151C38.3685 12.1212 37.8059 11.5586 37.112 11.5586C36.418 11.5586 35.8555 12.1212 35.8555 12.8151C35.8555 13.509 36.418 14.0716 37.112 14.0716Z" fill="#FF6584"/>
<path d="M46.3032 11.2251C44.8876 11.2653 43.8075 13.7151 43.8335 14.6711L43.8813 16.4018L49.007 16.2603L48.9592 14.5296C48.9324 13.5736 47.7188 11.1871 46.3032 11.2251Z" fill="#3F3D56"/>
<path d="M49.3556 76.7627L47.0272 76.827C46.6735 76.8452 46.3236 76.7471 46.0309 76.5477C45.778 76.3596 45.662 76.1054 45.7129 75.85L46.1711 73.5474C46.2574 73.113 46.7898 72.7846 47.4367 72.7667L48.7226 72.7312C49.3695 72.7134 49.9192 73.0119 50.0294 73.4409L50.6139 75.7147C50.6788 75.9668 50.577 76.2271 50.3349 76.4289C50.0537 76.6441 49.7097 76.7614 49.3556 76.7627V76.7627Z" fill="#3F3D56"/>
<path d="M50.3938 22.2422L42.8271 22.4512L44.2531 74.0915L51.8198 73.8825L50.3938 22.2422Z" fill="#4C4C62"/>
<path d="M47.3659 47.2407L47.3301 45.3793L47.8182 45.3672L47.8541 47.2227L48.2966 74.2664L47.8083 74.2799" fill="#9B9ED3"/>
<path d="M51.8835 26.969L41.631 27.2521C41.4523 26.1716 41.6835 21.1295 42.6065 20.0021L42.8594 18.6564L49.9385 18.4609L50.3089 19.7725C51.3254 20.6375 51.8496 25.6933 51.8835 26.969Z" fill="#4C4C62"/>
<path d="M50.162 18.6207L42.8568 18.8224C42.5871 18.8298 42.3645 18.6883 42.3595 18.5062C42.3588 18.4799 42.3626 18.4538 42.3708 18.4289L43.5055 14.9331C43.5541 14.7834 43.7475 14.6735 43.9733 14.6672L48.8179 14.5335C49.0437 14.5272 49.2429 14.6263 49.2996 14.7731L50.6255 18.2009C50.6933 18.3762 50.5367 18.5587 50.2757 18.6084C50.2382 18.6155 50.2002 18.6196 50.162 18.6207V18.6207Z" fill="#4C4C62"/>
<path d="M43.5773 47.0025C43.5113 46.9743 43.449 46.9382 43.3917 46.8951C43.3095 46.8375 43.2416 46.7618 43.1932 46.6738C43.1448 46.5859 43.1171 46.488 43.1123 46.3878L42.8469 36.7749C42.836 36.377 43.2256 36.0422 43.7154 36.0287L50.2553 35.8481C50.7452 35.8345 51.1526 36.1473 51.1636 36.5453L51.429 46.1581C51.4298 46.2585 51.4076 46.3577 51.3641 46.4482C51.3207 46.5387 51.257 46.618 51.1782 46.6801C51.0035 46.8224 50.7858 46.9014 50.5605 46.9043L44.0207 47.0849C43.8687 47.09 43.7174 47.0619 43.5773 47.0025Z" fill="#3F3D56"/>
<path d="M47.7639 18.0024L45.5449 18.0637C45.1167 18.0755 44.7546 17.5917 44.7379 16.9854C44.7212 16.3791 45.056 15.876 45.4842 15.8642L47.7031 15.8029C48.1313 15.7911 48.4934 16.2749 48.5101 16.8812C48.5269 17.4875 48.1921 17.9906 47.7639 18.0024Z" fill="#6C63FF"/>
<path d="M58.5935 58.7021C58.329 58.7091 58.0725 58.6109 57.8804 58.4291C57.6882 58.2472 57.576 57.9966 57.5684 57.7321L57.4906 54.9154C57.4835 54.651 57.5817 54.3945 57.7636 54.2024C57.9454 54.0103 58.1962 53.8983 58.4606 53.891C58.7251 53.8837 58.9816 53.9817 59.1738 54.1635C59.3661 54.3452 59.4782 54.5959 59.4857 54.8604L59.5635 57.677C59.5705 57.9415 59.4723 58.1979 59.2905 58.3901C59.1086 58.5823 58.858 58.6945 58.5935 58.7021Z" fill="#3F3D56"/>
<path d="M22.1468 66.6878C20.9438 66.6878 20.1618 66.3889 19.8156 65.7947C19.133 64.6229 20.2762 62.5668 23.2134 59.6837L23.4602 59.935C20.7318 62.6133 19.5456 64.6313 20.1199 65.6174C20.4834 66.2411 21.565 66.4647 23.2486 66.2636C24.9199 66.0641 27.1347 65.4694 29.8317 64.4961C35.3839 62.4923 42.3497 59.1123 49.4459 54.9787C56.5419 50.8453 62.9182 46.4532 67.4002 42.6119C68.2611 41.8739 69.0424 41.164 69.7224 40.502C70.6151 39.6541 71.4385 38.7363 72.1851 37.7574C73.1904 36.3923 73.5297 35.3411 73.1663 34.7172C72.5593 33.6753 70.0096 33.7733 65.9863 34.9935L65.8841 34.6564C70.2006 33.3475 72.7532 33.3082 73.4707 34.54C73.9165 35.3053 73.5794 36.4581 72.4687 37.9663C71.7108 38.9608 70.8746 39.8931 69.9681 40.7544C69.2828 41.4216 68.496 42.1365 67.6294 42.8793C63.1317 46.7341 56.737 51.1392 49.6232 55.283C42.5092 59.427 35.5228 62.8167 29.9513 64.8274C27.2292 65.8098 24.9881 66.4107 23.2903 66.6133C22.9109 66.6606 22.5291 66.6855 22.1468 66.6878V66.6878Z" fill="#4C4C62"/>
<path d="M50.3604 25.3223L54.7821 28.7585L55.2477 36.0724L49.999 34.0479L50.3604 25.3223Z" fill="#4C4C62"/>
<path d="M43.6813 25.3223L39.2596 28.7585L38.7939 36.0724L44.0426 34.0479L43.6813 25.3223Z" fill="#4C4C62"/>
<path d="M46.1764 19.9888L46.1406 18.1273L46.6288 18.1152L46.6646 19.9708L47.1071 23.5336L46.6188 23.5471" fill="#3F3D56"/>
<path d="M23.8999 34.7547C24.3568 34.5778 24.6275 34.1767 24.5045 33.8588C24.3814 33.541 23.9113 33.4267 23.4543 33.6036C22.9974 33.7804 22.7267 34.1815 22.8498 34.4994C22.9728 34.8173 23.443 34.9316 23.8999 34.7547Z" fill="#4C4C62"/>
<path d="M29.6538 34.0164C30.1108 33.8395 30.3814 33.4384 30.2584 33.1206C30.1353 32.8027 29.6652 32.6884 29.2082 32.8653C28.7513 33.0422 28.4806 33.4432 28.6037 33.7611C28.7267 34.079 29.1969 34.1933 29.6538 34.0164Z" fill="#4C4C62"/>
<path d="M23.4019 39.6609C23.8588 39.484 24.1295 39.083 24.0064 38.7651C23.8834 38.4472 23.4132 38.3329 22.9563 38.5098C22.4993 38.6867 22.2287 39.0878 22.3517 39.4056C22.4748 39.7235 22.9449 39.8378 23.4019 39.6609Z" fill="#4C4C62"/>
<path d="M21.7375 41.8276C21.9471 41.778 22.0592 41.4935 21.9879 41.1921C21.9166 40.8908 21.6888 40.6867 21.4792 40.7363C21.2695 40.7859 21.1574 41.0705 21.2288 41.3718C21.3001 41.6731 21.5278 41.8772 21.7375 41.8276Z" fill="#4C4C62"/>
<path d="M21.7033 45.4936C21.9129 45.444 22.025 45.1595 21.9537 44.8581C21.8824 44.5568 21.6546 44.3527 21.445 44.4023C21.2354 44.452 21.1233 44.7365 21.1946 45.0378C21.2659 45.3392 21.4937 45.5432 21.7033 45.4936Z" fill="#4C4C62"/>
<path d="M26.7521 37.8999C26.9617 37.8502 27.0739 37.5657 27.0025 37.2644C26.9312 36.963 26.7035 36.759 26.4938 36.8086C26.2842 36.8582 26.1721 37.1427 26.2434 37.4441C26.3147 37.7454 26.5425 37.9495 26.7521 37.8999Z" fill="#4C4C62"/>
<path d="M23.7228 37.1635C23.9324 37.1139 24.0446 36.8294 23.9732 36.5281C23.9019 36.2267 23.6742 36.0227 23.4645 36.0723C23.2549 36.1219 23.1428 36.4064 23.2141 36.7077C23.2854 37.0091 23.5132 37.2131 23.7228 37.1635Z" fill="#4C4C62"/>
<path d="M26.9338 33.7905C27.1434 33.7409 27.2555 33.4564 27.1842 33.155C27.1129 32.8537 26.8851 32.6496 26.6755 32.6992C26.4658 32.7488 26.3537 33.0333 26.425 33.3347C26.4964 33.636 26.7241 33.8401 26.9338 33.7905Z" fill="#4C4C62"/>
<path d="M74.2043 51.3141C74.6777 51.188 74.9905 50.8187 74.9027 50.4894C74.815 50.16 74.3601 49.9952 73.8866 50.1213C73.4131 50.2474 73.1004 50.6166 73.1881 50.946C73.2758 51.2754 73.7308 51.4402 74.2043 51.3141Z" fill="#4C4C62"/>
<path d="M68.4054 51.4215C68.8789 51.2954 69.1916 50.9262 69.1039 50.5968C69.0162 50.2674 68.5613 50.1026 68.0878 50.2287C67.6143 50.3548 67.3016 50.724 67.3893 51.0534C67.477 51.3828 67.932 51.5476 68.4054 51.4215Z" fill="#4C4C62"/>
<path d="M75.2345 46.4899C75.708 46.3638 76.0207 45.9945 75.933 45.6651C75.8453 45.3358 75.3904 45.171 74.9169 45.2971C74.4434 45.4232 74.1307 45.7924 74.2184 46.1218C74.3061 46.4512 74.7611 46.6159 75.2345 46.4899Z" fill="#4C4C62"/>
<path d="M76.945 44.4379C77.1588 44.4114 77.3012 44.1408 77.2631 43.8335C77.225 43.5262 77.0208 43.2985 76.807 43.3251C76.5932 43.3516 76.4508 43.6222 76.4889 43.9295C76.527 44.2368 76.7312 44.4644 76.945 44.4379Z" fill="#4C4C62"/>
<path d="M77.3786 40.7973C77.5924 40.7708 77.7348 40.5002 77.6967 40.1929C77.6586 39.8856 77.4544 39.6579 77.2406 39.6844C77.0268 39.7109 76.8844 39.9816 76.9225 40.2889C76.9606 40.5962 77.1648 40.8238 77.3786 40.7973Z" fill="#4C4C62"/>
<path d="M71.5329 47.7954C71.7467 47.7689 71.8891 47.4982 71.851 47.1909C71.8129 46.8836 71.6087 46.656 71.3949 46.6825C71.1811 46.709 71.0387 46.9796 71.0768 47.2869C71.1149 47.5942 71.3191 47.8219 71.5329 47.7954Z" fill="#4C4C62"/>
<path d="M74.4645 48.8559C74.6783 48.8294 74.8207 48.5588 74.7826 48.2515C74.7445 47.9442 74.5403 47.7165 74.3265 47.743C74.1128 47.7695 73.9703 48.0401 74.0084 48.3475C74.0465 48.6548 74.2507 48.8824 74.4645 48.8559Z" fill="#4C4C62"/>
<path d="M70.904 51.8618C71.1178 51.8353 71.2602 51.5646 71.2221 51.2573C71.184 50.95 70.9798 50.7224 70.766 50.7489C70.5522 50.7754 70.4098 51.046 70.4479 51.3533C70.486 51.6606 70.6902 51.8883 70.904 51.8618Z" fill="#4C4C62"/>
<path d="M85.0401 70.4028C83.5241 70.4028 81.8626 70.3455 80.0555 70.2309C70.7084 69.6374 58.6012 67.5737 45.9639 64.4203C33.3268 61.2669 21.6693 57.4002 13.1393 53.5329C8.984 51.6489 5.79486 49.8656 3.66054 48.2323C1.40084 46.5033 0.412416 44.9962 0.722609 43.753C1.32701 41.3311 6.67867 40.8012 11.0617 40.7832L11.0632 41.1354C5.04412 41.1601 1.49314 42.1201 1.0644 43.8383C0.518246 46.0268 4.9724 49.4433 13.2847 53.2121C21.796 57.0709 33.432 60.9302 46.0492 64.0787C58.6664 67.227 70.7514 69.2871 80.0778 69.8794C89.1859 70.458 94.7233 69.5345 95.2694 67.346C95.7228 65.529 92.7336 62.8523 86.8527 59.8089L87.0146 59.4961C91.2878 61.7075 96.2479 64.8793 95.6112 67.4313C95.3009 68.6745 93.7203 69.5405 90.9132 70.0052C89.313 70.27 87.3476 70.4028 85.0401 70.4028Z" fill="#6C63FF"/>
</g>
</g>
<defs>
<clipPath id="clip0_4555_112883">
<rect width="96" height="96" fill="white" transform="translate(0.666992)"/>
</clipPath>
<clipPath id="clip1_4555_112883">
<rect width="94.9997" height="77.1675" fill="white" transform="translate(0.666992 8.97266)"/>
</clipPath>
</defs>
</svg>
