<svg width="171" height="44" viewBox="0 0 171 44" fill="none" xmlns="http://www.w3.org/2000/svg">
    <path d="M7.60718 4.29287C8.40423 4.96342 8.93238 5.90247 9.09352 6.93553H6.09703C6.02932 6.53828 5.81912 6.17989 5.5063 5.92835C5.17784 5.67471 4.7719 5.54413 4.35821 5.55905C4.06455 5.53705 3.77263 5.6203 3.53405 5.79405C3.43869 5.87636 3.36365 5.97988 3.31487 6.09642C3.26609 6.21295 3.2449 6.33931 3.25298 6.46551C3.25341 6.62624 3.30304 6.78292 3.3951 6.91423C3.48717 7.04553 3.6172 7.14508 3.76748 7.19931C4.2895 7.41504 4.8323 7.57576 5.38721 7.67892C6.05428 7.82941 6.71139 8.02163 7.3547 8.25446C7.87113 8.456 8.3284 8.78601 8.68382 9.21368C9.08498 9.72109 9.28524 10.3601 9.24596 11.0074C9.25887 11.5786 9.09214 12.1393 8.76958 12.6093C8.40776 13.1059 7.91162 13.4872 7.34041 13.7076C6.65004 13.9848 5.91111 14.1186 5.16807 14.1009C3.96432 14.1574 2.77464 13.821 1.77618 13.1417C1.35003 12.8201 0.992798 12.4152 0.725927 11.9512C0.459055 11.4872 0.288041 10.9737 0.223145 10.4415H3.31015C3.32728 10.648 3.38851 10.8483 3.48964 11.0287C3.59077 11.2092 3.72942 11.3655 3.89611 11.487C4.27795 11.7367 4.72743 11.8607 5.18236 11.8419C5.47902 11.8643 5.77317 11.7735 6.00651 11.5878C6.09878 11.504 6.17174 11.4009 6.22029 11.2857C6.26884 11.1706 6.29181 11.0461 6.28758 10.9211C6.29353 10.7518 6.24664 10.5849 6.1535 10.4438C6.06036 10.3027 5.92566 10.1946 5.76832 10.1345C5.22594 9.92576 4.66642 9.76528 4.09619 9.65492C3.44892 9.52674 2.81199 9.3504 2.19063 9.12735C1.68806 8.93847 1.24195 8.62309 0.894854 8.21129C0.506912 7.71839 0.315022 7.0978 0.356533 6.47031C0.344622 6.03089 0.434911 5.59475 0.62019 5.1967C0.805469 4.79865 1.08061 4.44973 1.42364 4.17777C2.29772 3.54284 3.36343 3.23267 4.43919 3.30008C5.5785 3.24407 6.70074 3.59576 7.60718 4.29287Z"
          fill="var(--fg-base--default)"/>
    <path d="M21.6064 3.42969V13.9811H18.386V12.0627C18.0831 12.6707 17.6115 13.1772 17.0283 13.5207C16.4016 13.8936 15.6839 14.0829 14.956 14.0675C14.4209 14.0912 13.8872 13.9956 13.3931 13.7875C12.8989 13.5794 12.4566 13.2639 12.0977 12.8636C11.3612 11.9311 10.9915 10.7582 11.0592 9.56871V3.42969H14.2462V9.14665C14.2078 9.75418 14.406 10.3529 14.7988 10.8157C14.989 11.0173 15.2204 11.175 15.477 11.2777C15.7336 11.3803 16.0094 11.4256 16.2852 11.4104C16.5713 11.4255 16.8572 11.3776 17.123 11.2699C17.3888 11.1622 17.628 10.9974 17.8239 10.7869C18.2259 10.2874 18.4265 9.65394 18.386 9.01236V3.42969H21.6064Z"
          fill="var(--fg-base--default)"/>
    <path d="M32.8367 3.95199C33.5388 4.40829 34.0987 5.05502 34.4516 5.81768C34.8401 6.72665 35.0405 7.7058 35.0405 8.69535C35.0405 9.68489 34.8401 10.664 34.4516 11.573C34.1003 12.3405 33.5404 12.9923 32.8367 13.4531C32.1445 13.8883 31.3422 14.1131 30.5262 14.1006C29.7995 14.1154 29.0838 13.9207 28.4634 13.5394C27.9014 13.1881 27.4632 12.6681 27.2105 12.0526V13.9711H24.0044V0H27.2105V5.33807C27.4629 4.72118 27.9011 4.19951 28.4634 3.84648C29.0853 3.47027 29.8009 3.28059 30.5262 3.29972C31.343 3.28641 32.1459 3.51308 32.8367 3.95199ZM27.8393 6.82966C27.4201 7.36267 27.1919 8.02264 27.1919 8.70254C27.1919 9.38244 27.4201 10.0424 27.8393 10.5754C28.2816 11.0206 28.8813 11.2707 29.5067 11.2707C30.1321 11.2707 30.7318 11.0206 31.1741 10.5754C31.5788 10.0306 31.7975 9.36851 31.7975 8.68815C31.7975 8.0078 31.5788 7.34571 31.1741 6.80088C30.7288 6.3615 30.1302 6.11538 29.5067 6.11538C28.8832 6.11538 28.2846 6.3615 27.8393 6.80088V6.82966Z"
          fill="var(--fg-base--default)"/>
    <path d="M43.8724 4.29255C44.6696 4.96373 45.1991 5.90219 45.3635 6.93521H42.367C42.2977 6.53858 42.0878 6.18074 41.7763 5.92803C41.446 5.6744 41.0386 5.54389 40.6235 5.55873C40.3299 5.53756 40.0382 5.62072 39.7993 5.79373C39.7048 5.87674 39.6303 5.98038 39.5816 6.09674C39.5329 6.2131 39.5112 6.33911 39.5182 6.46519C39.5187 6.62591 39.5683 6.7826 39.6604 6.91391C39.7524 7.04521 39.8824 7.14476 40.0327 7.19899C40.555 7.41401 41.0977 7.57472 41.6525 7.6786C42.3197 7.82845 42.9768 8.02068 43.6199 8.25414C44.1384 8.45441 44.5975 8.78457 44.9538 9.21336C45.3513 9.72252 45.5496 10.3607 45.5112 11.0071C45.5241 11.5783 45.3574 12.1389 45.0348 12.609C44.6804 13.1029 44.1926 13.4841 43.6295 13.7073C42.9394 13.9854 42.2003 14.1192 41.4571 14.1006C40.2535 14.1557 39.0643 13.8194 38.0652 13.1414C37.6391 12.8198 37.2819 12.4148 37.015 11.9508C36.7481 11.4868 36.5771 10.9733 36.5122 10.4412H39.604C39.6169 10.6464 39.6749 10.8462 39.7738 11.0262C39.8726 11.2061 40.0099 11.3618 40.1756 11.4819C40.5554 11.7324 41.0036 11.8565 41.4571 11.8368C41.7539 11.8601 42.0484 11.7693 42.2813 11.5826C42.3743 11.4995 42.4478 11.3965 42.4965 11.2812C42.5451 11.1659 42.5676 11.0411 42.5624 10.916C42.5687 10.7473 42.5225 10.5808 42.4302 10.4397C42.338 10.2987 42.2043 10.1902 42.0479 10.1294C41.504 9.92009 40.9429 9.7596 40.371 9.6498C39.724 9.52041 39.0871 9.34409 38.4654 9.12223C37.9643 8.93321 37.5197 8.61778 37.1744 8.20618C36.7893 7.71898 36.5959 7.10601 36.6313 6.48437C36.6183 6.04478 36.708 5.60827 36.8934 5.21004C37.0788 4.81181 37.3545 4.46303 37.6984 4.19184C38.5718 3.55546 39.638 3.24512 40.714 3.31415C41.8486 3.25424 42.9675 3.60087 43.8724 4.29255Z"
          fill="var(--fg-base--default)"/>
    <path d="M53.3964 11.1852V13.9574H51.9672C50.9345 14.0206 49.9153 13.694 49.1089 13.0413C48.4324 12.4322 48.0894 11.4202 48.0894 10.015V6.14931H46.6841V3.42992H48.0894V0.849609H51.2955V3.42992H53.3917V6.14931H51.2955V10.0725C51.2784 10.2261 51.2919 10.3816 51.3353 10.5298C51.3786 10.6781 51.451 10.8161 51.548 10.9358C51.7895 11.127 52.0952 11.2164 52.4008 11.1852H53.3964Z"
          fill="var(--fg-base--default)"/>
    <path d="M60.132 3.88389C60.7534 3.51417 61.4636 3.32337 62.1853 3.33233V6.78074H61.2659C60.5658 6.73871 59.8718 6.93278 59.2936 7.33229C59.0399 7.5624 58.8438 7.8496 58.7213 8.17049C58.5988 8.49137 58.5533 8.83685 58.5885 9.17879V13.9749H55.3872V3.42346H58.5885V5.40425C58.9745 4.78022 59.5039 4.25877 60.132 3.88389Z"
          fill="var(--fg-base--default)"/>
    <path d="M69.7524 3.84728C70.3165 4.20352 70.76 4.72361 71.0243 5.33888V3.42043H74.1971V13.9719H71.0148V12.0534C70.7501 12.6673 70.3066 13.1857 69.7429 13.5402C69.121 13.9164 68.4054 14.1061 67.6801 14.087C66.8626 14.0996 66.0587 13.8748 65.3648 13.4395C64.6637 12.9771 64.1058 12.3256 63.7546 11.5594C63.3628 10.6513 63.1606 9.67183 63.1606 8.68176C63.1606 7.6917 63.3628 6.7122 63.7546 5.8041C64.1074 5.04277 64.6653 4.39637 65.3648 3.93841C66.0573 3.49937 66.8618 3.27273 67.6801 3.28614C68.41 3.26949 69.1293 3.46426 69.7524 3.84728ZM67.0512 6.80648C66.6465 7.35131 66.4278 8.0134 66.4278 8.69376C66.4278 9.37411 66.6465 10.0362 67.0512 10.581C67.4935 11.0262 68.0932 11.2763 68.7186 11.2763C69.344 11.2763 69.9438 11.0262 70.386 10.581C70.8053 10.048 71.0334 9.38805 71.0334 8.70814C71.0334 8.02824 70.8053 7.36827 70.386 6.83526C69.9407 6.39587 69.3421 6.14976 68.7186 6.14976C68.0951 6.14976 67.4965 6.39587 67.0512 6.83526V6.80648Z"
          fill="var(--fg-base--default)"/>
    <path d="M82.5214 11.1852V13.9574H81.0922C80.0594 14.0206 79.0403 13.694 78.2339 13.0413C77.5527 12.4322 77.2144 11.4202 77.2144 10.015V6.14931H75.8091V3.42992H77.2144V0.849609H80.3872V3.42992H82.4833V6.14931H80.3872V10.0725C80.3541 10.2256 80.3597 10.3845 80.4036 10.5348C80.4474 10.6851 80.528 10.8219 80.638 10.9327C80.748 11.0434 80.8839 11.1246 81.0332 11.1687C81.1825 11.2129 81.3404 11.2185 81.4924 11.1852H82.5214Z"
          fill="var(--fg-base--default)"/>
    <path d="M94.3402 9.27574H87.0943C87.0586 9.91014 87.2745 10.5329 87.6946 11.0071C88.0765 11.3435 88.5742 11.5157 89.0809 11.4867C89.5018 11.501 89.9156 11.3746 90.2575 11.127C90.5636 10.8994 90.7824 10.5725 90.8768 10.2014H94.2687C94.1371 10.9297 93.8277 11.6137 93.3684 12.1918C92.8973 12.7846 92.2932 13.2563 91.6057 13.5682C90.8568 13.9038 90.0432 14.0677 89.2238 14.0479C88.2758 14.0664 87.3385 13.8437 86.4988 13.4004C85.7089 12.9703 85.0613 12.3167 84.6361 11.5203C84.1655 10.6368 83.9324 9.64482 83.9597 8.64265C83.9351 7.64191 84.1646 6.65142 84.6266 5.76499C85.051 4.97168 85.6991 4.32253 86.4893 3.8993C87.3388 3.47354 88.2748 3.25195 89.2238 3.25195C90.1727 3.25195 91.1087 3.47354 91.9582 3.8993C92.7332 4.31631 93.3693 4.95341 93.7876 5.73142C94.2316 6.54965 94.4549 7.47069 94.4355 8.40285C94.4349 8.69641 94.4029 8.98905 94.3402 9.27574ZM90.6434 6.3645C90.2511 6.01297 89.7391 5.82742 89.2142 5.84652C88.6779 5.82924 88.1551 6.01783 87.7517 6.37409C87.3402 6.78191 87.1055 7.33709 87.0991 7.91844H91.1817C91.2105 7.63554 91.1771 7.34975 91.0841 7.08124C90.9911 6.81273 90.8407 6.56806 90.6434 6.3645Z"
          fill="var(--fg-base--default)"/>
    <path d="M107.662 13.7461V16.8971H96.0669V13.7461H107.662Z" fill="#18FFB2"/>
    <path d="M9.46167 28.4252C10.1636 28.8803 10.7222 29.5275 11.0719 30.2909C11.4637 31.199 11.6658 32.1785 11.6658 33.1685C11.6658 34.1586 11.4637 35.1381 11.0719 36.0462C10.7251 36.8139 10.1661 37.4649 9.46167 37.9215C8.77052 38.3596 7.96784 38.5862 7.15118 38.5737C6.42591 38.5929 5.71029 38.4032 5.08841 38.027C4.52622 37.676 4.08791 37.1558 3.8355 36.5402V38.4586H0.629395V24.502H3.8355V29.84C4.0865 29.2223 4.52502 28.7002 5.08841 28.3484C5.70928 27.9689 6.42497 27.7758 7.15118 27.7921C7.96593 27.7739 8.76847 27.9938 9.46167 28.4252ZM4.45957 31.3028C4.0427 31.8369 3.81608 32.4965 3.81608 33.1757C3.81608 33.855 4.0427 34.5145 4.45957 35.0486C4.9018 35.4938 5.50156 35.7439 6.12694 35.7439C6.75231 35.7439 7.35207 35.4938 7.7943 35.0486C8.202 34.505 8.42256 33.8425 8.42256 33.1613C8.42256 32.4802 8.202 31.8176 7.7943 31.2741C7.58186 31.0488 7.32402 30.8719 7.03808 30.7553C6.75214 30.6387 6.44472 30.585 6.13646 30.5978C5.82424 30.5862 5.51315 30.6418 5.22398 30.7609C4.9348 30.88 4.6742 31.0599 4.45957 31.2885V31.3028Z"
          fill="var(--fg-base--default)"/>
    <path d="M23.9112 27.9043V38.4557H20.6861V36.5373C20.3926 37.1481 19.927 37.6585 19.3474 38.0049C18.7227 38.3783 18.0063 38.5678 17.2799 38.5516C16.7443 38.5762 16.2099 38.4804 15.7155 38.2714C15.2212 38.0624 14.7792 37.7453 14.4216 37.343C13.6721 36.4091 13.2951 35.2276 13.364 34.0289V27.9043H16.551V33.6213C16.5146 34.2285 16.7126 34.8265 17.1036 35.2903C17.5149 35.6779 18.0586 35.8911 18.6219 35.8857C19.1852 35.8804 19.7248 35.6568 20.1287 35.2615C20.5328 34.7631 20.7337 34.1288 20.6909 33.487V27.9043H23.9112Z"
          fill="var(--fg-base--default)"/>
    <path d="M26.5587 23.7301C26.9537 23.4166 27.442 23.2461 27.945 23.2461C28.448 23.2461 28.9363 23.4166 29.3313 23.7301C29.494 23.884 29.6236 24.0697 29.7122 24.2759C29.8009 24.4822 29.8466 24.7045 29.8466 24.9292C29.8466 25.1538 29.8009 25.3762 29.7122 25.5824C29.6236 25.7886 29.494 25.9743 29.3313 26.1282C28.9353 26.4393 28.4474 26.6083 27.945 26.6083C27.4427 26.6083 26.9547 26.4393 26.5587 26.1282C26.3961 25.9743 26.2664 25.7886 26.1778 25.5824C26.0892 25.3762 26.0435 25.1538 26.0435 24.9292C26.0435 24.7045 26.0892 24.4822 26.1778 24.2759C26.2664 24.0697 26.3961 23.884 26.5587 23.7301ZM29.5362 27.9027V38.4542H26.3348V27.9027H29.5362Z"
          fill="var(--fg-base--default)"/>
    <path d="M35.1276 24.4727V38.4293H31.9263V24.4727H35.1276Z" fill="var(--fg-base--default)"/>
    <path d="M43.5445 28.3191C44.1068 28.6722 44.545 29.1938 44.7974 29.8107V24.4727H47.994V38.4293H44.7926V36.5109C44.5386 37.1255 44.1006 37.6452 43.5397 37.9977C42.9178 38.3739 42.2022 38.5636 41.477 38.5444C40.6587 38.5578 39.8542 38.3312 39.1617 37.8922C38.4585 37.4342 37.8999 36.7836 37.5515 36.0169C37.1597 35.1088 36.9575 34.1293 36.9575 33.1392C36.9575 32.1492 37.1597 31.1697 37.5515 30.2616C37.9027 29.4992 38.461 28.8525 39.1617 28.3959C39.8542 27.9568 40.6587 27.7302 41.477 27.7436C42.2067 27.7322 42.9243 27.932 43.5445 28.3191ZM40.8481 31.2783C40.4434 31.8232 40.2246 32.4852 40.2246 33.1656C40.2246 33.846 40.4434 34.508 40.8481 35.0529C41.2903 35.498 41.8901 35.7481 42.5155 35.7481C43.1409 35.7481 43.7406 35.498 44.1828 35.0529C44.6021 34.5199 44.8302 33.8599 44.8302 33.18C44.8302 32.5001 44.6021 31.8401 44.1828 31.3071C43.7376 30.8677 43.139 30.6216 42.5155 30.6216C41.892 30.6216 41.2934 30.8677 40.8481 31.3071V31.2783Z"
          fill="var(--fg-base--default)"/>
    <path d="M60.2307 33.7491H52.98C52.9547 34.3747 53.1697 34.9862 53.5803 35.4565C53.956 35.8072 54.4546 35.9935 54.9666 35.9745C55.3886 35.9913 55.8041 35.8664 56.148 35.6196C56.4527 35.3906 56.6711 35.0642 56.7673 34.6939H60.1545C60.0244 35.4219 59.7167 36.1059 59.2588 36.6843C58.7859 37.2752 58.1823 37.7466 57.4962 38.0608C56.6859 38.4141 55.8084 38.5834 54.9258 38.5569C54.0432 38.5304 53.1772 38.3086 52.3893 37.9073C51.6005 37.4779 50.9532 36.8262 50.5266 36.032C50.0855 35.1378 49.856 34.1529 49.856 33.1544C49.856 32.1559 50.0855 31.171 50.5266 30.2767C50.9528 29.4831 51.6025 28.834 52.3941 28.411C53.2436 27.9853 54.1796 27.7637 55.1285 27.7637C56.0775 27.7637 57.0135 27.9853 57.863 28.411C58.6315 28.8198 59.2654 29.4447 59.6876 30.2096C60.1316 31.0278 60.355 31.9488 60.3355 32.881C60.329 33.1731 60.2939 33.4639 60.2307 33.7491ZM56.5291 30.8379C56.1376 30.485 55.6251 30.2993 55.1 30.3199C54.5634 30.3011 54.0401 30.4899 53.6374 30.8475C53.2263 31.256 52.9903 31.8103 52.98 32.3918H57.0627C57.0937 32.1092 57.0619 31.8231 56.9696 31.5544C56.8774 31.2856 56.7269 31.0409 56.5291 30.8379Z"
          fill="var(--fg-base--default)"/>
    <path d="M66.9337 28.359C67.5519 27.9844 68.2607 27.7886 68.9822 27.793V31.2414H68.0675C67.3664 31.1973 66.6708 31.3897 66.0905 31.7882C65.8376 32.02 65.6422 32.3082 65.5197 32.6296C65.3973 32.9511 65.3513 33.2969 65.3854 33.6395V38.4356H62.1841V27.8842H65.3854V29.865C65.7737 29.2449 66.3048 28.7283 66.9337 28.359Z"
          fill="var(--fg-base--default)"/>
    <path d="M77.4931 28.7512C78.2902 29.4224 78.8197 30.3608 78.9842 31.3939H75.9877C75.9183 30.9972 75.7084 30.6394 75.3969 30.3867C75.0678 30.1309 74.6596 30.0001 74.2441 30.0174C73.9505 29.9962 73.6589 30.0794 73.4199 30.2524C73.3258 30.3347 73.2515 30.4375 73.2028 30.553C73.1541 30.6685 73.1322 30.7937 73.1388 30.919C73.139 31.0804 73.1884 31.2378 73.2805 31.37C73.3725 31.5021 73.5027 31.6025 73.6533 31.6576C74.1771 31.8732 74.7214 32.0339 75.2778 32.1372C75.9439 32.2854 76.5996 32.4777 77.2406 32.7128C77.759 32.9131 78.2181 33.2432 78.5745 33.672C78.9688 34.1738 79.1686 34.8027 79.1366 35.4418C79.1489 36.0129 78.9822 36.5733 78.6602 37.0437C78.3005 37.5412 77.8035 37.9215 77.231 38.1372C76.5419 38.4193 75.8023 38.5548 75.0587 38.5353C73.8562 38.5935 72.6675 38.2569 71.6716 37.576C71.2449 37.2556 70.8869 36.8517 70.6192 36.3885C70.3515 35.9253 70.1796 35.4124 70.1138 34.8806H73.2055C73.2178 35.0853 73.2756 35.2847 73.3745 35.464C73.4734 35.6432 73.6111 35.7979 73.7772 35.9166C74.1554 36.1709 74.6044 36.2969 75.0587 36.2763C75.3552 36.2972 75.6489 36.2066 75.8829 36.0221C75.9759 35.9389 76.0494 35.836 76.098 35.7207C76.1466 35.6054 76.1691 35.4806 76.1639 35.3554C76.1702 35.1867 76.124 35.0202 76.0318 34.8792C75.9395 34.7382 75.8059 34.6297 75.6494 34.5689C75.1056 34.3596 74.5444 34.1991 73.9725 34.0893C73.3255 33.9599 72.6887 33.7836 72.067 33.5617C71.5658 33.3727 71.1213 33.0572 70.776 32.6456C70.3901 32.157 70.1967 31.5422 70.2329 30.919C70.2217 30.4804 70.3124 30.0452 70.4976 29.6481C70.6829 29.2509 70.9576 28.9028 71.3 28.6313C72.1734 27.9949 73.2396 27.6846 74.3155 27.7536C75.4594 27.6907 76.5875 28.0448 77.4931 28.7512Z"
          fill="var(--fg-base--default)"/>
    <path d="M93.8601 28.4272C94.5621 28.8824 95.1206 29.5295 95.4703 30.2929C95.8621 31.201 96.0643 32.1805 96.0643 33.1705C96.0643 34.1606 95.8621 35.1401 95.4703 36.0482C95.1235 36.816 94.5645 37.467 93.8601 37.9235C93.169 38.3616 92.3663 38.5882 91.5496 38.5758C90.8243 38.5949 90.1087 38.4052 89.4868 38.029C88.9247 37.678 88.4863 37.1578 88.2339 36.5422V43.463H85.0278V27.9044H88.2339V29.8229C88.4849 29.2051 88.9235 28.6831 89.4868 28.3313C90.1087 27.9551 90.8243 27.7654 91.5496 27.7845C92.3653 27.7692 93.1679 27.9924 93.8601 28.4272ZM88.858 31.3049C88.4411 31.8389 88.2145 32.4985 88.2145 33.1777C88.2145 33.857 88.4411 34.5166 88.858 35.0506C89.3002 35.4958 89.9 35.7459 90.5254 35.7459C91.1507 35.7459 91.7505 35.4958 92.1927 35.0506C92.6004 34.5071 92.821 33.8445 92.821 33.1634C92.821 32.4822 92.6004 31.8197 92.1927 31.2761C91.9803 31.0508 91.7225 30.874 91.4365 30.7573C91.1506 30.6407 90.8432 30.587 90.5349 30.5998C90.2227 30.5882 89.9116 30.6438 89.6224 30.7629C89.3332 30.882 89.0726 31.0619 88.858 31.2905V31.3049Z"
          fill="var(--fg-base--default)"/>
    <path d="M102.668 28.359C103.288 27.9842 103.998 27.7884 104.721 27.793V31.2415H103.802C103.101 31.1988 102.406 31.391 101.825 31.7882C101.573 32.0205 101.378 32.3088 101.257 32.6303C101.135 32.9517 101.09 33.2973 101.125 33.6395V38.4356H97.9185V27.8842H101.125V29.865C101.512 29.2462 102.042 28.7298 102.668 28.359Z"
          fill="var(--fg-base--default)"/>
    <path d="M113.932 28.4258C114.731 28.8557 115.392 29.5062 115.837 30.3011C116.301 31.1884 116.544 32.176 116.544 33.1788C116.544 34.1815 116.301 35.1691 115.837 36.0564C115.392 36.8513 114.731 37.5018 113.932 37.9317C113.064 38.3609 112.111 38.5841 111.145 38.5841C110.178 38.5841 109.225 38.3609 108.358 37.9317C107.543 37.5108 106.869 36.8589 106.419 36.0564C105.952 35.1701 105.708 34.1821 105.708 33.1788C105.708 32.1754 105.952 31.1874 106.419 30.3011C106.871 29.4997 107.544 28.848 108.358 28.4258C109.225 27.9966 110.178 27.7734 111.145 27.7734C112.111 27.7734 113.064 27.9966 113.932 28.4258ZM109.601 31.2315C109.155 31.7662 108.93 32.453 108.972 33.15C108.926 33.8475 109.151 34.536 109.601 35.0684C109.799 35.2809 110.039 35.4492 110.306 35.5624C110.573 35.6756 110.86 35.7312 111.149 35.7255C111.437 35.7316 111.722 35.6761 111.987 35.5628C112.251 35.4496 112.489 35.281 112.683 35.0684C113.128 34.5335 113.35 33.846 113.303 33.15C113.346 32.4545 113.124 31.7686 112.683 31.2315C112.49 31.0159 112.253 30.8448 111.989 30.7297C111.724 30.6147 111.438 30.5585 111.149 30.5649C110.859 30.5589 110.571 30.6153 110.304 30.7302C110.037 30.8452 109.797 31.0161 109.601 31.2315Z"
          fill="var(--fg-base--default)"/>
    <path d="M124.452 28.3202C125.019 28.6748 125.464 29.1953 125.729 29.8118V27.8934H128.911V38.3633C128.926 39.2773 128.734 40.1827 128.349 41.0107C127.971 41.8039 127.363 42.4629 126.605 42.9004C125.735 43.396 124.747 43.6446 123.747 43.6198C122.399 43.6892 121.068 43.2933 119.974 42.4975C119.506 42.1269 119.116 41.6672 118.825 41.1446C118.534 40.6221 118.348 40.0469 118.278 39.452H121.441C121.485 39.6556 121.568 39.8484 121.686 40.0196C121.803 40.1908 121.953 40.3369 122.127 40.4496C122.547 40.7066 123.033 40.8319 123.523 40.8093C124.111 40.8367 124.686 40.63 125.124 40.2338C125.345 39.9863 125.514 39.6954 125.619 39.3794C125.724 39.0633 125.763 38.7288 125.734 38.3969V36.5504C125.467 37.1647 125.022 37.6832 124.457 38.0372C123.837 38.4147 123.123 38.6046 122.399 38.5839C121.581 38.5973 120.776 38.3707 120.084 37.9316C119.38 37.4737 118.822 36.8231 118.473 36.0564C118.082 35.1483 117.879 34.1688 117.879 33.1787C117.879 32.1886 118.082 31.2091 118.473 30.301C118.825 29.5387 119.383 28.8919 120.084 28.4354C120.776 27.9963 121.581 27.7697 122.399 27.7831C123.12 27.7605 123.833 27.9469 124.452 28.3202ZM121.765 31.2794C121.358 31.823 121.137 32.4856 121.137 33.1667C121.137 33.8478 121.358 34.5104 121.765 35.054C122.207 35.4992 122.807 35.7492 123.433 35.7492C124.058 35.7492 124.658 35.4992 125.1 35.054C125.519 34.521 125.747 33.861 125.747 33.1811C125.747 32.5012 125.519 31.8412 125.1 31.3082C124.655 30.8688 124.056 30.6227 123.433 30.6227C122.809 30.6227 122.21 30.8688 121.765 31.3082V31.2794Z"
          fill="var(--fg-base--default)"/>
    <path d="M136.054 28.359C136.674 27.9842 137.384 27.7884 138.107 27.793V31.2415H137.188C136.487 31.1988 135.792 31.391 135.211 31.7882C134.959 32.0205 134.764 32.3088 134.643 32.6303C134.521 32.9517 134.476 33.2973 134.51 33.6395V38.4356H131.309V27.8842H134.51V29.865C134.898 29.2462 135.427 28.7298 136.054 28.359Z"
          fill="var(--fg-base--default)"/>
    <path d="M145.657 28.3197C146.221 28.676 146.664 29.1961 146.929 29.8113V27.8929H150.111V38.4443H146.929V36.5259C146.663 37.1389 146.22 37.657 145.657 38.0127C145.035 38.3889 144.319 38.5786 143.594 38.5594C142.776 38.5728 141.971 38.3462 141.279 37.9072C140.576 37.4492 140.017 36.7986 139.669 36.0319C139.277 35.1238 139.075 34.1443 139.075 33.1542C139.075 32.1642 139.277 31.1847 139.669 30.2766C140.02 29.5142 140.578 28.8674 141.279 28.4109C141.971 27.9718 142.776 27.7452 143.594 27.7586C144.321 27.7438 145.037 27.9385 145.657 28.3197ZM142.965 31.2789C142.561 31.8238 142.342 32.4859 142.342 33.1662C142.342 33.8466 142.561 34.5086 142.965 35.0535C143.408 35.4986 144.007 35.7487 144.633 35.7487C145.258 35.7487 145.858 35.4986 146.3 35.0535C146.719 34.5205 146.947 33.8605 146.947 33.1806C146.947 32.5007 146.719 31.8407 146.3 31.3077C145.855 30.8683 145.256 30.6222 144.633 30.6222C144.009 30.6222 143.411 30.8683 142.965 31.3077V31.2789Z"
          fill="var(--fg-base--default)"/>
    <path d="M169.108 28.9919C169.888 29.9149 170.284 31.1057 170.213 32.3156V38.4306H167.026V32.6753C167.043 32.3936 167.005 32.1112 166.914 31.8445C166.822 31.5778 166.679 31.332 166.492 31.1213C166.302 30.9322 166.074 30.7851 165.824 30.6893C165.574 30.5935 165.306 30.5512 165.039 30.565C164.761 30.5505 164.482 30.596 164.223 30.6986C163.963 30.8011 163.728 30.9584 163.534 31.1597C163.14 31.6218 162.941 32.221 162.981 32.8288V38.4114H159.775V32.6561C159.811 32.0887 159.623 31.5299 159.251 31.1022C159.064 30.9149 158.84 30.7688 158.594 30.673C158.348 30.5772 158.085 30.5339 157.822 30.5458C157.543 30.5314 157.264 30.5761 157.003 30.6768C156.742 30.7776 156.505 30.9323 156.307 31.1309C156.108 31.3596 155.956 31.6257 155.859 31.9138C155.763 32.2019 155.724 32.5063 155.745 32.8096V38.3923H152.543V27.8408H155.745V29.7113C156.015 29.1276 156.455 28.6408 157.007 28.3156C157.61 27.9628 158.297 27.7821 158.994 27.7928C159.738 27.7789 160.471 27.9714 161.114 28.3492C161.728 28.7237 162.212 29.2797 162.5 29.9415C162.852 29.2991 163.364 28.7602 163.986 28.378C164.791 27.9059 165.727 27.7105 166.651 27.8212C167.576 27.932 168.44 28.3429 169.112 28.9919H169.108Z"
          fill="var(--fg-base--default)"/>
</svg>
