<svg xmlns="http://www.w3.org/2000/svg" width="444" height="100" viewBox="0 0 444 100">
  <g fill="none" fill-rule="evenodd">
    <path fill="#4038FF" d="M46,25 L24.9999,25 C25,52.6126 47.388,75.0005 75,75.0005 C102.612,75.0005 125,52.6126 125,25 L104,25 C104,11.1929 115.193,-7.81597009e-14 129,-7.81597009e-14 L150,-7.81597009e-14 L150,25 C150,66.4249 116.426,99.9988 75,99.9988 C33.574,99.9988 0,66.4249 0,25 L0,-7.81597009e-14 L21,-7.81597009e-14 C34.8071,-7.81597009e-14 46,11.1929 46,25 Z M75,53 C75,53 55,45.3364 55,25.211 L55,-7.81597009e-14 L75,7.37531 L95,-7.81597009e-14 L95,25.211 C95,45.7944 75,53 75,53 Z"/>
    <path fill="#000" fill-rule="nonzero" d="M0 50L13.574 50 13.574 30.469 31.543 30.469 31.543 50 45.117 50 45.117 0 31.543 0 31.543 19.531 13.574 19.531 13.574 0 0 0zM52.262 0L70.621 34.277 70.621 50 84.098 50 84.098 34.277 102.457 0 87.32 0 77.555 20.313 77.164 20.313 67.398 0zM128.87 50C144.105 50 153.773 40.625 153.773 25 153.773 9.375 144.105 0 128.675 0L109.632 0 109.632 50 128.87 50zM123.206 38.477L123.206 11.523 127.991 11.523C135.804 11.523 140.101 14.551 140.101 25 140.101 35.449 135.804 38.477 128.382 38.477L123.206 38.477zM162.803 50L176.377 50 176.377 33.496 181.065 33.496 189.854 50 204.6 50 194.444 31.348C199.766 28.784 202.94 23.926 202.94 16.992 202.94 6.348 195.494 0 184.385 0L162.803 0 162.803 50zM176.377 22.949L176.377 10.84 181.163 10.84C185.923 10.84 188.78 12.695 188.78 16.992 188.78 21.265 185.923 22.949 181.163 22.949L176.377 22.949zM224.464 50L227.345 40.43 243.849 40.43 246.73 50 261.378 50 244.874 0 226.32 0 209.816 50 224.464 50zM230.421 30.273L235.402 13.77 235.792 13.77 240.773 30.273 230.421 30.273z" transform="translate(182 25)"/>
  </g>
</svg>
